<mxfile host="Electron" modified="2024-04-02T20:18:53.039Z" agent="Mozilla/5.0 (X11; Linux x86_64) AppleWebKit/537.36 (KHTML, like Gecko) draw.io/22.0.3 Chrome/114.0.5735.289 Electron/25.8.4 Safari/537.36" etag="9akaP83Rjv8VB6gv1UIL" version="22.0.3" type="device">
  <diagram id="R2lEEEUBdFMjLlhIrx00" name="Page-1">
    <mxGraphModel dx="1311" dy="780" grid="1" gridSize="10" guides="1" tooltips="1" connect="1" arrows="1" fold="1" page="1" pageScale="1" pageWidth="850" pageHeight="1100" math="0" shadow="0" extFonts="Permanent Marker^https://fonts.googleapis.com/css?family=Permanent+Marker">
      <root>
        <mxCell id="0" />
        <mxCell id="1" parent="0" />
        <mxCell id="NjNdJGhCKdxigsdHhm3p-1" value="" style="shape=image;verticalLabelPosition=bottom;labelBackgroundColor=default;verticalAlign=top;aspect=fixed;imageAspect=0;image=data:image/png,iVBORw0KGgoAAAANSUhEUgAAAPAAAAHiCAYAAADWPEG2AAAACXBIWXMAAA7EAAAOxAGVKw4bAAAgAElEQVR4nOzdd1xV9ePH8Rd7yEYQEXGmuBeKg0o0UXPmQJTcA3cJaqVW5kBT1BAXYImoOXGbSJpb0/CrmWm5tSD2kCHcC5ffH/y4eeWqcOWKxz7Px6NHcubnnnvfZ3zOOZ+PTmFhYSGCIEiSbkUXQBAEzYkAC4KEiQALgoSJAAuChOk/+Ufs7cdcO/eoosoiCMIzGBrr4uFlV2K4/tMDbl3OfCUFEgSh9Bq1s1Q7vESAAVy72VG3lfoZBEF4deR5CiID7z5zvNoAA+joaKU8giCUI1GJJQgSJgIsCBImAiwIEiYCLAgSJgIsCBImAiwIEiYCLAgS9sz7wMLz/fLLOebMmQqArq4uxsYmVK1ajUaNmtO9+wfUrv1WiXmSkxNZuPBTVqz47rnLLigoYP/+HRw79gN///2A/Hw5NjaVcXFpgrf3CGrXrgfArl2bCAsLYujQcXz44TgA5HIZPXu2f+7yi6f/9ttgsrOzmDr1M7XTrV69hP37d7BgwUrq1WuIl9d7L9wuxUJCtlOtWvVSl0XQjAjwSzIxMcXZuRZZWZk8fHifO3ducvDgLsaP96dPn0Eq0x45sp/r168SG/uQatWc1S4vOzuLWbMm88cf1wBwcHDE0NCIpKQETp6MplOnbsoAP4+enh41a9ZRO87a2lb570OHImnX7l1at35+0PT09KhTR3W9KSnJpKenUrmyPZaWVirjjIyMylwWoexEgF+Sm5s7n30WAMDjxzns3BnBli3rWbduGS1atMHZuRYAhYWFREfvB+Cnnw4zdKiv2uUFBHzGH39co169hsycOY/q1WsCoFAouHLlF5o1cy1VuczNLVmz5vtSTbt8+TxCQrZjYfHsx2fNzMxLLO/bb4PZsWMjgwaNoHdvrxLzyOWyMpdFKBtxDVyOTExMGTZsPG3bvoNCoeDs2ePKcVeu/EJ8fBwAx44dVjv/6dPHiIk5T+XK9gQErFKGF4pO01u2dENPT6/cy52amkxw8KJyX66gfSLAWtC4cXOg6Jq32OHDewFwcKjGP//8zY0bv5WY78CBnQAMGTIac3OLV1DSIm+91YBTp47y00/qdyzC60sEWAsyM4veqTYxMVX+fe7cCapWdcLbewRAibDI5TKuX/8VAHf3Tq+qqAB4eQ3nrbcasHr1EpWdjvD6E9fA5Uwul3P+/EkA6tatDxSFVS6X0bGjJ+3avcvKlYs4eTKa8eP9lafEiYnxyOVyrK1tsbS0fulyZGdn8fnnH6sMa9GiDf36DSkxrb6+PjNmfMWkSR8SGDiXRYtWo1OOr6OVpSxC2YgAv6S8vDxksjzy8vJ48OAumzeH8vDhPaysbGjX7l0AjhzZB8A777yHlZUNLi6NuX79KpcunadNG3cAcnKygaLKovIgl8u4ePGMyrCna4qfVKNGbUaOnERo6Ar27dtO377e5VIOTcoilJ4I8Es6f/4kvXp1UBlmZmbOnDmLMTIy5tatG9y5cxMnpxrK2z/t23fk+vWrHD36gzLARkbGAOTl5ZZLuaysbNi+PbpM83zwwWDOnz/Jt98G06pV23Iph6ZlEUpHXAO/JCsrG+rVa0jdui60bt2eESMm8u23kTRp0hL4t/KqY0dP5TwdOngAReF//DgHADu7Kujq6pKcnKgc9qrp6uoyffpc9PT0WLLkC/Lz8yukHELpiSPwS2re3FV5H/hpMlkeJ04cAYpqeuPi/lKOc3BwJD4+jjNnfqJLl56YmJhSs2Yd7t69xc8/n8LDo9srKf/THBwcGT/enxUr5vPXX/crpAxC6YkAa9Hp08fIzs4C4Msv/dRO89NPh+nSpScA773Xg9DQb4iICKFt23eUtdjFFAoFcrlMebqtLd269eHcuRNcuHBaq+sRXp4IsBYVnz6//34/WrZ0Uxknk+URGDiXK1d+ITU1GRubyvTqNZADB3YRF/cXs2ZNZvr0ucpHLlNTk1m7NhAjI2OmT5+r9bL7+X3OuHFeZGSka31dguZEgLUkLu4vrl27jL6+PsOHj8fKyqbENEePHuJ//7vA8eNH6N/fB0NDI+bNW8HMmeO5fv0qo0b1w8GhGjo6OiQkxKFQKKhXryFyuQwDA8Pnrj8zM4OJE9XfpvHxGau8Dn8WKysbpk6dxfz5M0v/obVUFuHZRIC15MiR/RQWFtK+fUe14QXo0qUn//vfBY4d+4H+/X0AcHauRWjoDrZvD+f8+ZMkJsZjYGCAi0tjPDy60b37BxgYGLxw/QUFBdy5c1PtuEePMkr1GdzdO9GpU/dSTavtsgjq6TzZvWjs7cfsWR2Lazc73nIV7UILQkWT5Ra1C92onaXanhnEbSRBkDARYEGQMBFgQZAwEWBBkDARYEGQMBFgQZAwEWBBkDARYEGQMBFgQZAwEWBBkDARYEGQMBFgQZAwlbeRkuPyAEhLyOOvP7IqpEBSkxJbtM2MK+lRyUq83CWUr3x50btGj1Llaser/cXdufyIO5cfaa9UgiCUSVZ6gdrhagP8bn87jCuVfxceb6I/fnnEgxs5dB3mUNFFEd5QRyLinznumed8b7Uw00ph3jR//FJ0pmJpZ4C9k9ELphaEssl7rHjueFGJJQgSJgIsCBImAiwIEiYCLAgSJgIsCBImAiwIEiYCLAgSJgIsCBKmcYCTkpLw9PQkNDS0zPPeu3eP5ORkTVctWWfOnOHdd9/l559/fu5048aNY8gQ0Xu98GIaB1hPTw9zc3OMjcvWU965c+cYOHAgDx480HTVkmVoaIiZmVmpukYRhNLQ+PUZGxsbIiMjyzyfTCbTdJWS16ZNGw4dOlTRxRDeIBodgaOjo3F1dcXV1ZVNmzYBEBcXh6urKxcvXsTf35+3334bT09Pvv76a2Voo6OjmT59OgC+vr64urri7+9fTh/l9RYQEKDcZtevX1cOz83NZfny5Xh6evLOO+8wYcIEkpKSKrCkgpRoFODmzZsza9YsteNmzpyJq6srYWFheHt7s3PnTjZv3gwUHYEmTZoEwIwZM1i/fj2TJ0/WsOjSMmDAAAYNGqQyTKFQ4Ofnx9atW3F3d2f69OlUrVqVv/76q4JKKUiNRqfQ9vb2tG3bVu244cOHM3jwYABcXFyIiori1KlTjBo1CisrK2rVqgVA3bp1ad68uYbFlp569erh4uKiMuzgwYNcvHgRPz8/ZaVV7969uX//Prm5uRVRTEFiyv02kpGR6it1Tk5OJCYmlvdq3gjR0dFUqlSpxJFZX1+07CGUjtbvA+vr65Ofn6/t1UhSXFwcjo6O6OmJxhMEzVTYgxxP9Cv+n2VsbExqampFF0OQsFceYFNTUwBxWg00a9aMlJQUzp8/X9FFESTqlV9subi4YGZmRkhICDKZjOzsbLp3746Njc2rLkqF+/DDDzl06BAzZsxg0KBB1K1bl1u3bvHbb78pK/sE4Xle+RHYwsKCxYsXo6enR2BgIJGRkcTHP7vRrjdZtWrVCAsLo3HjxmzdupUVK1aQmpoqwiuUmk7hExejv55K5/SeZN7tb0cTd8uKLJdkHAiN48GNHLz8q4tG7YRyl/dYQdisu1hXMcLn0+olxou3kQRBwkSABUHCRIAFQcJEgAVBwkSABUHCRIAFQcJEgAVBwkSABUHCRIAFQcJEgAVBwkSABUHCVN5GKn4qurAQFOId/DJRKMQ2E8pf4fP791Z9meHUnmSunkrXdpkEQSgjIxM9xgaUfEtN7fvAtZqUrbH2/7KMpHxS4/PFNhO05t5vz27gUCXAlrZFf9rXMMCljal2S/WGOLopDeKhUQdTbB1FjwtC+ZLlFnLvt1xMLdS3vSEqsQRBwkSABUHCRIAFQcJEgAVBwkSABUHCRIAFQcJEgAVBwkSABUHCtBLgwsJCLl++XKZ5UlJS6NevH+Hh4dooUoWLj4/Hw8ODXbt2VXRRhDeIVgIcFhaGn59fmebR09PDzMwMY2PxSKIglJZW+kaSyWSlnrawsBAdHR2srKyIiIgol/XL5XLS0tKwt7cvl+UJwutK4wAfPHiQ7du3k5iYSNWqVenSpQs+Pj4sX76cAwcOAODh4QHApEmTGDBgAFeuXGHatGnMnDmTixcv8vPPP2Ntbc3o0aNZsGABAOPHj1d2eO3t7Y2XlxdxcXEcO3YMmUxGkyZN8PPzU4azsLCQXbt2sX//fpKSknB2dsbS0pKUlBTCwsJeu753U1NT+eqrr7hw4QJmZmZ0796d4cOHo6v778nQhQsX2LZtGzdv3qSgoIAmTZrg5eVF69atK7DkwutIo1PoGzdusGzZMuzs7PD396dt27YkJCQARaHr2LEjACtXrmTlypXKIBdbt24dNWvWZMWKFcyaNYtmzZrh7++vdl2rV69GoVCwePFipk+fzrVr11i6dKly/KZNm1izZg1ubm7Mnj0bMzMzYmJi8Pb2fu3CC7Bjxw5MTU356KOPaNCgAREREcodHsC+ffv49NNPycvLY8yYMUyYMAETExPRj7CglkZH4Li4OAB69OhB586dVcY5Ojpia2sLQJMmTdTO7+bmxvDhw1WGubq6qp22ZcuWTJ06FYD69etz9epV9u7di0wmw9DQkJ07d+Lq6srkyZMBaNGiBQMGDODMmTN4enpq8vG0ytvbmzFjxgDg6enJsGHD+PHHH+nTpw8ZGRmsXbsWFxcXgoODlTugPn36VGSRhdeYRkfgNm3aYGtrS3BwMIcPH0Yul5dp/meFVR0jI9Ue/xwdHQFITk4mOzubrKwsnJ2dlePNzMywsbEhMzOzTGV6VaysrJT/1tHRoU6dOsqzl5iYGPLy8ujXr99refYgvH40CrC5uTlr1qyhVatWBAYG4uPjwy+//FLq+U1NNX/XWF+/6KQhPz+fSpUqYWNjw9WrVyluWCQxMZHExETeeustjdfxKunq6lJQUAAU3UoDcHBwqMgiCRKi8W0ke3t7Pv/8c8LDwzEzM2P27NkkJyerTPNEaz1aM3LkSG7fvo2/vz8bNmzA398fBwcHfHx8tL7u8mZubg78G2RBeBGNA1x82ly9enUGDhyIXC7n7t27AJiYmACQlJRUDkV8Pk9PTzp37oxcLic+Pp7+/fsTGhqKpaX0Oihv1aoVurq6HDhwoMTOr/goLQhP0qgS6+HDh/j5+dGrVy8cHBzYvXs3hoaG1K5dGyiqeNq8eTNLly6lS5cuZGRkMHDgwHIteLHAwEDS09Pp27cvOjo66Onp8fDhQ1xcXLSyPm2yt7dnyJAhbN68malTp9KpUycMDAw4ffo0derUYdy4cRVdROE1o1GACwoKqFevHnv27CEvL4+aNWuycOFCKleuDBTVBPv6+rJ9+3Zu3LiBg4MD/fr1K9eCF2vRogXr1q3j0qVLKsObN2/O0qVLldfMUjF69GjlTnHt2rWYmZlRq1YtGjduXNFFE15DKs3K/noqndN7knHraS6ZRu2Kn+Qqlp+fz44dOwgLC1PektGmo5vSiL0lo+d4G9GonVDuZLmFbA1IxLqKET6fVi8xXlqHJzVCQkI4e/Ysb7/9NlWqVCEjI4Mff/wRc3Nz5S0nQXhTST7ALVq04K+//uLw4cNkZ2djbW1Ny5YtGTx4MBYWFhVdPEHQKskH2M3NDTc3t4ouhiBUCPFCvyBImAiwIEiYCLAgSJgIsCBImAiwIEiYCLAgSJgIsCBImAiwIEiYCLAgSJjKk1gZKfkAXD2RzdUT2RVSIKmRPS56F+THjenoilZwBC3JeZSvdrjaRylludpvSeNNUfwuV768EMrWNJggvDSVAFvaFv3p3qcyTdyl16JFRTgQGseDGzn0/8gJeyejF88gCGWQ91hB2Ky7mFqof21BXAMLgoSJAAuChIkAC4KEiQALgoSJAAuChIkAC4KEiQALgoSJAAuChIkAC4KEaSXAhYWFxMTElGmepKQkPD09CQ0N1UaRBGDu3LnKzteFN4NWArxq1SrGjx9fpnn09PQwNzfH2NhYG0UShDeSVtqFlslkpZ62uGsUGxsbIiMjy239qampop/dcvJ09zXC60PjAO/Zs4dNmzYRHx9PtWrV6N69O6NGjSIgIIDdu3cD4OrqCoCfnx9Dhgzh0qVL+Pr68sUXX3D+/HnOnDmDjY0NEyZMYM6cOQB89NFHDB06FIBevXrh4+NDbGwsUVFRyGQymjVrxqxZs5ThVCgUbN26lcjISBISEqhZsyZWVlYkJyfz/fffvzY93cfFxdG7d2/WrFnD9u3buXjxIiYmJnTu3Jlp06ZhaGgIFIVl69at7Nq1i3/++Qdra2vee+89Jk6cqDw76dWrF0OGDOHOnTv8+OOPKBQKmjRpwtixY9m7dy+nT58GwN3dnZkzZ2JmZqYsh0KhYOnSpRw+fBi5XE7z5s2ZMmUK9erVA3jmd7Rnzx50dXW5c+cOwcHBXLp0CUNDQ+rUqcPIkSNp167dK96iAmh4Cn3t2jUWLlyIvb09s2fPxt3dnfj4eACGDRvGe++9B8D69etZv349Xbp0UZk/KCiIWrVqERISwrx582jZsiWzZs1Su67ly5dTUFBAUFAQs2fP5urVq8yfP185/rvvvmPFihV06NCB+fPnY25uzoULFxg2bNhrE94nzZw5E1dXV8LCwvD29mbnzp1s3rxZOT44OJjly5fTtGlT5s2bR8+ePdm+fTszZsxQWc6yZcuwsLAgJCSE8ePHExMTw9ixYzE3N2fNmjWMHz+eqKgoVq5cqTJfTk4OaWlpfPzxx3h5efHrr78yevRobt26pTLd09+Rrq4uf/75JyNHjiQ/Px8/Pz+mTp2KqakpU6ZMYf/+/drbaMIzaXQEjo2NBaBv375069ZNZZyTkxN2dnZAURef6nTo0KFEX7dt27ZVO22bNm2YOXMmAA0bNuTKlSvs2LEDmUyGoaEhW7ZsoW3btvj7+wPQunVrunXrxsmTJ+nRo4cmH0+rhg8fzuDBgwFwcXEhKiqKU6dOMWrUKOLj49m8eTOdOnVi7ty5AHTp0gV9fX1CQ0O5fPkyLVq0AIq6lJk6dapyOdHR0WRkZDB9+nTlsJMnT3Lu3DmV9ZuZmREQEKD829PTk2HDhhEcHKwSdnXf0aJFi2jevLnKdH369GHs2LGEh4fTu3fvctpKQmlpFOB27dphZ2dHYGAgMpmMbt26KU8BS+NZYVXHyEj1Hdtq1aoBkJiYiJWVFZmZmdSoUUM53tzcHFtbWzIyMkq9jlfp6c/j5OTEH3/8AcAvv/yCQqEosVN8++23SwT46co+IyOjEt9BlSpVuHz58nPLU79+fVq3bs3FixcpKChQDn/6O0pOTubatWvo6enRvn17lXH5+fkqp+nCq6NRgC0sLAgPDycoKIgFCxawbt06Pv/881JfB5maat73sIFBUR+8xT8aW1tbLl++rKxoSUhIICEhAQ8PD43X8Srp6+uTn1/UXEp6ejqAsqP0YlZWVgBkZmaWadmlrXiqWrUq+fn55ObmKoc9/R0lJycD8MEHH+Dt7V1iGcXfi/BqaXwbqUqVKgQEBLBz507Mzc3x9/cnMTFRZZon+g7XGl9fX27evMnEiRMJCQlhwoQJODo6MnLkSK2vu7wVB7U4yMVSUlJUxpe3jIwMTExMnrtjLe6q9dGjR9SsWbPEf8VnRsKrpXGAi28V1ahRAx8fH2QyGbdv3wbAxMQEoESgtaFnz5507doVmUxGbGws3t7ebNmyRWs/dm1q1aoVOjo6nDhxQmX4kSNHlOPLW0ZGBhcvXsTNze25R2xHR0dq1qzJiRMnlHUgxXJycsq9XELpaHQKff/+fcaPH0+/fv1wdHRk27ZtGBoaUrduXaCoIum7775j3rx59OjRg7S0NHx8fMq14MUWLFhAWloaXl5e6OjooKenx/3792nYsKFW1qdNjo6O9OvXj927d2NiYkLLli359ddf2bZtGx4eHjRu3Pil15GVlcXs2bPp0KED8fHxREZGolAomDhx4gvn/eyzz5g8eTIjR45kyJAh2NjYcOXKFX799Vd27NjxWtb6v+k0CnBBQQENGjRgx44d5OXlUbt2bVasWIG9vT1QFOCpU6eyefNmlixZgqOjo9rrpvLg6uqqvMX0pFatWrF69Wr09aXVh/knn3yCvb09+/btIzIyEhsbG4YNG4avr2+5LH/QoEEkJSURGBhIfn4+LVu2ZNKkSdSuXfuF87Zq1YqwsDDWrFnD+vXr0dHRoXbt2sqdp/Dq6RQ+caH666l0Tu9J5t3+dpJplVKhUKCr+++VgFwuZ8uWLaxatYqIiAitH4mLW6X08q8uWqUUyl1xq5TWVYzw+bR6ifHSOjypERwczMmTJ/Hw8MDBwYH09HQOHz6MhYWFqFgR3niSD7CrqysPHjxg//79ZGVlYWNjQ5s2bRg+fDiWltI4ixAETUk+wB06dKBDhw4VXQxBqBDihX5BkDARYEGQMBFgQZAwEWBBkDARYEGQMBFgQZAwEWBBkDARYEGQMJUHOTJSil4s/+d+LgkPc9XOIKhKiSt6rfJiVCrGpmJ/KGhH3uMCtcPVPol181LZWn4Q4P7v2RVdBOENViBX3ziG2gC79TTHwkbyT1m+EtfPZxN7S0aXYdYVXRThDfVjRBoGxurP7lRSamn775+OdUvfSN1/2fXzRUdeI1MdbB1Fu1BC+ZLlFh15DQzVB1hctAmChIkAC4KEiQALgoSJAAuChIkAC4KEiQALgoSJAAuChIkAC4KEaSXAhYWFL+wV72kpKSn069eP8PBwbRTpPyc8PBwPDw+ysrKeOwxgypQpTJs27YXL9PDwYNWqVeVeVkFzWglwWFgYfn5+ZZpHT08PMzOzEt1mCtpnZmb2Uj1GChVHKw88F3d8VhrF3YJaWVkRERFRLuuXy+WkpaUpu3oRnm/RokUVXQRBQxoH+ODBg2zfvp3ExESqVq1Kly5d8PHxYfny5Rw4cABA2UfvpEmTGDBgAFeuXGHatGnMnDmTixcv8vPPP2Ntbc3o0aNZsGABAOPHj2fQoEEAeHt74+XlRVxcHMeOHUMmk9GkSRP8/PyU4SwsLGTXrl3s37+fpKQknJ2dsbS0JCUlhbCwsNemwy2FQsGOHTuIiooiNjYWExMTmjZtysSJE3F0dAQgKiqKr7/+mj59+hATE0NiYiJVqlShV69eDBw4UKX/obNnzxIREcG9e/ewsrKiUaNGjBw5Emdn51KXKTU1lf79+wNFHXo/GeSEhARWr15NTEwMhoaGajtl//vvv1m3bh2XL1+moKCAt956i1GjRik7Ic/PzyckJISffvqJnJwc6tSpg7e3N+7u7hptQ6EkjU6hb9y4wbJly7Czs8Pf35+2bduSkJAAFIWuY8eOAKxcuZKVK1eW6Gx73bp11KxZkxUrVjBr1iyaNWuGv7+/2nWtXr0ahULB4sWLmT59OteuXWPp0qXK8Zs2bWLNmjW4ubkxe/ZszMzMiImJwdvb+7UJL4Curi4XL16kQYMGjB07ll69enH58mXmzp1boh/lxMREZs6cyaJFi2jcuDFr165l/fr1yvEHDx7kyy+/pF69ekyfPh1vb2/u37+Pr68v9+7dK3WZzM3NmT9/fomuWFNTU5k0aRIxMTEMGDCAcePGKb/fJ8s4adIk/vjjD3x9ffHz8yM/P58ZM2Zw9epVAHbt2sWuXbtwd3fno48+wsHBocydlAvPp9EROC4uDoAePXrQuXNnlXGOjo7Y2toC0KRJE7Xzu7m5MXz4cJVhrq6uaqdt2bIlU6dOBaB+/fpcvXqVvXv3IpPJMDQ0ZOfOnbi6ujJ58mQAWrRowYABAzhz5gyenp6afDytWbZsmcpRtHLlyqxcuZKHDx9So0YN5fBRo0Ypu2pt1aoVqamp7Ny5k8GDB6NQKFi9ejWjR49m8ODBynm6du3KwIED2b179zN3hk8zMDDA3d29RMVUSEgIaWlprFmzhvr16wPg6elJly5dlNNERESQmZlJWFgYderUAcDd3Z2BAwcSHh7O8uXLlf0IDxs2DFtbW7p161aWzSWUgkYBbtOmDba2tgQHByOTyXjvvfcwMCj9q3TPCqs6RkaqPf4Vn24mJydjaWlJVlaWymmjmZkZNjY2r+We/vHjx2zfvp3Tp0+TkJCAmZkZAPHx8SoBflq7du24ePEit27dIjU1ldzcXDZs2MCGDRtUpsvPzycjI+OlylhQUMCpU6do3bq1MrxAiW5aY2JiqFWrljK8AKampjRr1oyYmBgKCwvx9PQkKiqKTz/9FF9f3zJ970LpaBRgc3Nz1qxZQ0hICIGBgWzYsIEZM2bQunXrUs3/MjWexT+k/Px8KlWqhI2NDVevXlVWhiUmJpKYmPjaXWdlZ2czfvx4srKyGDZsGA0aNODKlSuEhIQgl8ufO6+FhQUAmZmZpKamAuDn56e269TinYKm0tPTyc3NfWHPjhkZGVSvXrK7S0tLS+RyOXl5eTRp0oQVK1awbt06ZsyYQcOGDZkzZw5Vq1Z9qTIK/9L4NpK9vT2ff/454eHhmJmZMXv2bJKTk1WmefraThtGjhzJ7du38ff3Z8OGDfj7++Pg4ICPj4/W110WBw8e5O+//2bu3Ll88MEHuLi48NZbb5Vq3sTERKAoyObm5kBRTbuzs3OJ/2xsbF6qnMVnPOnp6c+dztLSUu3RPjU1FSMjI+VyGjduzKpVq1i8eDH3798v0RG78HI0DnDxUaN69eoMHDgQuVzO3bt3ATAxMQEgKSmpHIr4fJ6ennTu3Bm5XE58fDz9+/cnNDT0tetaNC0tDQAXFxflsOKQPG9Hl5+fz+HDhzE1NcXFxYVWrVqhr69PZGQk+fn5KtPm5v7bEGHxJc2jR4+eO+xpZmZm1KhRgwsXLjw3xC1atODOnTvEx8crh6WmpnLlyhWaNWuGjo4O+fn5ys/m5uaGu7s79+7dIy8v75nLFcpGowA/fPiQwYMHs3HjRo4cOcLu3bsxNDSkdu3aQFHFE8DSpUuJjo5m5wPDyvMAACAASURBVM6d5VfipwQGBpKenk7fvn1xc3PD2tqahw8fam19miq+/gsKCuLixYts27aNoKAgAG7fvq0ybUhICIcOHWLnzp34+vry8OFDRowYgbGxMXZ2dowYMYIHDx4wadIk9u7dy969e/Hz81MuD1Bev86fP19ZK6xumDojR44kOzsbX19ftm3bRnR0NPPmzVOZ5sMPP8TY2JgZM2bwww8/EBUVhZ+fH4WFhYwcORKAQ4cO4evry+7du9m7dy/nz5+ndu3aJeo1BM1pdA1cUFBAvXr12LNnD3l5edSsWZOFCxdSuXJloGjv7Ovry/bt27lx4wYODg7069evXAterEWLFqxbt45Lly6pDG/evDlLly4tUflSUYpryrdu3cpPP/1EgwYNWLJkCQcOHCAyMlL5o4eiM5iIiAjS0tJwcnJixowZvP/++8rxPj4+2Nvbs23bNtasWYOxsTENGzZU3r4rXt/48ePZt28fFy5coGnTpmqHqfPuu+/y5ZdfsnHjRr777jsqV65coga5WrVqrFy5ktDQUFatWoVCocDFxYUZM2YozzIqV66MgYEB3377LXp6ejRp0oSJEyeW41YVdAqfOH/79VQ6p/ck49bTHJc20ni0rrjyqlh+fj47duwgLCyMtWvXqpyyasPRTWnE3pLRc7zNSzdqV/wgR1hYmPI2kvDfJsstZGtAItZVjPD5tGSl4etxeHoJISEhnD17lrfffpsqVaqQkZHBjz/+iLm5ufKWkyC8qSQf4BYtWvDXX39x+PBhsrOzsba2pmXLlgwePFh5+0UQ3lSSD7Cbmxtubm4VXYxy0a1bN/G0klAm4oV+QZAwEWBBkDARYEGQMBFgQZAwEWBBkDARYEGQMBFgQZAwEWBBkDCVBznksqLHovNlhTxKyVc7g6Aq//8b4MzOUGBgJLaZoB2FCvWvnKoEOCezAIBL0Vlcis5SO4Og3vGtz38BXhBexuOsArXD1T5K2aTD6/Uy/OssKTaP+Pu5YpsJWvPb2QzQUT9OJcCWtkV/2jgY0sRd/CBL40BoUQudDdpaYO8kXlQXylfeYwW/nc3A1Fz9awuiEksQJEwEWBAkTARYECRMBFgQJEwEWBAkTARYECRMBFgQJEwEWBAkTCsBLiwsJCYmpkzzJCUl4enpSWhoqDaK9NoKDQ3F1dVVpTfF0aNH4+vrW4GlKunMmTO8++67/PzzzxVdFOEJWgnwqlWrGD9+fJnm0dPTw9zcHGNjY20USVLMzc2pVKlSRRdDhaGhIWZmZmXqRlbQPq00KyuTyUo9bXHPCjY2NkRGRpbb+lNTU3FwcCiX5b1q33zzzQunebpHCm1r06YNhw4demXrE0pH4wDv2bOHTZs2ER8fT7Vq1ejevTujRo0iICCA3bt3A/926OXn58eQIUO4dOkSvr6+fPHFF5w/f54zZ85gY2PDhAkTmDNnDgAfffQRQ4cOBaBXr174+PgQGxtLVFQUMpmMZs2aMWvWLGU4FQoFW7duJTIykoSEBGrWrImVlRXJycl8//336OnpvdQGKm+RkZFs2bKF+Ph4nJ2dVXpRTElJoWvXrkBRb/fFQR43bhxZWVmMGDGCtWvXEhsbyxdffEHPnj159OgRq1at4vjx4+Tl5eHk5ETfvn3p37+/8rMrFAq2b9/O/v37efDgAaamprRr144xY8YoOxa/d+8eoaGhXLp0iczMTGrVqkXfvn0ZOHAgixYtUn6nERERyn6JHz58SFBQEDExMeTn5+Pi4sKECROU3/uBAwdYs2YNCxcu5JtvvuH27dvY2dnh4+ODl5fXq9ngbziNAnzt2jUWLlyIq6sro0eP5vbt28puJocNG8ajR484evQo69evByjRWXRQUBCDBg1i6NChyOVyqlatyqxZswgICCixruXLlzNgwACCgoL4+++/CQgIYP78+axevRqA7777jnXr1jF48GBatGjBjh07uHDhAl999dVrF96wsDBCQkJo3bo1H374IcnJyWzcuFE53tzcnMDAQBYuXFhi3tjYWMLDw/nss8/Iycmhffv2ZGVlMWbMGBQKBSNHjsTS0pJr166xbNkyfv/9d7766isA5syZQ3R0NJ6engwePJj09HROnz6NQqEA4Pr16/j6+mJmZsaQIUOwsbHhxo0b3LlzBx0dHQYMGICBgQHbt29Xlic+Pp6RI0diaGjI1KlTMTY2Zvv27UyaNIl169bRokULoKhuY8GCBUyePJkqVaqwZcsWlixZQv369WnWrJk2N/d/gkYBjo2NBaBv374lehJwcnLCzs4OKOohUJ0OHTowbtw4lWFt27ZVO22bNm2YOXMmAA0bNuTKlSvs2LEDmUyGoaEhW7ZsoW3btvj7+wPQunVrunXrxsmTJ+nRo4cmH08rHj58SFhYGB07dmTp0qXK09/8/Hy+++47oOg6s2PHjixbtqzE/I8fP2bx4sU4Ozsrh4WEhJCens6ePXuU18w9evTAwsKCb7/9lsmTJ/Pnn38SHR2Nj48P06ZNU847bNgw5b8XL16Mjo4OGzduxN7eHoDevXsrx9erV69EJ3Hr16/n0aNHbNmyhXr16gHQsWNH3n//fUJDQ1m7dq1y2rlz5yp7Qpw5cybR0dGcOnVKBLgcaBTgdu3aYWdnR2BgIDKZjG7dumFoaFjq+Z8VVnWe7ku2+GiemJiIlZUVmZmZytNAKDqK2draqu09viIdO3YMhULBqFGjVK5dS9v9adWqVVXCC3D8+HHS09Pp0qWLyvDiI2tGRgYnT54EirokVScpKYnr16/Tp08fZXhL48KFC9SpU0cZXoBKlSrRsmVLLly4oNJp+ZMVk1ZWVpiamr6Szt//CzQKsIWFBeHh4QQFBbFgwQLWrVvH559/Trt27Uo1v6mp5l2XFteC5ufnY2Zmhq2tLZcvX1ZW6iQkJJCQkICHh4fG69CGuLii94adnJw0ml9drXRycjL169dn/vz5auepXr06ycnJ6OrqKs+K1C0DKHNPjunp6SV2KFAUUJlMRm5u7jPnNTAwID9fND9UHjS+jVSlShUCAgLYuXMn5ubm+Pv7k5iYqDLNk3thbfH19eXmzZtMnDiRkJAQJkyYgKOjo0qH2a+D4qNQWlpauS3T0tKS5ORkatSoQc2aNUv8p6enh4WFBQqFgvR09U3+FFeiFQe5tKysrNQuMyUlBSMjI3E78BXROMDFt4pq1KiBj48PMpmM27dvA0U9zAMlAq0NPXv2pGvXrshkMmJjY/H29mbLli1YWVlpfd1lUXy9d+DAgXJbZvv27UlKSiIqKkpleE5OjvLfxZcru3btUpmm+DTb0dERZ2dnfvzxRx49eqQyTUGB+naYoOgOw61bt5RnFlAU3piYGFq1avVKb3H9l2l0Cn3//n3Gjx9Pv379cHR0ZNu2bRgaGip7lW/dujXfffcd8+bNo0ePHqSlpT3zGuxlLViwgLS0NLy8vNDR0UFPT4/79+8rb3W8Ljp27Ej9+vUJDw8nMTGR1q1bKyugNDVu3DjOnj3LvHnzuHHjBvXq1ePBgwfs3r2b8PBwqlevjqenJ3v27CE0NJSHDx/i6upKVlYWe/fuZdq0abRv357p06czbdo0hgwZwsCBA7GxseHq1avcu3dPeSfhaaNGjeLYsWNMnjyZ4cOHo6ury6ZNmygsLCzzQzyC5jQKcEFBAQ0aNGDHjh3k5eVRu3ZtVqxYoawEad26NVOnTmXz5s0sWbIER0dHvL29y7XgxVxdXQkKCmL27Nkqw1u1asXq1atLXUmkbfr6+qxatYoVK1Zw+vRpTp48SaNGjWjatCnHjh3TaJm2trZs2LCB4OBgDh48yOPHj3F0dKRPnz7KU2M9PT2Cg4MJDQ3lyJEjHD16lMqVK9OkSRPl99W+fXvWrVtHSEgIYWFh6Ovr4+TkxPvvv49CoUBXt+SJWvXq1Vm/fj2rVq1i2bJlFBQU0KhRI+bMmfPa7TzfZDqFT1yo/noqndN7knm3v51kGrV7+gcml8vZsmULq1atUnnoQFsOhMbx4EYOXv7VRaN2QrnLe6wgbNZdrKsY4fNp9RLjX4/D00sIDg7m5MmTeHh44ODgQHp6OocPH8bCwqLEAySC8KaRfIBdXV158OAB+/fvJysrCxsbG9q0acPw4cNVHlMUhDeR5APcoUMHOnToUNHFEIQKIV7oFwQJEwEWBAkTARYECRMBFgQJEwEWBAkTARYECRMBFgQJEwEWBAkTARYECVN5EisjpaiVhPOHUjh/KKVCCiQ1+bKid0H2BP+Njq54B1bQjpxH6lswUfsopZ5ou7vUCgtBkQf6RiK8gpY8u3Ui1QBb2hb92fTdSri00bzdqv+So5vSiL0lo7OPFbaOYs8nlC9ZbiFbAxIxtVD/2oK4BhYECRMBFgQJEwEWBAkTARYECRMBFgQJEwEWBAkTARYECRMBFgQJEwEWBAkr1wBfuXIFDw8Pzpw5U6b50tPTuXv3bnkW5bV17do1Jk2aRPfu3Rk7duxz+x8qi6ioKDw8PJT9U71JpkyZotK38euyrKfJZDJ+//13rSz7WSq8WdmcnBwGDhyIj48PtWvXrujiaFVaWhqffvopderU4fPPP8fIyAg9Pb2KLtZrz8zMTG33LhW9rKd9/PHHGBoa8s0332hl+epUeIAVCsV/pq/YK1eukJ2djZ+fn0qn5MLzLVq06LVc1tNkMlmZOrovDy8V4F9//ZWQkBDu3LmDlZUVLi4uKuPv3LnDxo0buXLlCrm5uVStWpU+ffrQr18/AFJTU+nfvz8AGzduZOPGjVSqVImDBw8ql3H27FkiIiK4d+8eVlZWNGrUiJEjR6rtXPp1NnPmTH755RcARowYgYGBAdHR0crxpfmcDx48IDw8XLkjqFGjBu+//z59+/ZVTvPHH38QFBTErVu3cHBwYNSoUbzzzjvK8adPn2bXrl38+eefANStW5cRI0bg6upa6s8SHx/P4MGDCQwMZM+ePVy6dAkTExPeeecdJk6cqPwRl3ZdFy5cYNu2bdy8eZOCggKaNGmCl5cXderUUf4+2rZtqwzf4sWLyc/Pp379+mzfvp1Hjx5RvXp1RowYwd27d/nhhx949OgR9evXZ9q0adSoUUPlt/bkskqz7RcvXkxeXh6urq5s2bKF1NRUnJ2dmTx5Mk2bNgVg2LBh/PXXXwDKzuXDwsKUPXb+8ssvbNiwgTt37mBoaEirVq3w9fWlatWqpd7u6ujNnTt3bvEfCQ9yefhHDk71jKhc7flv1vzvf/9j5syZGBgY4O3tTbNmzTh16hRZWVl06tQJZ2dn7t69y08//UTXrl1p164dqamp7Nu3j7p16+Ls7IyBgQGNGzfm6NGjdO/enalTp9K1a1dlb/IHDx5k8eLFtG3blg8++IB69epx8eJFtm3bRocOHbC2tn6pD18e7l7NJTO1gHquJpiaP/t02NHREV1dXW7evMlHH31Ejx49qF69qLOq0nzOP//8k8mTJ5OWlsaAAQPw8PBAV1eX9PR02rVrx+3btzl79iy//fYbnTt3plOnTty8eZO9e/fy9ttvK7fVjz/+SGZmJu+99x7Nmzfn2rVrHDp0iK5du1KpUqVSfeasrCwiIyM5e/Ys3bt3Z8SIEVhaWrJ161aMjY2VP+rSrGvfvn0sWLAAa2trBg4cSJs2bUhKSsLOzg4XFxfq1avH5cuXqVy5Mu+99x4AZ86c4ccff0RXV5ePP/4YV1dXjh8/zuHDh9HR0WHatGm4ubkRFRXFuXPn6NOnDwYGBmqXVZptf+bMGY4fP05eXh4TJkygc+fOXLhwgYMHDyqX3bhxY/73v/9RpUoV5s6dS/fu3alVqxb6+vqcO3eO2bNnY29vz6hRo2jYsCHR0dFERUXRrVs3jIye3SleQT5cO52NiZk+TdV0OKjREVihUBAYGIiNjQ0hISHKL6N69erMmDFDOZ2rqyvr169Xdvb8wQcfMGjQII4dO4a7uzv6+vrK3gPt7e1p0qSJct5Hjx6xevVqRo8ezeDBg5XDu3btysCBA9m9ezf+/v6aFL9CNGrUiJs3bwLQsmVL5d69tJ9zxYoV6OjosG7dOipXrgxA9+7dS6znyy+/VB7hXF1dGTRoED/99JOyfmH06NEqnW+3a9eOUaNGKX/oZTF48GDlUe2tt97i6NGjnD17VtkX9IvWlZGRwdq1a3FxcSE4OFhZH/BkOdzd3Vm1alWJdRsbG7NgwQJl97E3btxg27ZtfPbZZ8oDQHH/xvHx8VStWrXEssryGzM0NGTRokXK9Q0bNoy5c+dy7do12rRpw1tvvYWxsTGVKlVS+R0DrF27Fmtra5YvX648O6lduzbTpk1j7969DBs2rEzb/UkaBfjGjRv8888/+Pr6quy11fXFe/XqVb7//nvu3LlDYWEhOTk5xMfHv3Adv/zyC7m5uWzYsIENGzaojMvPzycjI0OTor92SvM5U1JS+PPPP3n//feV4X0WKysr5b/t7e2xtLQkISFBOaywsJCoqCgOHDjA33//jZmZGUCpvpOnPX3kcHR05NatW6VeV0xMDHl5efTr16/MlXl6enoqv7fisjx5DVoc5PT0dLWnqmX5jT29PkdHRwCSk5OfW874+Hj+/vtv+vXrp1K25s2bY2Jiwm+//fbCz/o8GgW4+At4Ufed+/bt45tvvuHtt9/mk08+wczMjMWLFyOXy1+4jtTUVAD8/PzU9vFb/GOQutJ8zuIfiYODQ5mXr6urq3KrasGCBZw6dQovLy8mTJiAXC7H39+/VN/Ji+jr66tUSL5oXSkpRc02afK5SqP46P9EF9gqXuY3VhzmF1XAFu8EbGxsSoyztLQkMzPzufO/iEYBLt7bpaenP3OagoICwsLCaNGiBV999ZVyY1pYWPD48eMS0z+9kc3NzYGiDrulVmFVFqX5nHl5ecC/P3hN/fnnnxw/fpwRI0YwfPhwgHK7D63Juoo/+8t+Lk1p4zf29O+4uIvbp88YCwsLSUtLe+n1anRDrEGDBujq6nLkyJFn7t3kcjnZ2dm4uLgow6tQKMjMzFSZx8jICF1dXZKSklTmb9WqFfr6+kRGRpbYy+XmPqeRIIkpzeesWrUqTk5OnDhxosQeuywBTEtLA4q+v2LFO+FnfY+aKs26WrVqha6uLgcOHCixfm3tWJ5U3r8xExOTEr9jBwcHHBwcOH/+vMpnPHv2LHl5eTRv3lyzwv8/jY7Atra29O7dm7179zJ16lTee+899PT0OHTokHIaY2NjGjVqxJEjR6hVqxampqbs2bOH2NhYDAwMyMnJwdTUVFmD99NPP+Hs7IyFhQXOzs40btyYESNGsH79euWTSwCnTp2iSpUqfPLJJy/1wV8XdnZ2pfqcU6ZMYdasWYwZM4a+fftibW3N77//zoMHD1i5cmWp1tWgQQNMTU2JiIggPz+frKwsIiIi0NfXL/cnuEqzLnt7e4YMGcLmzZuZOnUqnTp1wsDAgNOnT1OnTh3GjRtXrmV6Wmm3fWm1bNmSiIgIgoKCaNCgAXp6enTu3JmxY8cyf/58Pv30Uzw9PUlNTWXjxo04ODjQu3fvl/oMGt8HnjJlChYWFhw+fJi1a9dSrVo1WrZsyR9//KGcZs6cOSxdupTAwECsrKzo0qULw4cPZ9GiRezdu5chQ4YA8Omnn7J48WLCw8OxtLTkww8/pHHjxvj4+GBvb8+2bdtYs2YNxsbGNGzYkI4dO77Uh37dlOZztmnThuXLlxMeHs7GjRvR19fH0dGRLl26oFAoSrUeS0tLFixYQFBQEHPnzsXJyYnhw4eTm5vLt99+y++//06jRo3K5TOVdl2jR4/GwcGB3bt3s3btWszMzKhVqxaNGzcul3K8SHn+xoYMGUJ8fDzR0dGcPHmSdu3aKW/p6evrs3nzZr7++muMjY1xc3Nj/Pjxpb519yw6hU8c1389lc7pPcm49TQXrVKWUnGrlD3H24hWKYVyV9wqpXUVI3w+rV5ifIU/Sim8Pn7++WcWLFjw3Gk6dOjAZ5999opKJLyICLCg1KJFC9avX//caYyNjV9RaYTSEAEWlIyMjLR2T1bQDvFCvyBImAiwIEiYCLAgSJgIsCBImAiwIEiYCLAgSJgIsCBImAiwIEiYyoMcGSlFr1TF3pIRe0tWIQWSmpS4om32y+FMDIzF/lDQjtxs9Q0HqH0S6+8/87RamDdRwoOXb9FCEJ5F8YzXo1UCXNze9bv97ajiLJ55LY0LUSk8uJGD17SSb4oIQnnYseIvDE101I5TCbC59b9/2js/u6lLQQ1dsHcS20woX3mPi9711jdQ3+ifuGgTBAkTARYECRMBFgQJEwEWBAkTARYECRMBFgQJEwEWBAkTARYECdNKgAsLC4mJiSnTPElJSXh6ehIaGqqNIgmv0Lhx45SN9pcHV1dXli1bVm7Le5NoJcCrVq1i/PjxZZpHT08Pc3Nz0WypIJSBVpqVlclK/yZTYWEhOjo62NjYEBkZWW7rT01NfSOaSC3ePoKgjsYB3rNnD5s2bSI+Pp5q1arRvXt3Ro0aRUBAALt37wZQ9hTv5+fHkCFDuHTpEr6+vnzxxRecP3+eM2fOYGNjw4QJE5gzZw4AH330EUOHDgWgV69e+Pj4EBsbS1RUFDKZjGbNmjFr1ixlOBUKBVu3biUyMpKEhARq1qyJlZUVycnJfP/992XuOFpbFAoFmzdv5uDBgzx8+BBTU1NatGjBtGnTcHJyAnjm9tmzZw+6urrcuXOH4OBgLl26hKGhIXXq1GHkyJG0a9cOKOr9LzQ0lBMnTpCSkoKtrS0dO3ZkypQpmJiYlLqsV65cISgoiFu3bmFhYUHbtm2ZPn06pqam3Lx5k/Xr1xMTE8Pjx4+pVq0aAwYMwNvb+7nLbN++Pd27d+fzzz9XDjt27BiffPIJISEhtGrVCoB//vmHFStW8PPPP2NoaIi7u3tZN/V/ikYBvnbtGgsXLsTV1ZXRo0dz+/ZtZaffw4YN49GjRxw9elTZyv/THYEHBQUxaNAghg4dilwup2rVqsyaNYuAgIAS61q+fDkDBgwgKCiIv//+m4CAAObPn8/q1asB+O6771i3bh2DBw+mRYsW7NixgwsXLvDVV1+9NuGFoo62z507R6NGjejduzfp6ens3LmTTz75hE2bNqGr++/VzNPbR1dXlz///JOxY8fStGlT/Pz80NXV5fjx40yZMoUvvviC3r17U1hYyM8//0yXLl2oUqUKt2/fZufOnejp6eHv71+qcsrlcj7++GMsLCyYPn06jx494sSJE5iaFvWVlZqaysOHD/Hy8sLc3JyzZ88SGBiIg4PDS3c6l5KSwqhRo8jOzmbw4ME4Ojryww8/vNQy33QaBTg2NhaAvn370q1bN5VxTk5O2NnZATyz79MOHTqU6Dqybdu2aqdt06YNM2fOBKBhw4ZcuXKFHTt2IJPJMDQ0ZMuWLbRt21b5A23dujXdunXj5MmT9OjRQ5OPpzVr165VOR22t7dnyZIl3L9/n9q1ayuHq9s+ixYtonnz5ipdifbp04exY8cSHh5O7969sba2JjIyUmUdWVlZREVFlTrAGRkZZGVl0aVLF/r27QsU7ZSLtW3blq1btyrXMWjQIHr06EFUVNRLBzgoKIiUlBTCw8Np2LAhAD169Hjmb0PQMMDt2rXDzs6OwMBAZDIZ3bp1w9DQsNTzl+ULMTJSfUWv+GiemJiIlZUVmZmZ1KhRQzne3NwcW1vbEj2ivw5ycnLYtGkTx48fJz4+HjMzMwDi4+NVAvz09klOTubatWvo6enRvn17lXH5+fnK5QDExcURFhbGlStXyMjIwMDAgLS0NHJzc0tVQVi5cmXat2/P/v37sba2ZvDgwVhbW6tMc/nyZcLDw7l16xYKhYKcnBz++eefMm+PJxUUFHD8+HHatWunDC+Avr7o/ed5NNo6FhYWhIeHExQUxIIFC1i3bh2ff/658lrsRYpPxzRhYFDUhWfxD9fW1pbLly8rK3sSEhJISEjAw8ND43VoQ1ZWFsOGDSMzM5OxY8fSqFEjLl26xMqVK0tU+j29fZKTkwH44IMP1F5rFm+T69ev4+vri5OTE5MmTaJatWps3ryZ6Oho5HJ5qWv4AwMDCQsLY9u2bXz//ff4+voq6yV27drF4sWL8fDw4IsvvsDc3Jy5c+cil79ciySpqak8fvyY6tVFwwhlofHurUqVKgQEBODr68vMmTPx9/dn79692NvbK6d5FTWovr6+BAQEMHHiRJo3b86RI0dwdHRk5MiRWl1vWe3Zs4eHDx8SGhpKy5YtAcjOzi7VvBYWFgA8evSImjVrPnO60NBQDAwMCAkJUc5TXEFWFoaGhkyaNImhQ4eyaNEigoKCqFatGu+++y6rVq3C1dWVJUuWKL9bS0tLHj9+XOb1PKl455KamvpSy/mv0fg+cPFRo0aNGvj4+CCTybh9+zaAssYzMTGxHIr4fD179qRr167IZDJiY2Px9vZmy5YtWFlZaX3dZVH8w2zUqJFyWFpaGlBUQ/08jo6O1KxZkxMnTijrH4rl5OSorMPZ2VkZXiiqmYainWlpFX+3FhYWTJkyBYDff/8dmUxGVlYWjRo1UoZXoVCQmZmp8hkMDQ3JyMhQWWflypVL/B6e/Czm5ubUrl2bc+fOiRCXgUYBvn//Pr179yY0NJSDBw+ybds2DA0NqVu3LlBUkQQwb948fvjhB7Zs2VJ+JX7KggULSEtLw8vLC3d3d2xtbbl//77W1qep4uvar7/+mnPnzhEREcHXX38NwK1bt144/2effUZhYSEjR44kPDyc/fv3M2/ePIYOHUpBQYFyHdevX2fTpk2cO3eOr7/+mgMHDgBw8+bNUpVToVDg5eXF119/zaFDh5SVZo0aNcLExISmTZty8OBBfvjhB06ePMnkyZN5+PAhcXFxyp1JgwYNSEhIYPbs2cTFxQHg7u7OhQsX2L17OYm0vgAAIABJREFUN3/88QcREREl+iL29fVVXmpERETwww8/MGvWrFKV+79Ko1PogoICGjRowI4dO8jLy6N27dqsWLFCefrcunVrpk6dyubNm1myZAmOjo4vvE+oKVdXV4KCgpg9e7bK8FatWrF69erXphLEzc0Nf39/Nm7cSHR0NI0aNSI4OJjdu3ezdetWfH19nzt/q1atCAsLY82aNaxfvx4dHR1q166Nl5eX8mg4ZswYUlNTWb9+vbLCa8uWLSxcuJBNmzYp78s/T05ODq1bt+bUqVPs27cPBwcH/P396dSpE1C0wyz+z9ramh49ejBu3Di+/PJLduzYwYgRIxg1ahSpqamcPn2ae/fu4ejoyKRJk8jNzWXt2rXI5XLc3d2ZOHEigYGBynV37tyZRYsWERYWxtq1a7Gzs6NXr14vsdXffDqFT5zn/HoqndN7knm3vx1N3C0rslylplAoVO6hyuVytmzZwqpVq4iIiFCp0dSGA6FxRa1S+lcXjdoJ5S7vsYKwWXexrmKEz6clK/hej8PTSwgODubkyZN4eHjg4OBAeno6hw8fxsLCosQDJP91Y8aMUdZTPMuGDRuoVavWKyqR8LIkH2BXV1cePHjA/v37ycrKwsbGhjZt2jB8+HAsLaVxFvGqLFq06IW3e568iyC8/iQf4A4dOtChQ4eKLoYkFD8hJ7w5xAv9giBhIsCCIGEiwIIgYSLAgiBhIsCCIGEiwIIgYSLAgiBhIsCCIGEqD3I8zipQ/v/hnzlqZxBUPc4ueo0u/n4uudkFFVwa4U2lKFD/OqhKgGV5RRNdPCLexyyrU5FJFV0E4Q32rIOD2kcpm75bSauFeZMk/SXnn7sysc0Erbl6MhvdZzRsoxJgS9uiP03MdXFpo3m7Vf8lRzcVtarh3MAIW0eDCi6N8KaR5RZy9WQ2xubqX1sQlViCIGEiwIIgYSLAgiBhIsCCIGEiwIIgYSLAgiBhIsCCIGEiwIIgYVoJcGFhIZcvXy7TPCkpKfTr14/w8HBtFOmNosn2fVU+/vhjxowZo5Vly2Qyfv/9d60sW6q0EuCwsDD8/PzKNI+enh5mZmal7kHvv0yT7fsm+PjjjwkLC6voYrxWtNKs7NPdZT5PcQ+GVlZWRERElMv65XI5aWlpb2wbx2XZvm+S4k7dhX9pHOCDBw+yfft2EhMTqVq1Kl26dMHHx4fly5crO9Qq7qN30qRJDBgwgCtXrjDt/9q797ie7///47fOOrw7Um8lmnNWiBQffObYUKYPItrKYZQMmzDDNiM+FrIcojLHDk5hDhPDZhVGTs1mjnOcSucivTv9/uj3fn+8V0hqefd9Xi8Xl4tex+fr+X7f36/D+/16PT75hFmzZnHmzBlOnz6NiYkJ48ePJzAwEAA/Pz9GjhwJgKenJyNGjOCvv/7i2LFjyGQy7O3tmT59uiKcZWVl7Nq1i3379vHo0SOaNm2KkZERGRkZREREoKGh8VodVFNKS0vZsWMHcXFxPHjwQFEozN/fH0tLSwDi4uJYv349X3zxBWvXruXmzZs0bNiQESNG4O7uDvDC/gXIy8sjPDychIQECgsLsbS0xM3NjcGDByv6oqysjN27d/P9999z//59dHV16dKlC97e3or6vH/++Sfh4eFcvHgRbW1tbGxseP/99xWF6wAKCwv59ttv+eGHHygsLKRt27akp6dXOIpKTExky5Yt/PnnnxgbG/P2228zduxYmjZtCsCSJUsoLCzE0dGRqKgoRZXFjz76iPbt2wPg7e3NvXv3lLY7IiJCUVCvKu2tjzTmz58/X/5H6p2n3P3jCU1a69DQ6vk/zL9y5Qrz5s2jRYsWeHt7o6+vT3Z2Nt26daNZs2ZkZmZy+/ZtVq5cycCBA2nfvj16enqkpKRw+PBhfv31V7p168b48ePp3r07LVu2pGnTppw6dQpHR0fs7OyA8mLSP/30E23atMHPzw97e3u+++47rl27houLCwBbt24lIiKC/v374+Hhwa1btzh//jyTJk2iVatWtdt7wK3kp+RlltDaURc9yfM/LNTU1NiwYQM2Njb07duXZs2a8dNPP3H+/Hnc3NxQU1Pjxo0b/PDDD1y+fBkfHx+GDx9Oamoq27Ztw9HREXNz8xf27+PHj/noo49ITU1l2LBh9OrVCzU1NSIjI3n48CE9e/YEyguUbd++nY4dOzJs2DBatWrF1atX6dq1K8bGxly/fp0pU6bQsGFDPDw86NKlCw8fPmTjxo1YWFjQqlUrysrKmD17NseOHaN3794MHjyYJ0+ecP78eUxNTXnvvfeA8g/6JUuW0LVrV/7zn//QunVrzpw5w7Zt2+jevTsmJiYkJCTw448/UlhYyKRJk+jbty+//PILBw4cYMiQIWhpaWFnZ8f58+exsLBg/vz5DBw4kLfeegtNTc0qtVdVlRTD5fjH6Bpo0r6SemXV2gPLS0a6urrSt29fpXGWlpaYmZkBYG9vX+n8zs7O+Pj4KA17XuW8Tp06MXXqVADatGlDcnIye/fuVRxO7dy5E0dHRz766CMAHBwcGD58OAkJCYqQvymWL1+uVPC8YcOGrFy5krt379KsWTPF8NmzZyvqCE+bNo0ff/yRkydPYmdn98L+jYqKIjc3l8jISPT0yu8mc3FxwdDQkK1btzJx4kSuX7/O8ePH8fDwwN/fXzHvs9UjV6xYQfv27VmyZIli2KBBg5g2bRrR0dEMHDiQuLg4zp07h7+/Px4eHgAMHDiQu3fv8vTpU6C8IPmaNWsYP348o0aNUizr3XffxcPDg927dxMQEACU1xT+73//q6gm6e3tzfz587l8+TJOTk60atWKBg0aoK+vX2G7q9Le+qpaAXZycsLMzIxVq1Yhk8no168fWlpVv5WuKmUu5XR0lCv+yQ8309PTMTIyIj8/X3EoBmBgYICpqSl5eXlVXsc/paCggO3btxMfH09qaioGBgYApKSkKAX42W02MjJCT0+P9PT0ly4/Pj6enJwcxeG2nLwAZU5ODomJiQCK0P1dRkYGV65cQUNDo8IHYElJCfr65fc9Hz9+HD09PYYOHao0zbPlXM+ePcvTp0/ZuHEjGzduVJquuLiYnJwcxd8aGhpK8z77Or9IVdtbX1UrwBKJhNDQUMLCwli2bBkbN25k5syZVT7fkO8dqkP+IhcXF6Ovr4+pqSnJycmKi2FpaWmkpaXRo0ePaq+jNjx+/Bg/Pz9FAWtbW1suXrxIWFjYSwuOaWpqUlxc/NJ1ZGZm0rJlywq1kuWsrKzIyMhAXV2dhg0bPncZAG5ubhXCCSg+qFNSUpBKpS+8xiBf1vTp0yst8yr/AKvMs6/zi1S1vfVVtS9imZub8/nnnzNmzBi+/PJL5s6dS3R0tNIbQx6q2jR27FiWL19OQEAA9vb2HD9+HKlUipeXV62u91UdOHCA+/fv880339ChQwegPNSv4+/9K5FIyMjIwNra+rn9LpFIKC0tJScnB2Nj40rHQ/nFsGePbP5OR0eHrKysF7ZPvqyioqIXLutVPFPOWmkdL2tvfVXt74Hlew1ra2s8PDwoKiri1q1bAOjq6gLw6FHtPyfKxcWFvn37UlRUREpKCsOGDSM8PPyNKy0qf7O3bdtWMSw7Oxuo+KZ8mef1r7OzMxkZGRw7dkxpeEFBgeL/8qOkffv2KU1TWlr+cD6pVErTpk2Jj4/n4cOHz12OnZ0dmZmZnD179rnt7Ny5M5qamsTGxlbYk8rPk1+Frq5uhW2uanvrq2oF+O7du4waNYrNmzdz+PBhdu/ejba2Ns2bNwfKLzwBLF26lCNHjrBz586aa/HfLFu2jOzsbNzd3XF2dsbExIS7d+/W2vqqS37eHxISorgKGxISAvDSott/97z+9fHxwdzcnKCgIEJDQzl8+DDr16/H09OTBw8eAOVfwXTo0IFNmzaxaNEivv/+e3bu3Mm4ceM4c+YMAJ988glQ/vVUdHQ0hw4dIigoCF9fX0pKyh+uNnLkSPT09Pj8888JDw/n6NGjhIWF8fvvvyva2ahRI8aMGcOdO3eYPHkye/fuZe/evUyfPl2x7a+63Q8fPiQkJIQjR44oPqiq0t76qlqH0CUlJbRu3Zo9e/ZQWFiIjY0NixYtUhw+Ozg44Ovry/bt27ly5QpSqbTS85Oa4ODgwLp16zh37pzS8I4dO7J06VKlCyN1SX6lPCYmhuPHj2Nra0tQUBD79+8nNjaWsWPHVnlZz+tfU1NTQkNDCQ8PJy4ujqdPnyKVShk0aBCGhoZA+cWir7/+ms2bN3Ps2DFOnDiBqakpb7/9tuL169ixIyEhIaxfv54tW7agpqaGjY0N7u7uqKuXf+Y3btyYb775hrVr1xIbG4u+vj5OTk4VDmO9vLwwNzdn27ZthIaG0qBBA9q1a0evXr1euQ9Hjx5NSkoKR44c4cSJE3Tr1o2+fftWqb31lVrZM8dvl37OJn5POs5uEpV5qN3fzwOLi4vZsWMHERERrF27VumQtTYc3ZrFg+sy3PxMxUPthBone1pGzOI0TCx08JptXWH8m7F7eg1hYWEkJibSs2dPLCwsyMnJ4YcffkAikSi+ihCE+krlA+zg4MC9e/c4dOgQjx8/xsTEhE6dOjFq1CjFYaMg1FcqH2BnZ2ecnZ3ruhmCUCfq9xm+INRzIsCCoMJEgAVBhYkAC4IKEwEWBBUmAiwIKkwEWBBUmAiwIKgwEWBBUGFKv8TKySi/Z/PsoXzOHsqvkwapmrLS8ntBvo/IBGr34QXC/11Pcit/MkmlP6U0MRd31VRVQX4JT/JKMDEXzysWakfGw+c/B1wpwEZm5X/a/csI+0oeYSlUtD/8L+5ceULf0RaYN9F5+QyC8AoKC0qJmHMLPcPKb1sQ58CCoMJEgAVBhYkAC4IKEwEWBBUmAiwIKkwEWBBUmAiwIKgwEWBBUGEiwIKgwmolwGVlZSQlJb3SPI8ePcLFxYXw8PDaaFKd++uvv3B0dCQ6OrqumwJAaGgoAwYMUFT3g/L6Ta9a5kXO0dGR5cuX11TzhCqqlQCvXr0aPz+/V5pHQ0MDiURCgwYNaqNJwt80aNAAAwMDRemRJ0+eMHDgQI4fP17HLRNeRa08F1ome/6Pr/9OXhrF1NSU2NjYGlt/ZmYmUqm0RpZXH40bN45x48Yp/i4pKalSDWLhzVLtAO/Zs4etW7eSkpKClZUVAwcOZNy4cSxevJjdu3cD/6vIN336dEaPHs25c+fw9fXliy++4NSpUyQkJGBqasqkSZOYN28eANOmTeODDz4AYPDgwXh5efHgwQPi4uKQyWR06NCBOXPmKMJZWlpKTEwMsbGxpKamYmNjg7GxMenp6URHR7+wAHVdyMjI4LPPPiMxMREDAwOGDBnChAkTFHvCsrIyYmJi2LVrFw8fPsTExIR+/frh7++vODp5Xt9DeZ8ZGxvTqFEjzp8/D5RX9Zs6dSo2NjYADBs2jDt37qCrq0t8fDwZGRm8++67AISHhxMeHo6BgQE//fQTAD/++CPR0dH8/vvvqKmp0bp1a3x9fcUD9d8A1TqEvnz5MosWLcLc3Jy5c+fSo0cPUlJSAPD29qZfv34ArF+/nvXr19O/f3+l+UNCQnjrrbcICwtjwYIFdOrUiTlz5lS6ruDgYEpKSggJCWHu3LkkJyezcOFCxfgNGzawYsUKunfvzsKFC5FIJPzyyy94e3u/ceEFiIyMRE9Pj1mzZmFnZ0dERITSkceqVasIDg6mffv2LFiwADc3N7Zv387MmTOBF/e93L179+jWrRuhoaFMnz6dP/74g/Hjxytq63766aeKD1cAIyMjVq5cCcB7773H+vXrWbVqlWL877//jq6uLuPHj+fDDz8kOzubGTNmkJaWVmv9JFRNtfbA8lqz7u7uDBgwQGlckyZNaNSoEVBeprIy3bt3Z+LEiUrDunbtWum0Tk5OzJo1C4B27dpx8eJFduzYgUwmQ1tbm6ioKLp27UpAQABQXsB6wIABnDhxAldX1+psXq3y9vZm8uTJAAwaNIjhw4dz6NAhPDw8SElJITIykj59+jB//nwA+vfvj6amJuHh4Vy4cEERmsr6Xq5z5854eHgA5X321ltvMXbsWLZt28aUKVNwcnLi+++/57fffgNAU1MTe3t7oLxg9t9fN39/f6UKkD179mTkyJGcOHFCsR6hblRrD9ytWzcaNWrEsmXL2Ldv3yud88Lzw1oZHR3le2ytrKwASEtLIz8/n7y8PJo1a6YYL5FIMDMzIycn55Xa9E8xMTFR/F9dXZ1WrVop9qBnz56ltLS0QjB79uwJwIULF6rV9/b29hgbG5OcnFytNpeVlbFv3z7GjBlDnz59mD59OgAPHz6s1vKEmlOtABsaGrJp0yacnJwIDAzE3d2dU6dOVXl+Pb3q1x7W0ip/WkhxcTEGBgaYmZlx4cIF5GWOU1NTSU1NrfW6wDVFQ0NDcfEoOzsbQFFoW87Y2BiAvLy8ave9kZERubm51WrjvHnzWLRoEZ07dyY4OJi5c+cCUFRUVK3lCTWn2l8jWVhYsHjxYnbu3IlEIiEgIKDCOdEztcNrja+vL9euXcPf35+wsDAmTZqEpaXlK1W8f1PIgyoPslxGRobS+Kr0/bNKS0tJS0vDyOjlT1n5+2v2+++/c+TIEcaPH8+UKVPo2LEjnTt3fqXtEmpPtQMsP3Rr1qwZXl5eyGQyxY8AdHV1Af6Rixxubm68++67yGQyHjx4gKenJ1FRUYo3uyrp3Lkzampqiqu/cocPH1aMhxf3fWUOHTpEQUHBC68a6+jooK6uTmpqqtJw+Q897OzsFMOysrKA8g8GOS0trTf2tKU+q9ZFrNu3b+Pn58fQoUOxtLRk27ZtaGtr07JlS6D8QtKGDRtYsGABrq6uZGVl4eXlVaMNlwsMDCQrK4sRI0agpqaGhoYGt2/fpl27drWyvtpkaWnJ0KFD2b17N7q6unTq1IlLly6xbds2evfujZ2d3Uv7HiApKYmwsDAsLS25cuUKsbGxNG7cmBEjRjx33dra2nTo0IEjR45gY2ODkZERNjY22NnZoa+vz/r16ykuLiYvL4/169ejqanJ9evXFfPb2tpy5MgRGjVqhL+//xv5DUB9VK0Al5SUYGtry44dOygsLKR58+asWLECc3NzoDzAU6dOJTIykqCgICwtLfH09KzRhss5OjoqvmJ6VufOnVmzZg2amqpVw/zTTz/F3Nyc7777jtjYWExNTfH29sbX1xd4ed9D+SH22bNnuXr1Ktra2vTr14+pU6cikUheuO758+fz1VdfERYWhomJCePGjaNDhw4sW7aMpUuXMnv2bKytrZkwYQJPnz4lNDSU5ORk2rdvz/z581m6dCmxsbF8+OGHiqMwoXaplT1z0nPp52zi96TzzrBGKvNUytLSUsWPIKD8wkpUVBSrV69my5Yttb4nlj+VckSA9RvxVMrBgwfTunVr8bvkekL+VEoTCx28ZltXGK9au6dKrFq1ihMnTtC7d2+kUinZ2dkcOnQIQ0NDxVdOglBfqXyAHR0duXPnDvv27SM/Px9TU1OcnJzw8fGp0lVXQVBlKh/g7t27071797puxhtj//79dd0E4R8kbugXBBUmAiwIKkwEWBBUmAiwIKgwEWBBUGEiwIKgwkSABUGFiQALggpT+iFHTkb5jeVXz+Vx9VxenTRI1WSllt/adywmDS1ttZdMLQjVU5Bf+RNDK/0lVsrtp7XamPoo46/Cum6CUI+VlVY+XCnA2g3Kj6id3SRYtaz7O2tUwS8Hc3lwXYabn6mi/wShJu3+Jp0GepXfX60UYF39/70BJabihuxXJfpMqGmyp+V3+6prVn56JnYZgqDCRIAFQYWJAAuCChMBFgQVJgIsCCpMBFgQVJgIsCCoMBFgQVBhtRLgsrIyLly48ErzZGRkMHToUDZt2lQbTRKEeqlWAhwREaEoQVlVGhoaGBgYKKrQC4LwcrXyWNlXqRdcVlaGmpoaxsbGbNmypUbWX1RURFZWllK5EUGoj6od4AMHDrB9+3bS0tJo3Lgx/fv3x8vLi+DgYMWziXv37g3A5MmTGT58OBcvXuSTTz5h1qxZnDlzhtOnT2NiYsL48eMJDAwEwM/Pj5EjRwLg6enJiBEj+Ouvvzh27BgymQx7e3umT5+uCGdZWRm7du1i3759PHr0iKZNm2JkZERGRgYRERFvTJGt4uJiwsLCOH78OE+ePKFFixZ4enrSo0cPoLz2b3h4OAkJCRQWFmJpaYmbmxuDBw9GQ0OD0NBQYmNjWbVqlaJczIULF5gxYwbjxo1TFI87e/YsGzdu5ObNm2hra9O5c2d8fX1p3LhxnW27UHuqdQh95coVli9fTqNGjQgICKBr166KspSenp706tULgJUrV7Jy5UpFkOXWrVuHjY0NK1asYM6cOXTo0IGAgIBK17VmzRpKS0tZsmQJM2bM4PLlyyxdulQxfuvWrYSGhuLs7MzcuXMxMDAgKSkJT0/PNya8ALt27WLXrl306NGDadOmIZVKycsrv+f68ePHTJkyheTkZEaPHs3HH3+MnZ0dq1evJigoCIAPP/yQJk2asHTpUoqLi8nNzWXRokV07NiR0aNHA3Dy5Elmz56Nuro6M2bMYOzYsVy6dIkpU6ZUu7i38Gar1h74r7/+AsDV1ZW+ffsqjbO0tMTMzAwAe3v7Sud3dnbGx8dHaZijo2Ol03bq1ImpU6cC0KZNG5KTk9m7dy8ymQxtbW127tyJo6MjH330EQAODg4MHz6chIQEXFxcqrN5teLBgwcAeHt7Y2ZmxoABAxTjoqKiyM3NJTIyEj09PQBcXFwwNDRk69atTJw4ETMzMz777DMmT55MdHQ0V69epaSkhLlz56KmVn6nytq1azExMSE4OBhtbW0AmjdvzieffMLevXvx9vb+h7daqG3VCrCTkxNmZmasWrUKmUxGv3790NLSqvL8zwtrZXR0lO9LtrS0BCA9PR0jIyPy8/Np2rSpYryBgQGmpqaKvdubwsXFhbi4OGbPno2vr69SH8THx5OTk4O7u7vSPPLCkTk5OZiZmdG2bVtGjRqluFK/ZMkSTE1NAUhJSeH+/fsMHTpUEV6Ajh07oqury6+//lrLWyjUhWoFWCKREBoaSlhYGMuWLWPjxo3MnDmTLl26VGl++V6mOuT1fouLi9HX18fU1JTk5GTFxbC0tDTS0tIU55ZvCnt7e1asWMG6deuYOXMm7dq1Y968eTRu3JjMzExatmxZocax3LNVFocMGUJMTAw2NjZK/Z2TkwOgCPSzjIyM3rgPNKFmVPtrJHNzcz7//HM2bdqEgYEBc+fOJT09XWmaZ0oP15qxY8dy48YNAgIC2LhxIwEBAUilUsVFnTeJ/Lx2yZIl3L59WxFYiURCRkYG1tbWNG3atMK/Z8/lv/nmGxo0aMCtW7eIjo5WDJdXYpQHWa6srIysrCxRqbGeqnaAi4qKALC2tsbDw4OioiJu3boFoKjO/ujRoxpo4ou5uLjQt29fioqKSElJYdiwYYSHh79xb9ji4mLFB5qzszM9evTgzz//pLCwEGdnZzIyMjh27JjSPAUFBUp/79+/n5MnTzJr1izc3d3ZsGEDFy9eBEAqlSKVSjl16pTSB2diYiKFhYV07NixlrdQqAvVOoS+e/cu06dPZ/DgwUilUnbv3o22tjbNmzcHyi88RUZGsnTpUvr3709OTg4eHh412nC5ZcuWkZ2djbu7O2pqamhoaHD37l3atm1bK+urroMHD3Lw4EEGDBiAuro6p06donnz5ujo6ODj48Pp06cJCgri2rVrtGjRgnv37rF//35CQ0OxsrLi/v37hIaG8u9//5t33nmHf/3rX/z6668sWLCAiIgIzMzMmDBhAgsXLmT27Nm4uLiQmZnJ5s2bkUqlvPfee3XdBUItqFaAS0pKaN26NXv27KGwsBAbGxsWLVpEw4YNgfIrwb6+vmzfvp0rV64glUoZOnRojTZczsHBgXXr1nHu3Dml4R07dmTp0qWKc+a61rBhQ7S0tPj222/R0NDA3t4ef39/oPy8NTQ0lPDwcOLi4nj69ClSqZRBgwZhaGhISUkJixYtQktLi48//hgALS0t5s+fz8SJE1mwYAHBwcH06dMHTU1NIiMj+frrr2nQoAHOzs74+fmhr69fl5sv1BK1smeOty79nE38nnSc3SS0dar+haZ/kvzilVxxcTE7duwgIiKCtWvX1vqe+OjWLMVTKc0sq34lXhCqQva0jJjFaZhY6OA127rC+Ddj9/QawsLCSExMpGfPnlhYWJCTk8MPP/yARCJRfOUkCPWVygfYwcGBe/fucejQIR4/foyJiQmdOnVi1KhRGBoa1nXzBKFWqXyAnZ2dcXZ2rutmCEKdEDf0C4IKEwEWBBUmAiwIKkwEWBBUmAiwIKgwEWBBUGEiwIKgwkSABUGFKf2QIy+rGID87BJunC+odAZB2ePcUgDu/VFIVkpxHbdGqK9KikorHa4U4NL/P81vCU9qvUH1zaWfHtd1E4R6rLCgCgGW6z6kYa02pj65f+0Jd648EX0m1JrE79J53gNWlQJsZFb+p6amGvY93qwnWryp7l8rP1qxaqmLeROdl0wtCK+msKCUxO/S0dGv/LYFcRFLEFSYCLAgqDARYEFQYSLAgqDCRIAFQYWJAAuCChMBFgQVJgIsCCqsVgJcVlZGUlLSK83z6NEjXFxcCA8Pr40mCUK9VCsBXr16NX5+fq80j4aGBhKJhAYNGtRGkwShXqqVx8rKZLIqTyuvrGBqakpsbGyNrT8zMxOpVFojy6tNf68sIQivotoB3rNnD1u3biUlJQUrKysGDhzIuHHjWLx4Mbt37wb+V8h7+vTpjB49mnPnzuHr68sXX3zBqVOnSEhIwNTUlEmTJjFv3jwApk2bxgcffADA4MGD8fLy4sGDB8TFxSGTyejQoQNz5sxRhLNcb0NlAAAPYElEQVS0tJSYmBhiY2NJTU3FxsYGY2Nj0tPTiY6OVirNWdccHR0ZOXIk+vr67Nmzh5ycHPbu3Ut+fj7r168nKSmJgoICrKysGD58OJ6engAcO3aMTz/9tNJltmrVipiYGK5du/bCZQj1U7UCfPnyZRYtWoSjoyPjx4/nxo0bpKSkAODt7U1ubi5Hjx5l/fr1gHKBaoCQkBBGjhzJBx98QFFREY0bN2bOnDksXry4wrqCg4MZPnw4ISEh3L9/n8WLF7Nw4ULWrFkDwIYNG1i3bh2jRo3CwcGBHTt28Msvv/DVV1+9UeGVO3ToEF26dCE4OJjc3FwsLS05ffo0d+/eZcSIEUgkEhITE1m2bBlSqZRevXrRtm1bPvvsM6XlHD58mIsXLzJnzhwAMjMzX7gMoX6qVoAfPHgAgLu7OwMGDFAa16RJExo1agTw3Jq03bt3Z+LEiUrDunbtWum0Tk5OzJo1C4B27dpx8eJFduzYgUwmQ1tbm6ioKLp27UpAQAAAXbp0YcCAAZw4cQJXV9fqbF6tMjAwYNGiRUpVE7t27UpMTIziUHrkyJG4uroSFxdHr169sLKyYtiwYYrpb968yfLlyxkzZgz29vZVWoZQP1UrwN26daNRo0YsW7YMmUzGgAED0NbWrvL8zwtrZXR0lG/Rk+/N09LSMDY2Ji8vj2bNminGSyQSzMzMKlSqf1M4OjpWWvL0woULbNq0ievXr1NaWsqTJ094+PBhhelkMhnz5s2jWbNmTJgwoVrLEOqPal2FNjQ0ZNOmTTg5OREYGIi7uzunTp2q8vx6etUvXaqlVV7Cs7i4GAMDA8zMzLhw4YKiKn1qaiqpqalvXIFvucrq9O7atYuJEyeio6PDF198wfLly7GwsKCoqKjCtGvWrOH27dt89dVXir541WUI9Ue1v0aysLBg8eLF7Ny5E4lEQkBAAGlpaUrTPFN6uNb4+vpy7do1/P39CQsLY9KkSVhaWjJ27NhaX3dNKCkpYfXq1Tg6OhIUFES3bt2ws7PDyKjiAxWSkpKIjo5m4sSJtG7dulrLEOqXagdY/lVRs2bN8PLyQiaTcePGDQB0dXUBKgS6Nri5ufHuu+8ik8l48OABnp6eREVFYWxsXOvrrgkymYz8/HzefvttxflraWkpeXl5lJb+7zlIeXl5fPnll9jZ2eHj41OtZQj1T7XOgW/fvo2fnx9Dhw7F0tKSbdu2oa2tTcuWLYHyC0kbNmxgwYIFuLq6kpWVhZeXV402XC4wMJCsrCxGjBiBmpoaGhoa3L59m3bt2tXK+mqarq4u7du358CBA7Ro0QJ9fX22b9/O3bt30dbW5smTJ+jp6fHf//6X1NRU+vXrx549exTza2ho4O7uXqVlCPVPtQJcUlKCra0tO3bsoLCwkObNm7NixQrMzc2B8gBPnTqVyMhIgoKCsLS0rLXvIx0dHQkJCWHu3LlKwzt37syaNWsqvWD0pgkMDFT8MzExwdXVlYkTJ/Lll1+yY8cOWrRowZEjRwCIiopSmldbWxt3d/eXLmPMmDF1sGVCbVMre+ZE9dLP2cTvSeedYY1U5qF2paWlqKv/70ygqKiIqKgoVq9ezZYtW2p9T7w//C/uXHnCiABr8VA7ocYVFpQSMecWJhY6eM22rjD+zd89vcSqVas4ceIEvXv3RiqVkp2dzaFDhzA0NKzwAxJBqG9UPsCOjo7cuXOHffv2kZ+fj6mpKU5OTvj4+IirsEK9p/IB7t69O927d6/rZghCnRA39AuCChMBFgQVJgIsCCpMBFgQVJgIsCCoMBFgQVBhIsCCoMJEgAVBhYkAC4IKU7qZ4ec96fwanw3iKadVJ+890WdCbSkD7QYaTFj8VoVRFX5KWVYGFk2r/nyr/+se55aQn1Ui+kyoNal3nv+cdaUAG5mV/2ljr0NbJ3EDeFUc3ZpFflYJXQYaYGap9fIZBOEVyJ6WEbM4DT3Dym9bEOfAgqDCRIAFQYWJAAuCChMBFgQVJgIsCCpMBFgQVJgIsCCoMBFgQVBhIsCCoMKqHWBPT0/mzZtXk215rosXL9K7d28SEhL+kfXVpY8//pgPP/xQaVhGRgZDhw5l06ZNr73806dP4+rqSlJS0msvqyr+L712dUHsgVWAhoYGBgYGNGjQ4LWXpa2tjYGBgUqUnBFeTryKKsDY2JgtW7bUyLI6derE9u3ba2RZQt17rQBnZGQwd+5czp07h66uLt26dWPixIlKpT3Pnj3Lxo0buXnzJtra2nTu3BlfX18aN26smOb+/fusW7eOCxcuUFJSQqtWrRg3bhwODg4vXH9eXh7h4eEkJCRQWFiIpaUlbm5uDB48GA0NDUpLS9mxYwdxcXE8ePBAUQnQ398fS0tLAFJSUhg1ahTLli1jz549im3597//jb+/P9raNXeXUVlZGdu2bWP//v2kp6djYWFBt27d+OCDD5BIJJXOc/z4cRYuXAiAn58fI0eOJCUlBS8vLxYtWsSuXbtITk5GV1eXrl274urqyubNm/ntt98wMjLC1dUVb29vAIKDg9m/fz8A69ato02bNlXe/vj4eHbt2sXVq1cBaNmyJWPGjMHR0VGpvZcuXSIsLIybN29ibGxcaaH1qrwnhKp5rUPoP//8kyZNmjB16lScnJyIi4tj2rRpFBQUAHDy5Elmz56Nuro6M2bMYOzYsVy6dIkpU6aQm5sLlNcQnjx5Mn/88Qe+vr5Mnz6d4uJiZs6cSXJy8nPX/fjxY6ZMmUJycjKjR4/m448/xs7OjtWrVxMUFFS+cerqnDlzBltbWyZMmMDgwYO5cOEC8+fPr1B8/Msvv8TBwYGVK1cybNgwvvvuO3bu3Pk63VPB4sWLiYmJoV+/fsycOZP+/ftz5MgRJk+eTGFhYaXztG/fnoCAgArDS0tLWbhwIX369GHVqlX861//4siRI8ycOZN33nmHkJAQnJyc2LhxI8ePHwdgyJAhDB06tNL1vGz7r169iq6uLu+//z7e3t7k5OTw+eef8+jRI8U058+fZ8aMGeTm5jJu3Dg8PT25du2a0nqq8p4Qqu619sCOjo5MmjQJgEGDBtGmTRtWrVrF3r17GTVqFGvXrsXExITg4GDFJ3nz5s355JNP2Lt3L97e3mzZsoW8vDwiIiJo0aIFAD169MDDw4NNmzYRHBxc6bqjoqLIzc0lMjJSUfvWxcUFQ0NDtm7dysSJEzEzM2P58uWKotcADRs2ZOXKldy9e5dmzZopho8aNYphw4YB0KpVK44ePUpiYmKN1TU+c+YMR48eJTQ0FFtbW8VwOzs7AgICSEhIoG/fvhXma9iwYYW9nNzo0aMZNGgQUH7xKy4ujn79+vHee+8B0KJFC44ePcovv/xCnz59aNGiBa1atap0WS/b/vHjxyv1Y7du3Rg3bhwnT55kyJAhlJaWsmzZMkxNTQkLC0NfXx8Aa2trZs6cqZivKu8Joepq9Bz4P//5D+Hh4Zw9e5bevXtz//59hg4dqnQY2rFjR3R1dfn1118BSEpK4q233lKEF0BPT48OHTqQlJRUYU8pFx8fT05ODu7u7krD5dPn5ORgZmZGQUEB27dvJz4+ntTUVAwMDIDyQ+dnA6yjo1wa1NLSkuvXr79Gb1RsL8C0adMqHZ+Tk/PKy3y2zfL/P9vXmpqamJiYkJ2d/UrLgorbX1ZWRlxcHPv37+f+/ftK/Qhw5coVHj58iK+vryK88jbIpaSkVOk9IVRdjQZYTU2NRo0akZ+fr3hDmpqaVpjOyMiIvLw8oPyNa21dse6pkZERRUVFzz20zMzMpGXLlhUKe8tZWVnx+PFj/Pz8yM/Px9vbG1tbWy5evEhYWBhFRUUv3BZNTU2Ki4tfOM2ryMzMRF1dnbCwMDQ0NCqMb9iwYY2t61lqamrP/RB8kb9vf2BgID///DMjRoxg0qRJFBUVERAQoOhHeZBfVNK1qu8Joepq/Cp0Tk4OVlZWitKef9+zlJWVkZWVRdOmTYHyF66yvU9mZiY6OjoV9gxyEomEjIwMrK2tlQ7tnnXgwAHu37/PN998Q4cOHYDyc+e6IJFIKC0tRVNTs9IPrDfZ1atX+fHHHxkzZgw+Pj4AlJSUKE0jf51etLev6ntCqLoa/R743Llz5OXl0aVLF6RSKVKplFOnTintARITEyksLKRjx44AODg4cPPmTcUnOJSH9+LFi3To0AE1NTW0tMofVfPsRQ5nZ2cyMjI4duyYUhvkF9AAsrKyAJSuhMrfYNXZK70OZ2dngApf4RQWFiq1RUtLi7y8vH+8fS8i78dnz93/3o+2traoq6tz+PDh57a9qu8Joepeaw+clJREREQE1tbW3Lp1i3379mFjY4ObmxsAEyZMYOHChcyePRsXFxcyMzPZvHkzUqlUcaHl/fff5+eff2bmzJmMGjUKdXV1tm3bRllZGWPHjgWgWbNm6OjosGHDBtTU1Bg4cCA+Pj6cPn2aoKAgrl27RosWLbh37x779+8nNDQUKysrHB0d2b59OyEhIfTq1Ytbt24RHR0NwI0bN+jZs+frbP4r6dWrF4cPH+bgwYPk5eXRtWtXsrOzOXjwIB988AHvvvsuAG3atCEpKYnAwEAmTJiAVCr9x9r4PLa2tujp6bFlyxaKi4vJz89ny5YtaGpqcuPGDQDMzMx477332Lt3L1OnTqVfv35oaGhw8OBBpWVV5T0hVF21A6yurs7YsWNJTEwkNjYWPT09+vfvz4cffqg4nOrTpw+amppERkby9ddf06BBA5ydnfHz81Nc6LCysmLlypWEh4ezevVqSktLadu2LTNnzlTsOQ0MDPjqq6/49ttviYuLY+DAgZiamhIaGkp4eDhxcXE8ffoUqVTKoEGDMDQ0BMqvkn/00UfExMRw/PhxbG1tCQoKYv/+/cTGxio+IP4JampqBAYGsmXLFg4fPszJkycxNjamU6dOSkcI77//PllZWZw8eZI7d+68EQE2MjIiMDCQkJAQ5s+fT5MmTfDx8eHp06d8++23/Pbbb7z99ttMmTIFQ0NDDh06xNq1a7GysqJTp0788ccfimVV5T0hVJ3Sc6Ev/ZxN/J50nN0k4qmUVXR0axYPrstw8zMVT6UUapz8qZQmFjp4za547UT8FloQVJgIsCCoMBFgQVBhIsCCoMJEgAVBhYkAC4IKEwEWBBUmAiwIKkwEWBBUmAiwIKgwEWBBUGGV3syQnVrM6f3i+URVISso/yn59XMFXD9X8JKpBaFmVRrgq2fFG/FViT4T6sL/A1NFkbdSYH6aAAAAAElFTkSuQmCC;" vertex="1" parent="1">
          <mxGeometry x="10" y="30" width="240" height="482" as="geometry" />
        </mxCell>
        <mxCell id="NjNdJGhCKdxigsdHhm3p-2" value="" style="edgeStyle=entityRelationEdgeStyle;fontSize=12;html=1;endArrow=ERzeroToMany;startArrow=ERmandOne;rounded=0;exitX=0.996;exitY=0.604;exitDx=0;exitDy=0;exitPerimeter=0;" edge="1" parent="1" source="NjNdJGhCKdxigsdHhm3p-1">
          <mxGeometry width="100" height="100" relative="1" as="geometry">
            <mxPoint x="30" y="360" as="sourcePoint" />
            <mxPoint x="430" y="270" as="targetPoint" />
          </mxGeometry>
        </mxCell>
        <mxCell id="NjNdJGhCKdxigsdHhm3p-3" value="" style="shape=image;verticalLabelPosition=bottom;labelBackgroundColor=default;verticalAlign=top;aspect=fixed;imageAspect=0;image=data:image/png,iVBORw0KGgoAAAANSUhEUgAAATYAAAItCAYAAACzRVZsAAAACXBIWXMAAA7EAAAOxAGVKw4bAAAgAElEQVR4nOzdeXwM9+PH8ddu7pOQSCREQikpUTah0QpC4qhb0LqiaDSpqqv1RYsqqoejdV9FpdSdUkKEiiOtI1IaR0kk4owcEmGTbJKd3x/5ZdkmyB22n+fj4fGQmc/MfOazu+/9zGdmZ2SSJEk8Yd+PdxGEf0tISECpVOLkVA9jY5MSL3/58mUAHB3rYmpqVuLlU1NTuHcvCTs7W6pXtyrx8oJuMzaV4/VOLc3fsn8H25pp18hSqiu9YoIgCKXl0tpSK9j0iypkVt2ATsMcKq1SgiAIpaHKUhOyKqHQ9CKDDcDU8qmzBEEQXgiqLFWR0+WVXA9BEIQKJ4JNEASdI4JNEASdI4JNEASdI4JNEASdI4JNEASdI4JNEASdI4JNEASdI67CfYn9/vt+DhzYTWzsPzx69BAzM3Pq1nXCw6MdvXu/g4GBoVb527dvsGXLeiIj/yQtLRVTU3Pq129Iu3Y+dO7cE7lc+3tu9+6thIcf5NtvVxaaV8DffwDXr19j5cotODk10Ew/ciSUXbs2ce3aVSRJjZVVTVxcmjNs2GgcHBwBiI+PZfTogZiZmbNz55Ei1799+0ZWr/4eL6+uTJ78ZbGWCwwcRGzsleI2IzNmfEebNu01f8+dOxVv7+64u7cp9jqEF4sItpeQSpXNrFmfcvr0Cc00uVzOgwfpXLhwjjt3btG372CtZU6dOs7s2f8jOztLMy09/T5RUaeIijrFgQO/8uWX32NhYam1XHR0FNu2/cTAgcOLXb+goNVs3LgSADMzcwwMDLl37y737t2lU6e3NcFWUeRyvUJBrFar/39e4YB+clpGxgMiIo4gk8lEsL3ERLC9hObN+4zTp09gYmLKiBFj6NChCxYWlmRmKrl8OZr791PQ09PTlL958zpffjkZlSobb+/uvPvuCGrXrsODB2lERBxh3bqlXLr0N3Pm/I9585YV2t5PP63Azc2DBg1efW7dEhPv8PPPqwEYN24aXbv2AeDu3dscOrSPFi1alUsbPMuSJRsLTRs40Ie0tFS+/349jRq5PHXZsLC95OSoiIg4QmamEhMT04qrqFBhxBjbS+bo0TBOnPgdfX195s5dQs+eAzS9LBMTU1q0aIWXV1etZVasWIBKlU27dj5MmjQTBwdH5HI51avXoFu3vnz99QoMDAyIijpFRMSRQtvMzc1l3rzPUKmyn1u/6Ogo1Go1r7zSWBNqAHZ29gwePAp9/Rf7u/TAgV+B/F7xsWOHqrg2QmmJYHvJbN+e3xt5++1+uLi4Prf83bu3OXMmAplMxsiRHxVZpn79hnh79wBg//5fC82vVq06CQlxrFnzw3O3V9BTfNqY3Ivs8uVo4uJi8PHpgVwu59ChfVVdJaGUXr53339YWloq//xzAUCrN/QsUVGnkCSJ+vUbYWtb+6nlCgbPL148V2iep6c3LVq0YvfurZw588czt1dwuBoTc5kLFwqv60W2f38wAL16DaRx46acPx9JcvK9Kq6VUBoi2F4iV69eAvIH5J88A/ks16/HAjy3fMH8jIwHpKff15onk8mYNGkmZmbmzJ//BQ8epD91PXXrOuHp2Qm1Ws2UKR+yceMqHj16WKy6VqWsrEyOHAnF3r4ur7zSGA+PdqjVag4fDqnqqgmlIILtJZKWlh841ta1kMlkxVomI+MBAJaW1Z5ZztzcQvP/hw8zCs23tq7FmDGTSU1N5vvv5zxzXZ9+OouuXfugUmUTFLSKIUPeZuPGlcUao6sqR46EkpmppF07bwA8PNoB+ScThJePCLaXSMFd3J884/k8BWNdeXl5zyyXm5ur+f/T1t+hQxfat/fh+PHDhIbueeq6DAwMGTduGsuW/YynZyeysjIJClrNBx+8S2pqcrHrXpkKDkM9PTsB+T1PBwdHrl+/RmzsP1VZNaEURLC9RArOfqamppRgmWr/v8yzA+XJw09zc8unlhsz5n/UrGnDsmXfcvfu7Weus379RkybNo+lS4OoV68+t24l8O23M4pd98py/fo1Ll36GwcHR+rXb6SZXjDuKHptLx8RbC+RevXqA/knEZ4XKgWcnV8BHo/PPU1Br6RmTRutw9J/s7CwZOLEGWRlZfLtt9P517OAilS/fiNmzVqEXC4nKuqUJmQLDqeftY6CecU99C6Ngt5awWFogYLD0cOH92su8BVeDiLYXiL29nU1ZzYLPozP06JFK+RyOYmJd7h48fxTyx0+vB8AV1fFc9epULxBjx79iY7+i4SEuGLVw87Onlq17JAkSRPKRkbGACiVjzRjgf92584tgFI98q84cnJyNJd1bNq0ls6d3TT/JkwYCeR/kURG/lkh2xcqhgi2l8zbb/cDYPv2IK5cuVhkmYJLQiB/0F+h8ABg7dofiux5nD4dwZ9/HgWgW7fiXUby/vsfU6dOvWLXOyPjASkpScDjkLK2rqX5f2jo7kLLPHr0kD/+CAce91bL24kTv5Oenoa1dS28vbsX+te4cVMAcU3bS+bFvgxcKKRv30GEhe0lISGOyZMDeO+9D2nXzhsLi2rcuXOTkJBgduwIYtKkmXTs2A3ID6G//jpNdPRfzJw5kZEjP6JuXSfS0lI5fDiEn37K/12np2enYvXYAAwNjZg8+UvGjXuv0ImJOXP+h6urAg+PdlhZ1eT69ViWLv2WnJwc6tSppzk81tfXp107bw4c2M26dctQq9V4eXXF3NyCq1cvs3r1IlJTkzExMS10mFheCnq+b7/dj0GDRhaa/88/Fxg71k/8xOolI4LtJWNgYMjs2T/wv/8Fcvv2DZYu/YalS78pVEZP7/FLW69efaZMmcNXX03j5MljnDx5rNB6W7RoxcSJJRvYb9TIhXffHUlQ0CrNtOvXr3H0aBhHj4axZMnXWuUtLCyZMmWO1njZqFEfc+nS35pfNvz71w0GBoZMmjST6tVrFNr+o0cP6dq16N+e2tjY8tNPTz9zC/m/yvjrr9PA47OhRe2jtXUtkpPvcfz4Yby9uz9zncKLQQTbS8jWtjYrV/7Crl2bOXo0jFu3EsjLy8PGxhY3Nw/69h2MnZ291jJvvtmB5cs3sWXLeqKiTpGefh9TUzPq129Ep05v07Fjt1IN0A8aNFLrLiP29nUYO3YKYWF7uXUrAaXyETVr1qJVqzcZOHA41ta1tJa3tKzGDz9sYNeuzRw/fphbtxLIzc3Byqomr7/ujq/v0GdeXPy0Qf3nXd4C+Ye/kiTh7PzKUw+rZTIZbdq0Z/furYSF7RXB9pKQSf86JbVm2jX0DPXoOab44yeCIAhVIe2eipBVCbi0tsTrncdfmuLkgSAIOkcEmyAIOkcEmyAIOkcEmyAIOkcEmyAIOkcEmyAIOkcEmyAIOkcEmyAIOkcEmyAIOkcEmyAIOkcEmyAIOkcEmyAIOkcEmyAIOqfQbYvUeUCuRNKNrCqoju5Q50lkpKoAqGZjVMW1EQTd9PB+DgDKDO3bVBUKthyVGilbTdiGm5VTM0EQhDJKT8rR+rvIG01a1jDA6TVxC+SyUOdJREc8wKGBCTXtDau6OoKgs84fSy807al30PXsa1OhldF1mQ/ziI7If/KSaEtBqBgpd1RFBps4eSAIgs4RwSYIgs4RwSYIgs4RwSYIgs4RwSYIgs4RwSYIgs4RwSYIgs4RwSYIgs4RwfYS+uijj2jVqlVVV0MQXlhlCra8vDzeeecd/P39S7V8dHQ0mzdvLksVdEZ8fDwdO3ZkxYoVVV0VQXjplTnYUlNTuXfvXqmWHzNmDGFhYWWpgs5QKpVkZGSQlJRU1VURhJfeU38rWhyGhobs2rULuVwc0ZaVi4sL+/fvp3r16lVdFUF46ZU6kSIiInBzc6Ndu3ZMnDhRM33RokUMGDCA2NhYAgICePPNN+nWrRvz589Hpcq/P5lSqcTNzY2HDx9y7tw53NzccHNzIzg4uOx79BJavHgxbm5u+Pj4sG7dOq15ycnJTJ8+nQ4dOuDl5cX48eNFr04QnqPUwebk5MSYMWPQ09MrNO/atWsEBgby+uuvM2PGDFxdXdm8eTM//vgjAEZGRsyYMQMjIyMcHR2ZMWMGM2bMoGXLlqXfk5fYm2++Sf/+/QtNT0lJ4b333mP//v20bt2aAQMGkJ6eTkxMTBXUUhBeHqUONnt7e4YPH15ksAHMmDGD0aNH4+Pjw9y5c6lVqxb79u0DQE9Pjx49emBgYICVlRU9evSgR48eODo6lrY6L7WWLVvSrVu3QtO/++477ty5w+zZs5k3bx4ffPABa9asoXHjxlVQS0F4eVTY4Ji9vf3jjcjlvPLKKyQmJqJWqytqkzolLS2NQ4cO0bx5c3x8fDTT5XI5VlZWVVgzQXjxVdqov7m5OXl5eWRliWcpFMc///yDWq2mefPmVV0VQXjpiNOZL6js7GwgfzxSEISSqdJgk8lk5OTkPL/gf5CNTf7txK9du1bFNRGEl0+VBpuVlRU3btzQXAYiPNaoUSOsra05cuQIFy9e1Jon2ksQnq1MF+iWVYcOHdiwYQOBgYG4u7uTkpLC1KlTq7JKLww9PT3Gjx/PZ599xsiRI/H29qZOnTpER0cTGRkpLooWhGeo0mDz9/fnwYMHHDx4kMuXL+Pg4EBeXt5TLyH5r+ncuTOGhoasWbOGsLAwatSoQbt27XB1dSU6OrqqqycILyyZJEnSkxOWTojBwsqAYZ/Xq6o66YTMh3ms/TwOhwYm9BnjUNXVEQSdlHJHxeZvErCyMWTw1MfXwYrjGUEQdI4INkEQdI4INkEQdI4INkEQdI4INkEQdI4INkEQdI4INkEQdI4INkEQdI4INkEQdI4INkEQdI4INkEQdI4INkEQdE6hu3tIkgQSqLLEswnKoqD91GrRloJQUfJy8+/hoX0rjyLu7rFkvHi0myAILxcjEz3en+us+buI+7FJmFvpY2ohjlLLQpIg6UYOtRwNqroqgqDT7iUUfrxAoWCTyWQAdB1Vo+JrpMOyHqnZ8nUSMrmMLiPE4/IEoSLcT8xl99IUTM21b04rumWCIOgcEWyCIOgcEWyCIOgcEWyCIOgcEWyCIOgcEWyCIOgcEWyCIOgcEWyCIOicCgm2Tz/9lI4dO1bEqnVaVlYW33zzDd27d6dbt27s27evXNefmZlJhw4dmDVrVrmuVxBeNEX8pKrqKJVKDh48SLNmzahfv35VV6fSLVmyhAMHDtCzZ08cHBxo0aJFVVdJEF5KL1Sw7du3j6VLl/Ldd99VdVUqXUZGBiEhIXTp0oWPP/64qqsjCC81Mcb2grh58yZqtZrGjRtXdVUE4aVX5h5bSkoKK1eu5I8//kAmk9G0aVNSUlK0yiQnJ7Np0yYiIiJISUnB0tISNzc3/P39qVmzJgDLly9n69atAEyaNAkAa2trtm3bpllPQkICa9as4ezZs+Tm5lK3bl169epF9+7dy7obVWrGjBkcPXoUgAULFrBgwQImT55Mly5dgPx75O3YsYM9e/Zw+/ZtLCwsUCgUjBgxgtq1a2vWI0kSe/fuZe/evcTHxyOXy3F1daVv3764u7trldu0aRO7d+8mNTWVRo0a8fHHH9OwYUNNmd9//53du3dz6dIlABwdHfH19cXHx6cymkQQyqRMwZaamsqHH35IUlISnp6eODo6EhkZybVr15DLH3cGY2Nj2bVrF66urrRq1Yq4uDhCQ0OJiYlhzZo1yGQyvLy8SElJ4dChQ7zzzjvUq1cPY2NjzTquXr3KuHHjkMlkdOrUCVNTU/7880/mz5/PrVu3GD16dFl2pUp5e3tjZmZGSEgIbdq04bXXXqNRo0aa+XPnziUsLAxXV1c8PT25d+8ehw8f5vTp06xatYpatWoBMG/ePEJDQ3FycqJnz55kZ2cTFRXFn3/+qRVsJ06c4MKFC3Tq1Im0tDQOHDjAlClT+PnnnzEyMgJg69atJCYm0qZNG4yNjTl69ChfffUVxsbGeHp6Vm4DCUIJlSnYFi9eTGJiIp9//jleXl4A+Pn58cEHHxAbG6sp17p1axYsWKA1GD5t2jQiIiK4ePEir732Gq+++iqNGzfm0KFDuLm5oVAoNGUlSeKrr75CT0+PVatWYWdnB8CIESOYNGkSW7dupU+fPpoP+MvmrbfewtDQkJCQENzc3OjTp49m3pEjRwgLC6N///4EBgZqpnt7e/PJJ5+wceNGJk6cyJEjRwgNDcXDw4NZs2ahr5//0kqSRF5entb2HBwcWLp0KaampgDUqVOH1atXEx4erumRTZgwATs7OywsLADo3bs3o0ePZs+ePSLYhBdeqcfY0tPTOXr0KE2bNtWEGoBcLqd69eqFyj8Zamq1mrZt2wL5Y0vPc+XKFeLi4ujcuTM1atRApVKhUqlQq9V07twZtVpNdHR0aXflhXbgwAHkcjmDBg3S7LdKpcLV1ZXatWtz7tw5APbv3w/ABx98oAk1yL+/3pN/Azg7O2tCDaBVq1aA9mvRsGFDTahJkkTDhg2xtbUt1uslCFWt1D22q1evolaradq0abHKX758maCgIC5cuMCDBw+wtLQEIDs7+7nLxsXFAbB9+3a2b99eZBm1WjefKxAXF4dardbqxT3JwcEBgPj4eExMTHB0dCzxNkxMTID8y20KZGdns2vXLkJCQrhz5w6Ghobk5ORgZmZWir0QhMpV6mBTqVQAGBoaPrfs4cOHmTNnDnXr1mXkyJHY29sTGRnJpk2birWtgkMpX19fOnToUGSZevXqFbPmL5e8vDxMTEyeeglMQc8rLy+vUM+stFQqFWPHjiU2Npbu3bvj7++PgYEBCxcuLNYXkSBUtVJ/EqytrQG4fv36c8suX76cGjVqsGzZMs0HsagPSMFtyXNzc7WmF/RKsrKycHFxKW2VX0oODg6cO3cOW1tbzRnkotjb23P+/HmSkpKwsbEp0zYPHjzIlStXCAwMpH///prplpaWJCUllWndglAZSj3G1qBBA2rWrMnx48e5fPmy1rycnMcPV5AkifT0dBwdHbXGdRITEwuVLRibu3btmtb6mjZtiq2tLQcOHCAmRvspWv++tETXdOrUCcj/cnjygWJqtZr79+9r/i4Y51y5cqXWyYLc3NwSh1FaWhqA1jV1WVlZpKena71egvCiKnWPTU9Pj4CAAObMmcPYsWNp37499vb2XL58mb/++ktzuYdMJuONN97gxIkTLFu2DEdHRy5evEhERAQAf/31F/369QNAoVBgamrKTz/9RGpqKnK5nNdffx0PDw+mTJnCp59+SmBgIF5eXtja2nLjxg2OHz/O3LlzcXNzK4fmePF069aNEydOcOjQIa5fv46bmxs5OTmcOXMGc3NzlixZAkD37t05evQohw4dIi4uDoVCgVqtJiIiAkdHR+bNm1fsbbZq1Yoff/yRRYsW0b17d7Kzs9m7dy9KpZKHDx8SGxtLgwYNKmqXBaHMyvTLg44dO/LFF1/g5OTEkSNHCAkJwcHBgddee02r3KRJk2jfvj179+5l1apVPHr0iGXLljFgwACioqI0Z9qqV6/O7NmzsbW1JTg4mNDQUJKTkwFo3rw5S5cuRaFQcOzYMbZs2UJcXBwDBgzg1VdfLctuvNDkcjmzZ89m1KhRZGZmsn37dg4dOoSDgwN+fn6acnp6esybN4/hw4eTlZVFcHAw4eHh1KlTh549e5Zomw0bNmT69OmoVCqWL1/O/v376du3L4sWLcLZ2VlzIbUgvKgKPTB56YQYzKrr0W+8dVXVSScUPH7P1slQPH5PECpIweP3rGwMGTz18RUB4reigiDoHBFsgiDoHBFsgiDoHBFsgiDoHBFsgiDoHBFsgiDoHBFsgiDoHBFsgiDoHBFsgiDoHBFsgiDoHBFsgiDoHBFsgiDoHBFsgiDonEJ391gyPga53uO72Qqll5crIZOBXE+0pSBUlLxcCSMTPd6f66yZVuSNJuVy8UEsL3r6oi0FobIVCjaZDEwt9Bn2uW4+HKWyZD7MY+3ncdg6GtNnjENVV0cQdFLKHRWbv0nA1FxPa7oYYxMEQeeIYBMEQeeIYBMEQeeIYBMEQeeIYBMEQeeIYBMEQeeIYBMEQeeIYBMEQeeIYBMEQeeIYBMEQedUaLBFR0ezefPmEi8XHx9Px44dWbFiRQXU6r/r0aNHbNu2jZiYmCLnf/XVV3Tt2pXk5ORKrpkglK8KDbYxY8YQFhZW4uWUSiUZGRkkJSVVQK3+u3799Ve+/vprUlNTi5yfnJxMWloaWVlZlVwzQShfRd7do6pIkoRMJsPFxYX9+/dTvXr1clv3lStXaNSoUbmtTxd9/fXXPHz4sFzbXRCqQpmC7eTJkyxbtozY2FgsLS1xc3PD39+fGjVq4OnpCcC5c+dwc3MD4LPPPqN3794A+Pj4YGtry9ixY1m4cCGxsbF07NiR2rVrs2HDBgACAgIYOXIkAEOHDqVZs2a4u7uzYsUKbty4gZ2dHUOGDKFv376aOqnVatatW8fOnTu5f/8+derU4fXXXyc4OJjVq1fTvHnzsuxyhVAqlXh6evLNN99w7tw59u7di1KppEGDBowePRqlUsn69euJj4+ndu3a+Pn50bNnT611nD59mlWrVnHp0iXkcjnNmjUjICCApk2bArBo0SKCgoIACAwMBKBWrVrs27cPlUpFmzZtAJDL5Zw6dYpNmzaxYMECpk6dqtW+AH369EGlUrFnzx7kcjm3bt1iyZIlnDx5kqysLJydnRk8eDDdunWr6KYThCKVOtju3LnD+PHjMTY2ZuDAgWRkZBAaGoq/vz9GRkbMmDGDefPmYWtry3vvvQdQKFQSExOZNm0aw4YNw9TUlCZNmpCZmYlSqWTbtm2Ftvnrr78SERHBoEGDMDMzY9OmTcydO5e6devi7u4OwPz589myZQseHh688cYbhIaGsnPnTtq1a/dChtqTpkyZQuvWrfn000+Jj4/nxx9/ZMKECVSrVo0RI0ZgaWnJxo0bmTVrFnZ2drRq1QqA8PBwPvnkE6ytrRk0aBC5ubns2bMHf39/li9fTvPmzfHx8SEpKYkDBw4wbNgwnJ2dMTExAUBfX58xY8awe/dubt68CUCPHj1YtmwZv/32m1awRUVFcePGDQIDA5HL5dy+fRs/Pz+USiW9e/fGysqKw4cPM336dFJSUhg6dGjlN6QgSP+yZPxVacOs+H9PLuT333+XFAqFtHr1as209PR0rTLt2rWTRowYUeTy3t7ekkKhkMLDwwvNO3/+vKRQKKQ1a9Zopg0ZMkR66623pNTUVM20+Ph4SaFQSDNnzpQkSZKSk5Mld3d3afjw4ZJarZYkSZKUSqXUpUsXqW3btlJeXt5z96u8KDNypcXjrko7F998btlHjx5JCoVCq96SJElz584t1EaxsbGSQqGQvvjiC0mSJCknJ0fq0qWL5OnpKSUmJmrKXb9+XXJ3d5eGDh2qmfbzzz9LCoVCOnnyZJH1GDNmjOTu7q75+4svvpAUCoWUkJCgNc3Dw0PzOnz66aeF6piVlSX16dNH8vDwkNLS0p67/4JQWsm3s6XF465KQXOua00v9cmDhg0boq+vT0hICAkJCQBYWlqWaB1PHrIWh4mJCVZWVpq/69Wrh5GREbdv3wYgLi4OtVqNh4eH5tbmJiYmtGjRAqVS+dRB8xdF7dq1tW7JXrNmTQCsra0105ydnTEwMODu3btA/qF+UlISXbt2pVatWppyjo6OuLu7c/HiRVJSUkpVH19fXwD27t0LQFZWFmFhYXTq1AkrKytUKhXHjh3D2dlZ63U0MjKie/fuqFQqTp48WaptC0JZlDrYHBwcmD59Onfv3sXX15fPPvuMW7dulWgdT34QS8vMzAylUgmAubk5APfv39cqk5aWhp6eHtWqVSvz9qqaTCZDX1+f3NxcAM2ho7Ozc6GyDg75d+69c+dOqbbl4uKCi4sL+/btQ5IkDh8+jFKpZMCAAQDcu3cPlUpV5Lbr1KlTpm0LQlmU6XKPbt26ERwczMCBAzl06BDvvvsu0dHRxV6+vB8Y06hRI82A+LVr1wD466+/OHPmDB07dsTAwKBct/cikLSfxaNFrVYDZWtnX19fbt++TVRUFLt376ZJkyaaExLP2nZeXl6Zty0IpVXm69hsbGyYOHEiixcvRqlUsnbtWs08mUxGTk5OWTdRbHK5nC+//BKZTMY777xD9+7def/992nRogWffvpppdWjMhX0jIrqLcfFxQFgb28PPA6ZkrwmnTt3xtLSkjVr1hAZGanprQHY2tpiYGCg6TUWte2CXqMgVKYyBVtBrwigWbNmyOVyHjx4oJlmZWXFjRs3UKlUZdlMiZiZmeHl5cV7772Hv78/mzdvZuXKlTp7bZarqytWVlbs37+fjIwMzfTz589z7tw5mjdvrhmXrFGjBsBTf3lQlILxslOnTmFpaUnnzp018wwNDfHw8ODKlSucP39eM/3Bgwfs3r0bExMTWrduXdZdFIQSK/XlHgkJCQwcOJDWrVvTtGlTzp49i1qt5q233tKU6dChAxs2bCAwMBB3d3dSUlKYOnVquVT8aaZMmYK1tTX29vYkJSVx7Ngx/vnnH9q2bVvikxsvA0NDQyZMmMD06dPx8/Ojc+fOKJVKgoODMTY2ZtKkSZqy7u7umJmZsWbNGlJSUpDL5SgUCtq2bfvMbfTr149NmzbRq1cvDA0NteaNHTuWyMhIPvroI3r16oW5uTn79+8nOTmZyZMna8Y9BaEylTrY9PX16dGjB6dOneLs2bPY2toSGBiIn5+fpoy/vz8PHjzg4MGDXL58GQcHB/Ly8tDT03vGmsumT58+rF+/nqioKK3plpaWrF+/HkdHxwrbdlXp2rUrZmZmrFu3jg0bNqCvr8/rr79OYGAgjRs31pSrUaMG3333Hd9++y1bt27F0tKyWO1Rr149WrdurTlL+iQnJyfWrVvH0qVL2b17NyqVivr16zN37lx8fHzKdT8FobgKPQl+6Qsti0YAACAASURBVIQYLKwMdOa5orm5uYSHhzN58mQGDx7M+PHjK2W7Bc8VdWhgIp4rKggVpOC5olY2hgye+vhLWuduW3T27FmuXLmi+VtfX1/TK8nOzq6qagmCUIleqB/Bl1Vubi7Tp08nMTERd3d3nJ2dSU1N5cSJExgbGxf6zaMgCLpJp4JNX1+f7777js2bN3P69GmioqKwtrbGy8uL4cOH4+TkVNVVFAShEuhUsAE0btyYL774oqqrIQhCFdK5MTZBEAQRbIIg6BwRbIIg6BwRbIIg6BwRbIIg6BwRbIIg6BwRbIIg6BwRbIIg6JxCF+hKEmQ+yuOn2deroj46Q63Ov7dAYkKWaEtBqGDKh3lafxf5y4OcbDU52epKqZCuy82ReJBSeXcRFgThKcFmbqVHpyG6ecfZypKXI7FnRSq2ToZ49LCo6uoIgk5Sq2H30hSMTLRH1QoFW8GzN6rZ6NzPSCtV1qPHPV7RloJQMe4n5j+tTU9P+6FB4uSBIAg6RwSbIAg6RwSbIAg6RwSbIAg6RwSbIAg6RwSbIAg6RwSbIAg6RwSbIAg6RwSbIAA+Pj5MnDixqqshlJMKDbZLly6xY8eOEi+XkJBAr169WLduXQXU6sWky/ucl5fHyJEjGTduXFVXpdh06fVQq9UcP36cY8eOFTn/4MGDvP3225w6daqSa1ZxKjTYPvnkE44cOVLi5TIzM3n48CHJycnlX6kXlC7vs1qtJjU1laSkpKquSrHp0utx7do1Pv/8c65cuVLk/PT0dJRKJenp6ZVcs4rzQv2IUZIkZDIZr776Kjt27MDS0rLc1h0TE8Mrr7xSbusrbxWxz2VR8FqUBwMDA37++Wfk8pdn5KO8X4+cnBxu375NvXr1ymV95cnX15cOHTpQs2bNqq5KuSlTsJ05c4a1a9cSFxeHhYUFLVu2xM/PDysrK7p16wZAdHQ0HTp0AGDSpEm8/fbbAPTt2xcbGxs++OADli1bRlxcHJ6entjZ2bF582YARowYwdChQwEYPXo0Li4utGzZknXr1nHz5k1sbW0ZOHAg3bt319RJkiSCgoL47bffuH//Pvb29jRr1ox9+/bx/fff07Rp07LscoVYtWrVU/e5efPmODs7s3HjRpKTk7GxsaFHjx4oFApWrVrF33//jYWFBV5eXowaNQoDAwMAli9fztatWxkyZAjHjx/n1q1bWFlZ0a5dO4YPH46pqSmQf8jl5+fHgAEDsLW1ZevWrdy7d49x48bRs2dPJElix44d7Nmzh9u3b2NhYYFCoWDEiBHUrl0bgKysLFasWMHx48d59OgRTk5OdOnShV69enHq1CkmT54MQMuWLZk/f75mv+/cucOqVauIjIwkOzubevXq4evri4+Pj6ZMcV/3krh8+TIrV67k0qVLmJub07ZtWyRJeu7rcfnyZbZs2cLZs2fJzMzExsaGjh07MmzYMPT1H3+UMjIyWLZsGSdOnCA3N5eGDRtiZmbGpUuXCAoKwszMrET7FRUVxfr16/nnn3/Q09PDxcWFESNG0KRJE02ZnTt3smvXLpKSkqhVqxYeHh6MHDmSyMhIpk6dCkBQUBBBQUGa/zs4OBAYGMilS5cA+OGHH2jWrBmQ/znau3cve/fuJT4+HrlcjqurK3379sXd3R2A33//nd27d2uWd3R0LPT6VZVSB1tiYiLTpk3DyMiIvn378vDhQw4fPoyfnx+GhoZMnjyZRYsWYWNjw+DBgwEKhUpSUhJffvkl77zzDiYmJrz66qtkZmaiVCr59ddfC20zJCSEU6dO4evri5mZGdu3b2f+/Pk4ODjQokULAJYsWcLOnTtxd3fH19eXw4cP89tvv/Hmm2++kKEG0Lp166fu886dO7G3t2fYsGFkZWURFBTEypUrMTAwoF+/fnTt2pUjR46wdetWjIyMGDFihNbyR48exdfXF5lMxunTp9m2bRsXL17k+++/R09PT1Pu2LFjGBgY4OfnR0pKiubNOXfuXMLCwnB1dcXT05N79+5x+PBhTp8+zapVq6hVqxYrVqzg119/pVWrVjRq1Ihz585x4cIFevXqRd26dXn//ff58ccftep19+5dAgICUCqVvP3221hZWREeHs5XX33F/fv3GThwoKZscV734vrrr7/49NNPMTAwoEuXLpiYmBAeHk5ubu5zX4/w8HD++OMPWrZsibW1NWfPnmXjxo08fPiQsWPHAvnjiRMnTiQmJoYePXpgZ2fHjh07SElJ4cMPP8TMzKxE+3XixAmmT59OzZo18fX1JS8vj/379/Pxxx+zYMECmjZtypEjR1i8eDH16tVj4MCBJCQkcPToUQICAnjllVd47733WLduHW3atKFt27YAWFlZAdC7d28sLCwKja/NmzeP0NBQnJyc6NmzJ9nZ2URFRfHnn39qgm3r1q0kJibSpk0bjI2NOXr0KF999RXGxsZ4enqW6HUpb6UOtqtXr6JSqRg8eDDDhg0D4P3338fCIv/eY126dGHJkiVUr16dLl26FLmO+/fvM2fOHNq0aaM13cDAoMgPuUwmY+nSpVSvnn+vuCZNmjBs2DBCQ0Np0aIFqampBAcH4+Liwtdff41MJqNHjx4MGTKEqKiocj28Kk/Nmzd/6j4bGBiwePFiqlWrBkC1atWYNWsWvXv3ZvTo0QC0a9eOgQMHEhYWVijYZs2apTn86d69O4sXL2bnzp0cPnwYb29vTbn79+8TFBSkdThy5MgRwsLC6N+/P4GBgZrp3t7efPLJJ2zcuJGJEycSHR2Nvr4+8+bN07RvRkYGALVr12bQoEGsX79eq14rVqwgPT1d6/UfOHAgo0aN4scff6Rr166aw8Dnve7FlZuby1dffYWBgQErV66kTp06mu36+vpqyj3t9ejfvz9dunTRtGdmZiZDhgxh3759fPjhh+jp6XHs2DGuXr3Ku+++i7+/PwBubm74+/tz5swZre08b79yc3NZuHAhxsbGLFu2DGtrawDefvtt/Pz8WLJkCStWrCA6OhqACRMm4OrqqtX+NjY2tGnThnXr1lG/fv1Cn0UfHx+Sk5O1gu3IkSOEhobi4eHBrFmzNL1RSZLIy3t8p9oJEyZgZ2en+cwXvCf37NlT5cFW6kGPBg0aoK+vT1hYGDdv3gTQ7GBxVa9evVCoPYuJiYnmTQBQt25djIyMuHv3LgDXr19HrVbTqlUrzQfM2NiY5s2bo1QqSU1NLVH9XgQmJiaaUIPH37RPBpCenh7Ozs4kJiYWWv7fQd6rVy8ATp48qTX9jTfeKDTGcuDAAeRyOYMGDUKlUmn+ubq6Urt2bc6dOwdAo0aNyM3NZdOmTajV+fehe9Z7IScnh4iICOrVq6f1+hsZGdGlSxdUKhWRkZFabfCs1724/vjjD+7du0e/fv00oQb578PijP/VqFFDa4zMyMgId3d3srOzNScZ4uLigPxeX4GGDRtSo0YNbt26pbW+5+1XdHQ0KSkpeHt7a0INoE6dOrRs2ZJ//vmH1NRUGjVqBMD27dt59OgRUPLP4pP2798PwAcffKB1iC2TybT+btiwoWY7kiTRsGFDbG1tNXlQlUrdY6tduzaffPIJCxYswM/Pjw4dOjBy5EjNuEtx2NjYlHbzGqampiiVSgDMzc2B/N7Hk9LT09HT09MKCF2jr6+vCZVnsbOzA+DevXta04t6LeLi4lCr1fTp06fIdTk4OAAQEBDArVu3WLNmDXv37mXo0KF06dLlqb3jpKQkcnJycHR0LDSv4P3zvNB68nUvrn/++QeA1157rUTLFZAkifDwcLZv305cXBw5OTkYGRkBkJ2dDRT9HszNzeXRo0daYfo0T+7X7du3AZ7ZTomJiXh7e3P58mV27dpFZGQkffv25d1339WMo5ZUfHw8JiYmRW73SdnZ2ezatYuQkBDu3LmDoaEhOTk5WofbVaVMJw98fHxQKBRs3ryZ3bt3ExERwfz587UGNZ+lvA8LGzRogI2NDQcPHqR37944OTnx999/ExUVRfv27bW+bf6rcnKKfv5CUa9FXl4eJiYmfPfdd0UuU/DBsbCwYNGiRRw/fpz169fzzTffcOrUKWbMmFHkck8O1P9bQThXxJCBSqUCwNDQsFTLf//995qxxIkTJ1K9enW2bt2q1ftt3bo1y5cvZ/Pmzbi5uWFubs6WLVvIzs6mU6dOJdpecdtJJpMxduxYunbtyvr16wkKCiI8PJylS5eWqueWl5f33M+KSqVi7NixxMbG0r17d/z9/TEwMGDhwoWakK9KZT7/XrNmTcaMGcPXX39NZmYmGzdu1MyTyWRag7IVTS6XM3XqVGQyGSNHjmTgwIF8/PHHuLq6agZ3/+tiY2OBx72tZ3FwcCAzMxNbW1tcXFwK/XNyctKUlclktG3blpUrV9KyZUuOHDny1OumatWqhYGBAXfu3Ck07/r1/Cd6laTnX1wFh3MF2yiJW7du8euvv9KmTRu+/vprvLy8aNmyZaHLNxwdHfnggw+IiYnB19cXX19f1qxZQ9++fUt8Ftfe3h7gme1U0AOH/EPDOXPmMGzYMG7cuEFISAjw+EuiuJ9Fe3t7MjIynnnd4cGDB7ly5QqjR49m3LhxvPnmm7Rq1eqFuVypTMEWHx+v+b+LiwtyuVwzaAn5Yxc3b97UfFNWBjMzMzw9PRk8eDDDhw9nzZo1LFy4UKcPQ5/lycPT7OxszZX0BWfHnqWgh7F8+XKt3oNardY61EpMTCQrKwvIPyQu6LE/+V54koGBAe7u7sTExHDhwgXN9IyMDEJCQjA2NsbNza24u1hsBeNeW7du1apbcT7waWlpADRu3FhresG45pM9YVtbWzp27MjQoUMJDAxk69atfPTRRyXuhTZt2pTq1atz6NAhHj58qJl+4cIFoqOjNfOVSqXW0ELBJRsF+1gwjnft2rVibdfLywuAlStXap0syM3N1YRdUe2RlZVFenr6U48KKlOpj81u3rzJiBEjUCgUuLi4cO7cOdRqNW+88YamTNu2bdm8eTOTJk3SnLWs6N/jffHFF9SsWRM7OzuSk5NJTU0lJiYGDw+PMg2ovqw+//xz3nzzTVQqFadOneLWrVu0adOmWCdtunXrxokTJzh06BDXr1/Hzc2NnJwczpw5g7m5OUuWLAFg9erVnD17VnO4/9tvv1G9evVCIfCk0aNHay69ePvttzE1NeXQoUOkpKQwbty4ChmnqVevHj169GDPnj34+fnh6emJpaUlERERz/0wvvLKK1hbW7N9+3bkcjnm5uaEh4cTExMD5F9G0qBBA5KTk5k5cyY+Pj6o1Wpu3brFvXv3qFOnDh4eHlqX2DyPgYEBH374IXPnziUgIAAvLy8yMzPZu3cvRkZGfPTRRwAcPnyYH374gfbt22NnZ0dYWBhyuVwT5DVr1qRJkyacOnWK2bNnY29vj6mpKe+8806R2+3evTtHjx7l0KFDxMXFoVAoUKvVRERE4OjoyLx582jVqhU//vgjixYtonv37mRnZ7N3716USiUPHz4kNjaWBg0aFHtfy1upg01fX58uXboQGRnJ+fPnsbGxYeTIkQwaNEhTxs/Pj4yMDH7//XeuXLmCvb09eXl5JXpxS6p79+5s2rSJ8+fPa023sLBg2bJlxRrA1SVNmjTh6NGjmot7hw0bxpAhQ4q1rFwuZ/bs2fzyyy+EhISwfft2zM3NcXFxoXfv3ppyCoWCW7duceDAAfT09GjWrBn+/v7PDCdHR0eWLl3KmjVr2LdvHyqVCicnJ6ZPn665oLsijB8/HltbW3777TdCQkKws7OjV69erFix4pnLGRkZ8fXXX7Nw4UJ++uknLC0tad++PdOmTeObb75hx44d9OvXjxo1atC+fXvCw8MLjTU1btyYH374QXMRdXF06tQJU1NTfv75Z3755RdN+44aNYqGDRsC+W3ZsmVLTp8+TVZWFo6OjgQEBGhdtzljxgy++eYbzfWKz7ocQ09Pj3nz5rFp0yZCQ0MJDg6mWrVqODs707NnTyD/sHf69OmsWbOG5cuXY29vT9++fWnevDmzZ89m69atTJkypdj7Wd5k0r9GKJdOiMGsuh79xls/bZmXSm5uLidOnGDmzJmFrseqSFmP1Gz5OglbJ0O6jLCqlG0+qeCXBxs2bHju2S2hYmVmZrJu3Tq2bdtW5HWbQundT8xl99IUrGwMGTz18ftc504Tnjt3DnNzc003WF9fn7p16wJU6lifUDnS09O1eo9P07lzZ/73v/9VQo3yDw1btmypGdsyMTHRDPKL92Dl0Klgy83NZe7cuSQlJWnOWKWmpnLy5EmMjIxK/dtC4cVlYWHB6tWrn1uuss7WXb9+nTlz5mBoaMgbb7yBlZUVN27c4OzZs9SpU0drDFqoODoVbPr6+syePZvt27dz9uxZzp8/T40aNfD09GTQoEHikEwHyeXyF+quLfXq1WPmzJns3buXyMhIVCoVtra2DBo0iAEDBmBsbFzVVfxP0Klgg/xBzaoctHxRBAQEEBAQUNXV+E9q27ZtsS6nESrOy3ODLEEQhGISwSYIgs4RwSYIgs4RwSYIgs4RwSYIgs4RwSYIgs4RwSYIgs4RwSYIgs4pdIGuBORkSfy+Oa0KqqM78v7/Fl9p93JFWwpCBcvOzNP6u/AvDyTIzlSTcKnqb++rC7KVoi0FoaLlaedaEcEmA0srA97oVqOSqqSb8nIlDv1yD4cGJrzm8WLcLlkQdFFoUCL6+tp3Jy4UbAWzGyn+e3ebLU+ZDx9/hYi2FISKkXLn/x/QY6x9ukCcPBAEQeeIYBMEQeeIYBMEQeeIYBMEQeeIYBMEQeeIYBMEQeeIYBMEQeeIYBMEQeeIYHvBtWnTptIe8iwU3/r163Fzc+Ovv/4q1fIJCQkEBgbSpk0bvL29iYmJKeca/rdVaLBFR0ezefPmEi8XHx9Px44dWbFiRQXU6uWWl5fHO++8g7+/f1VXpVw86z2yb98+PD09iYiIqORaVSy1Ws2ECRO4ePEio0aNYujQodSvX7+qq6VTKvTxe2PGjKFBgwa8++67JVpOqVSSkZFBUlJSBdXs5ZWXl0dqaipZWVlVXZVy8az3SFpaGkqlkrQ03bo7yvHjx4mPj2fWrFl069atqqujk16o54pKkoRMJsPFxYX9+/dTvXr1clv3lStXaNSoUbmtr6oYGhqya9cu5PLy62y/qG0zaNAgvL29sbGxqeqqlKu4uDgAXnvttSquie4qU7CdPHmSZcuWERsbi6WlJW5ubvj7+2uevg5w7tw53NzcAPjss8/o3bs3AD4+Ptja2jJ27FgWLlxIbGwsHTt2pHbt2mzYsAHIf+jvyJEjARg6dCjNmjXD3d2dFStWcOPGDezs7BgyZAh9+/bV1EmtVrNu3Tp27tzJ/fv3qVOnDq+//jrBwcGsXr2a5s2bl2WXK9SFCxf44YcfiI6OxsLCAi8vL9RqtWZ+REQEY8eOBaBVq1YsW7YMgHv37rF+/XqOHTtGUlIS1apVo3Xr1owdOxZra2vN8sVpm+K2M8Dp06dZtWoVly5dQi6X06xZMwICAmjatKmmTGnfI8OHDyc6OhqANWvW8Prrr2vWGRkZyYYNG4iOjiYrK4uGDRvSs2dPevfujZ6eHgDbtm1j27Zt3LhxAwsLCzw8PPjwww+pVatWiV8XlUrF2rVr2bNnDw8ePKB+/fpa7fpk+/7yyy/s3LmTmzdvYmlpSevWrQkICMDe3h6Ajh07kp6eDkC/fv0A2L17t2a+UD5KHWx37txh/PjxGBsbM3DgQDIyMggNDcXf3x8jIyNmzJjBvHnzsLW15b333gMoFCqJiYlMmzaNYcOGYWpqSpMmTcjMzESpVLJt27ZC2/z111+JiIhg0KBBmJmZsWnTJubOnUvdunVxd3cHYP78+WzZsgUPDw/eeOMNQkND2blzJ+3atXuhQy0yMpKPPvoIAwMDevTogampKWFhYeTm5mrKODk5MWbMGJYvX6617NWrV9m6dSstWrTAw8OD2NhY9u3bx9WrV/n55581vbvitk1x2jk8PJxPPvkEa2trBg0aRG5uLnv27MHf35/ly5fTvHnzMr1HBgwYgKWlZaHxteDgYObMmYOVlRWdOnXC3Nyc6OhogoOD6dWrFwCLFi0iKCgIFxcXRo0axd27d9m9ezeRkZH8/PPPVKtWrdivi1qt5pNPPuHEiRO4urrSq1cv4uLiCAsLK1R2xowZhISE0LJlS7y8vLh79y6hoaH88ccfBAUFYWdnx/vvv8/hw4c5e/YsgwYNokaNGlhaittalTvpX5aMvyptmBX/78mF/P7775JCoZBWr16tmZaenq5Vpl27dtKIESOKXN7b21tSKBRSeHh4oXnnz5+XFAqFtGbNGs20IUOGSG+99ZaUmpqqmRYfHy8pFApp5syZkiRJUnJysuTu7i4NHz5cUqvVkiRJklKplLp06SK1bdtWysvLe+5+lRdlRq60eNxVaefim88tq1KppG7duklt27aVrl+/rpmekpIitWrVSgoICNAq7+HhUWjaqVOntP4eP368pFAopHPnzkmSVPy2KU475+TkSF26dJE8PT2lxMRETbnr169L7u7u0tChQyVJKvt7ZN26dZJCoZCioqIkSZKku3fvSh4eHlL37t2lpKQkrbJZWVmSJElSTEyM5ObmJr333nuSSqXSzP/1118lhUIhLVq0qMhtPc22bdskhUIhzZkzR2v6t99+q1W3gwcPSgqFQlqwYIFWuT/++ENSKBTS7NmzNdN++OEHSaFQSDExMSWqi1BY8u1safG4q1LQnOta00s9UNOwYUP09fUJCQkhISEBoMTfPE8ejhSHiYkJVlZWmr/r1auHkZERt2/fBvLHLtRqNR4eHshkMs0yLVq0QKlUkpqaWqL6VZbjx4+TmJjIu+++i6Ojo2Z6jRo1NIdWz1PQk4L8XkaHDh0ANK9NSdrmee187tw5kpKS6Nq1q9ahnaOjI+7u7ly8eJGUlJRyeY886cCBA6hUKoYPH17oUNDIyAiAQ4cOIUkS7777LgYGBpr53bp1w8TEhGPHjpVomzt27MDU1JSPPvpIa/q/t//bb78hl8vx8/NDpVJp/rVs2RIHBwfOnj1bou0KZVPqQ1EHBwemT5/OnDlz8PX1xcfHh4CAABwcHIq9jtKMd/ybmZkZSqUSAHNzcwDu37+vVSYtLQ09Pb0SHYJUpkuXLgGFD9VL4uLFi6xdu5a///6btLQ0zb5mZ+fflrysbfNkO9+8eRMAZ2fnQuUKXv87d+7QtGnTMr9HnnTt2jUAmjRp8tQyT6ubvr4+tWrV0oRzceTk5BATE4OLiwsWFs++WWhsbCxqtRofH58i59etW7fY2xXKrkwnD7p164a7uzs//fQT27dv5+jRoyxbtkxr8PhZCnoO5aVRo0bUqlWLffv20b9/f+rXr89ff/3FmTNn6NSpk9Y3+Iuk4NINQ0PDUi0fGhrKZ599hpOTEx988AF16tTh1KlTrF+/XlOmPNtGkqSnzis42VHw2pb1PfKkvP+/sf2z6vq8upXkPadSqZAkSdMbfF7dTE1NWbp0aZHzzczMir1doezKfM2AjY0NEydOZPHixSiVStauXauZJ5PJyMnJKesmik0ul/Pll18ik8l455136N69O++//z4tWrTg008/rbR6lFRBz7WgR1JSixYtwtramnXr1tG3b19atWpVqPdXnm1Tp04dAG7dulVoXsGlDE+e5Suv90jBdq9evVriumVmZpKYmFii3qKpqSmmpqbEx8drnZ1+2naVSiW1a9emWbNmhf6JC3ArV5mC7ckPYrNmzZDL5Tx48EAzzcrKihs3bqBSqcqymRIxMzPDy8uL9957D39/fzZv3szKlSvL9Zq48tamTRsAgoKCtNovNzf3mT0QyO+hpKWl4eTkpNUruHPnDoBW25dX27i6umJlZcX+/fvJyMjQTD9//jznzp2jefPmmjG68nyPdOrUCZlMxtq1a7XWAY8PQdu3bw/kj409GUZbtmxBpVJp5heHTCajTZs2pKam8ssvv2jN+3d9u3btCsDChQu1tqtWq1/YsV1dVupD0YSEBAYOHEjr1q1p2rQpZ8+eRa1W89Zbb2nKdOjQgQ0bNhAYGIi7uzspKSlMnTq1XCr+NFOmTMHa2hp7e3uSkpI4duwY//zzD23btn1hT6vXr1+fvn37snPnTnx9ffHy8qJatWocO3bsub0ZmUzGm2++SXh4OAsWLMDJyYno6GiOHj0K5F9GUnBVf3m1jaGhIRMmTGD69On4+fnRuXNnlEolwcHBGBsbM2nSJKD83yMNGjRg1KhRrF69Gl9fX9q3b0+1atWIjIwkISGBvXv38uqrr9KnTx927dpFQEAArVu3Jj4+npCQEOrWrYufn1+x9xMgMDCQP/74gwULFvDHH3/g4uLCvXv3OHDggFa5Xr16ER4ezoEDB4iLi+ONN94gJyeHkydPYm5uzo8//lii7QplU+pg09fXp0ePHpw6dYqzZ89ia2tLYGCg1hvH39+fBw8ecPDgQS5fvoyDgwN5eXnFPtNXGn369GH9+vVERUVpTbe0tGT9+vVaZx1fJP/73/+ws7MjODhYc8Fm//79+f7775+77GeffYaBgQHBwcHo6+vj5ubG+vXr2b59O8HBwSQkJODo6FiubdO1a1fMzMxYt24dGzZsQF9fn9dff53AwEAaN24MVMx7ZPTo0dSrV4+ff/6Z3377DRMTE+rUqYO/v79m/GzKlCnUrVuX4OBgVq1ahaWlJT169GDMmDElHutydHRk7dq1fP/990RFRXHp0iVcXV3p1q0bwcHBmnJyuZz58+ezYcMG9uzZw6ZNm7CwsKBZs2b079+/RNsUyk4m/etYZ+mEGCysDBj2eb2qqlO5ys3NJTw8nMmTJzN48GDGjx9fKdvNfJjH2s/jcGhgQp8xpTsLWNGqqm0Eobyk3FGx+ZsErGwMWiYIEAAAIABJREFUGTz18RfzC/Vb0fJw9uxZzM3NNb991NfX1/RECi59+K8SbZPv0KFDTJ48+bnlZsyYQY8ePSqhRkJ506lgy83NZfr06SQmJuLu7o6zszOpqamcOHECY2PjQr91/C8RbfNY69at2bRp03PL2dnZVUJthIqgU8Gmr6/Pd999x+bNmzl9+jRRUVFYW1vj5eXF8OHDcXJyquoqVhnRNo892WsVdJNOBRtA48aN+eKLL6q6Gi8k0TbCf4W4NbggCDpHBJsgCDpHBJsgCDpHBJsgCDpHBJsgCDpHBJsgCDpHBJsgCDpHBJsgCDqnyAt083Ilzh3VrYfUVrYcVf69BR6m54q2FIQKlpujfd/CQsEmSfDoQS7HdiVXWqV0WXpyjmhLQahgqmztOxwX7rHJwLy6HvWaPP8+78LTqdVw6U8ltk6GWNvr3C/XBOGFcSFCiUz2nB5bwaMu3Lo8+6k8wrNlPVJz6c/8pzqJthSEinE/MZcLEUpMzLSjTJw8EARB54hgEwRB54hgEwRB54hgEwRB54hgEwRB54hgEwRB54hgEwRB54hgEwRB54hgE146N2/eZNKkSfj4+NCnTx+uXbtW1VUSXjAVGmyXLl1ix44dJV4uISGBXr16sW7dugqolfAyU6vVTJs2jcuXL+Pn58fAgQNxdnYGYOHChfj6+pKSklKsdYn3me6q0B8xfvLJJzg7O9OvX78SLZeZmcnDhw9JThY/Hhe0/fnnnyQkJDB16lS8vb215qWkpPDgwYNiP9VevM901wv162xJkpDJZLz66qvs2LEDS0vLclt3TEwMr7zySrmtT6ga169fB/KfkfpvM2fO5NGjR1SrVq1Y66qI95nwYihTsJ05c4a1a9cS93/s3XdcFMf/+PEXR5ciKohgQ4mNKHzkQMUIdkWUYI1djAW7sUVj+WhM1KhfFWPslcRCNGpQsWEvaCCiYrCikRBQEUERBKTc/v7gdxtPLFT1c5nn45FHZHZ2dnZ2732zs3O7d+9iZmaGs7Mzvr6+lCtXDi8vLwCioqJo2bIlAJMmTaJjx44AdO3aFSsrK4YPH87KlSu5e/cuHh4eVKpUicDAQAAGDRpE//79ARg2bBgODg44OzuzadMm4uLisLa2pmfPnnTq1EmukyRJbNmyheDgYB4/foytrS0NGjTgwIEDfP/999SvX784u1yqwsLC2Lx5M9HR0ejp6VGvXj369evHf/7zHwDWrFnDzz//zFdffUX79u2BvP2dNGkSV69eZc2aNVSvXp0bN26wfft2Ll68SEZGBlZWVrRu3ZoBAwagp5d3yM+fP8/s2bP54Ycf2Lx5M+Hh4ejq6tKgQQOGDx/OiRMnOHz4ME+ePMHe3p5Ro0bh4OBQqPpmZGTg5eXFrFmziI2NZf/+/aSkpFCjRg1GjRpV6GPh4+PD06dPARgwYAAAgYGBlC9fXm4PhULBsWPHAMjMzGT16tWcPXuWZ8+eYWdnh6enJz4+Pqxdu/aV5xnAvXv32Lx5MxcuXCAlJQVra2uaN29Oz549MTPLe6DBpUuXCAgI4ObNm+jq6uLg4MCgQYOoV69eofZJKB26X3/99dcvJvx+OBkDIwUObmXeuGJCQgJjxowhPT0dHx8frK2tOX36NN7e3pQtWxYbGxsuXLiAjY0NI0aMoFmzZjg6Osrfjtu3byc9PZ3Tp0/j4+NDs2bNaNGiBdbW1hgaGnLz5k0aNmyIk5MTAMHBwVy4cIFr167RpUsXWrRoQXR0NMHBwTg5OWFjYwPA8uXL2bZtGw4ODnh7exMXF8e5c+do2rQpvXr1KoUmfLWcbImroemYWujyUUPjt+YPDg5mzpw5GBgY0L59e2rUqMHFixfZt28ftWrVomrVqjg6OnLy5ElCQ0Px8vLC0NCQnTt3snfvXsaMGUPjxo0B2LVrF0eOHMHJyQlHR0cePHjA2bNnSUtLk/PExcUREhLCoUOHaNiwId26dUOhUHD69GmCg4N5+vQp/fv3p379+pw+fZojR47QsWNHjIyMClzfnJwctm7dSnh4OM+fP6dXr140aNCA0NBQDh8+jI+PDwYGBgVuU0NDQ54/f05CQgLdu3fnk08+wdHREUNDQwwNDXn48CGpqan4+voCeefCnj17aNCgAe7u7iQmJpKRkYG7uzt6enqvPM+io6MZM2YMt27donHjxjRp0gSA0NBQ2rdvj6mpKaGhoUydOpXc3Fy8vb2pXbs24eHh7N27l4YNG1KxYsWCnyhCsWQ+U3Hz9wyMTXRxdP+np17kHlt0dDRZWVn07dtX/vYcOnSo/I3m6enJ8uXLsbCwwNPT85VlPH78mLlz59K0aVONdH19ffbs2ZMvv46ODitWrMDCwgKAevXqMWDAAEJCQmjYsCHJyckEBQXh4ODAggUL0NHRwdvbm379+nHp0iX5UvdDk5iYyLJly3BwcGDJkiXyh71Pnz4MGjSIVatW0bRpUwwMDPjyyy8ZN24cq1evpkePHqxbtw43Nzd8fHzk8nr06IGnpyfVq1cH8npO/fr148CBA4waNQpdXV05b/fu3fHz8wOgRYsW3Lx5k/j4ePz9/eUvIT09PZYuXUpYWBjt2rUrcH3VatSowdKlS+W219fXZ8mSJXKwKKiuXbvy6NEjIiMj8fLykm8aqLd9+fJl7t27J6dFRUWhp6fH/Pnz5W2npqYC4OTklO88kySJefPmkZ6ejr+/P46OjvKy58+fY2hoSE5ODv7+/hgZGbFy5UosLS0B6NixI76+vixfvpzVq1cXeJ+E0lHku6L29vbo6elx9OhR4uLiAOSgVlAWFhb5gtqbGBsby0ENoGrVqhgaGvLgwQMgb/xFpVLRqFEj+UQ2MjLCycmJ9PR0kpOTC1W/d+X48eNkZ2fTs2dPALKyssjKysLMzIymTZsSFxcn193R0REfHx8OHTrE1KlTMTMzY/LkyRrllS9fXg5qkNfTcXV15fnz5/kGyitVqqTxt4WFBXp6ehrjTuqxyYSEhELXF8Da2lrjC0Vdnvq4lZbatWuTk5PDtm3bUKnynrD6pnP05s2bxMTE0Lx5c42gBnltCHnBMikpibZt28pBDaBKlSo4Oztz8+bND/Y8+zcpco/NxsaGL7/8kiVLluDr60vLli0ZPHiwfElYEFZWVkXdvKxMmTKkp+c90NHU1BTI6wm+KCUlBV1d3QIPKr9rd+/eBWDmzJmvzaP+YAL4+flx7tw5EhISmD9/vkawh7yex6lTp9i5cyd3794lOztb/mAW9I7hi9Tjcrm5uUWq78tMTEwA5ONWWkaMGEF8fDzr169n//799O/fH09Pz9f22mNiYoC8mwqvo+4RVqtWLd8y9bmfkJBA+fLli1l7oTiKdfOgXbt2KJVKAgMD2bt3L+fOnWPx4sUFHkAt6ctCe3t7rKysOHLkCJ07d8bOzo4//viDS5cu0aJFC/kD+qFRB4ypU6dSpUqVV+apUKGC/O8nT57Ig+h//fWXPG6m9v3337Nnzx4aNWrExIkTsbCwYMeOHYSFhb3T+mZmZpbI9orKzMyMpUuXcvbsWQICAli4cCHh4eHMmjXrlfnV+6Wvr//aMiVJeu0ydTD/EIc7/m2K/UmvUKECo0eP5pNPPmHChAls3ryZefPmAXkHOCcnp9iVLCiFQsG0adOYMWMGgwcPxtLSksTERJycnBg7duw7q0dhVa5cGUC+u/YmkiQxf/58AOrXr8+6deto0KCB/GUSHx/Pnj17aNq0KXPnzpXXCwsLK7HAVpj6vm86Ojq4u7vj5ubGlClTOHnyJL1796Z27dr58tra2gJw586d15anznP//v18y9RTUV6+vBfevWL98kDddQdwcHBAoVDIg7OQN14TFxdHVlZWcTZTKCYmJnh4eNC3b18GDhzI+vXr8ff3/2AvQwFatWqFQqEgICCAtLQ0jWUvz6LfuXMnV65cYdCgQcyePRtTU1Nmz54tt/uTJ3mv+nt5npd6fCw7O/ud1vd9SkhIkHuN6ukogMY5+qIGDRpgaWnJkSNHiI6O1lgWHx8P5H2ZWFhYcOzYMY19v3r1KlFRUfJy4f0qco8tLi6OQYMGoVQqcXBwIDIyEpVKJd8eB3B3dycwMJBJkybJdy0nTpxYIhV/ndmzZ1OhQgUqVarEo0ePSE5O5vbt27i5uRX65sa7Uq1aNYYMGcLatWsZOHAgHh4eGBsbc+PGDW7evMmWLVuwsLAgNjaW9evXU7duXXl6xpQpU5g6dSoLFixgzpw5fPTRR1haWrJz504UCgWmpqacOnWK27dvA3D58mXs7e3fSX3ft3Xr1nHx4kV5GCI4OBgLC4tXTu6FvOA3efJkpk+fzqhRo/Dw8MDW1paYmBhCQ0NZsWIFdevWZdSoUcybN48RI0bQqlUrMjIy2L9/P4aGhowZM+Yd76XwKkUObHp6enh6ehIREcGVK1ewsrJi8ODB9OnTR87j6+tLamoqJ06c4NatW9ja2pKbm6sx3aCkderUiW3btnHlyhWNdDMzM1auXPnaMaH3rXfv3tja2hIYGEhwcDD6+vrUrFmToUOHYm5ujkql4rvvviM3N5cvv/wShSKvs92kSRM6d+5MUFAQO3fupHv37ixYsAB/f39++uknzM3NadGiBdOnT2fhwoXs2rWr0D9xK0p9PwRKpZL4+HgOHz4sTz728/OTb168iqurK8uWLSMgIIDz588jSRLW1tZ89tln8vy0Nm3aUKZMGbZu3crPP/8slz1kyBBq1ar1rnZPeAMd6aXR0BUTbmNioUu38ZavW+d/Sk5ODqGhoXz99df06NGDkSNHvpPtZj5TsX1BItZ2BngOKvdOtikI/zaPE3LYuyKJclYG9J32z53qD/M2YTFERkZiamoqX27p6elRtWpVgHc61icUzKlTp3jpxy+vNGXKlNdO9BaEl2lVYMvJyWHevHkkJibi7OxM9erVSU5OJiwsDENDQ43flAofBhcXF9atW/fWfNbW1u+gNoK20KrApqenx5w5c9i5cycXL17kypUrlC9fHg8PD/r06fPKSZXC+2ViYiKeuiKUOK0KbAC1atVi6tSp77sagiC8R+LR4IIgaB0R2ARB0DoisAmCoHVEYBMEQeuIwCYIgtYRgU0QBK0jApsgCFpHBDZBELRO/gm6EkgSpKe+/tHOwts9T89rP1WOaEtBKC052XnP8Hj5ycb5nu6xfPztd1crQRCEEmBorMvQef+8tSxfj00HMCuvj1l5rfu11TslqeDenxlUtjfOa1RBEEpF/O2MfGn5o9f//xB2GVW5tOuj1TLSctnw37y3OYm2FITSkXQ/i8CFsZQx1Xx4rbh5IAiC1hGBTRAErSMCmyAIWkcENkEQtI4IbIIgaB0R2ARB0DoisAmCoHVEYBMEQeuIwCYIgtYp1cAWFRVFYGBgodeLiYmhdevWrF69uhRq9WF69uwZv/zyC7dvl85vdUu7/LfJzc2lV69e+Pn5lep2inrOCdqlVAPb6NGjOXr0aKHXS09PJzU1lcTExFKo1Ydpz549LFiwgOTk5P/J8t8mNzeX5ORkHj58WKrbKeo5J2iXD+qX7pIkoaOjg4ODA4cOHcLCwqLEyr516xa1a9cusfLeN3Vb/a8wMDDg119/RaEQox9C6StWYAsLC2PlypXcuXMHc3NzXFxc8PPzk9++DhAZGYmLiwsAM2bMoHPnzgC0a9cOa2trxo4di7+/P3fu3KF169bY2Njw448/AjBixAgGDx4MQP/+/WnQoAGurq6sXr2av//+m0qVKtGvXz+6du0q10mlUrFp0yZ2797N48ePqVKlCv/5z38ICgpi3bp1ODk5FWeXS8XSpUvZsmULACNHjgSgYsWKHDhwAIBp06YREhLCjh07WLp0KREREZQtW5Z9+/aRlJREQEAAZ86cITExkbJly9K4cWPGjh2LpaVlgcq/evUqmzdv5vfffyc9PR1ra2vat2/PkCFD0NfXB/J60R4eHixcuJDIyEj2799Peno69vb2DBs2jPT0dAICAoiJicHGxgZfX18+/fRTAM6dO8fYsWMBaNSoEStXrpT3PTU1lTVr1nD06FFSUlKoWLEirVu3ZujQoRgbG8v1P3fuHN999x2LFi3iypUrlC1bltatWzNmzBgMDAzk+sHrz7n09HTWrl1LSEgIjx8/pmLFinh6ejJ48GAMDAxK/LgK70+RA9v9+/cZP348RkZG9OzZk9TUVEJCQvDz88PQ0JBZs2Yxf/58rK2t+fzzzwHyBZWEhASmT5/OgAEDKFOmDPXq1SMjI4P09HR++eWXfNvcs2cP586do0+fPpiYmLBt2zbmzZtH1apVcXV1BWDx4sVs374dNzc3mjRpQkhICLt376Z58+YfZFCDvCCfmJjI4cOHGTBgADVq1JA/1C8aP3487u7udOjQAX19fXR1dYmOjmbHjh00bNgQNzc37ty5w4EDB4iOjmbr1q0oFIq3ln/s2DHOnDlDo0aNsLKy4vfff2fDhg2kpqYyefJkjTpMnTqVxo0bM3nyZGJiYti4cSMTJkygbNmyDBo0CHNzczZv3sw333xDpUqVaNSoEXZ2dowePZpVq1ZplJWWlsbgwYOJiYmhTZs2VK1alatXr/LTTz9x+fJl1q1bh65u3lMb/vzzT0aOHEnXrl3p0qULx48fJzAwEBMTE4YPH/7Wcy4nJ4fRo0dz5coVWrVqRb169bh8+TIbNmzg1q1b+Pv7l+gxFd4z6SXLx0dLP34T83JyPidOnJCUSqW0bt06OS0lJUUjT/PmzaVBgwa9cv22bdtKSqVSOnXqVL5lV65ckZRKpbR+/Xo5rV+/flKzZs2k5ORkOS0mJkZSKpXS119/LUmSJD169EhydXWVBg4cKKlUKkmSJCk9PV3y9PSU3N3dpdzc3LfuV0lJT82RfhgXLe3+Ia5A+bdu3SoplUopLCws37KpU6dKSqVSWrJkySvXDQ8P1/h7/PjxklKplCIjIwtU/qNHj6Q7d+7Ifz979kxq166d9Mknn0g5OTlymlKp1GhbSZKkefPm5TuOd+7ckZRKpTR79myN7bi5uUkjRoyQ/54/f77k4uKS7xxYsWKFpFQqpYMHD0qSJEn+/v6SUqmUQkND5Ty5ublShw4dJG9vb411X3fObd++/ZVt+N///ldSKpXSmTNn8q0jfPge3Xsu/TAuWtoy9y+N9CIPeNSqVQs9PT0OHjxIbGwsAObm5oUq48VL1oIwNjamXLly8t/Vq1fH0NCQe/fuAXD37l1UKhVubm7y+JOxsTENGzYkPT39vQ2clxT1JdXL1L1VyLsUb9myJYB8XN6mQoUK1KxZU/7byMgINzc3MjMz8w3229jYaIztVahQAUC+7AWoUaMG+vr6PHjw4LXbVKlUHDx4kDp16tCkSROysrLk/9SXsBcvXtRYx9bWVv63QqHgo48+IiEhAZXq7Y9eV99Q8PX11Ujv3r07AGfOnHlrGcL/jiJfilauXJmZM2cyd+5cunfvTrt27RgxYgSVKxf8oYoVK1Ys6uZlJiYmpKenA2BqagrA48ePNfI8efIEXV1dypYtW+ztvU/W1tavTL927RobNmzgjz/+4MmTJ/J+Pn/+vEDlSpLEsWPH2LZtG7dv3yY7OxsjI6NClfEiHR0d9PT0yMnJeW2eBw8ekJaWxo0bN2jatOkr87wtYJmampKbm0tmZiZlypR5Y964uDjMzc0pX768Rrr6fL1///4b1xf+txTr5oGXlxeurq789NNP7Ny5k9OnT7Ny5Urq169foPVL+q5e7dq15UHxHj16ULNmTS5fvsyFCxdo06aNPBCuTUJCQpgxYwZ2dnYMHz6cKlWqEB4eTkBAQIHLWLhwIb/88gtNmzZlxowZWFhYsHXrVkJDQ0ut3rm5uQA4OzszZsyYV+YpiS++gtZD0C7Fnu5hZWXFxIkTad68OcOHD2fDhg3yQKyOjg7Z2dnFrmRBKRQKvv32WyZOnEivXr2oWLEiCQkJODs75xsE/9Cog3xh22vp0qVYWlqyadMmTExMgFf3sl5X/t9//80vv/yCh4cHS5YskdPPnTtXqoHN2toaAwMDHj16RIMGDUqs3Nedc1WqVOHixYukpaXJPXvImwyuXi5oj2JNKvrzzz/lfzdo0ACFQsHTp0/ltHLlyvH333+TlZVVnM0UiomJCa1ateLzzz/Hz8+PwMBA1qxZU6Jz4kqD+hKpML8MkCSJJ0+eYGdnJwc1+Oey6sV2f1356sv2jz/+WCP9VWWUJAMDA1q1akVsbCw7d+7UWJaWlkZmZmaRyn3dOdeiRQsAjbvtKpVKngajXi5ohyL32GJjY+nZsyeNGzemfv36XLx4EZVKRbNmzeQ8LVu25Mcff2TkyJG4urqSlJTEtGnTSqTirzN16lQsLS2xtbUlMTGRM2fOcPPmTdzd3Qt9c+NdcnV1xcTEhPXr15OUlIRCoUCpVOLu7v7adXR0dPjkk084deoUS5Yswc7OjqioKE6fPg1AREQEvXv3fmP5rq6uVKxYkW3btqFQKDA1NeX48ePcvHlTLqO0JjaPHz+eK1euMH/+fE6fPk29evVITk7m5MmTdO7cmVGjRhW6zNedc927d2ffvn2sXLmSu3fvUqNGDX777TciIiJo27YtjRo1KoU9FN6XIgc2PT09vL29CQ8P5+LFi1hbWzNy5EiNu05+fn48ffqUI0eOcOPGDSpXrkxubq48N6k0dOnShYCAAC5duqSRbm5uTkBAANWqVSu1bRdH+fLlWbRoEf/3f//Hjh07MDc3L1BdZ8yYgb6+PkFBQejp6eHi4kJAQAA7d+4kKCiI2NhYqlWr9tryjYyM+P7775k/fz7r1q3DwsKCNm3a8O233/LNN9/w888/y8GxpFWoUIGAgABWr17NyZMnCQ8Px8rKCnd3d7y8vIpU5uvOOQMDA9asWcOqVas4ceIEISEhWFtbM2zYMHnOm6A98r0wecWE25iV02fAf6u/rzqVqJycHE6dOsWUKVPo27cv48ePfyfbVb9+r7K9MV1Gi9fvCUJpUL9+r5yVAX2n/dMR0Lof7l28eJFbt27Jf+vp6ck9n6JMXRAE4X/PB/Uj+OLKyclh5syZJCQk4OrqSo0aNUhOTiY0NBQjIyON35QKgqC9tCqw6enpsWjRIgIDA/n999+5dOkSlpaWtGrVioEDB2JnZ/e+qygIwjugVYENoG7dusyePft9V0MQhPdI68bYBEEQRGATBEHriMAmCILWEYFNEAStIwKbIAhaRwQ2QRC0jghsgiBoHRHYBEHQOiKwCYKgdfI/3WP8HXRK76lC/yqqXAkdHdBR/O+82FgQ/teociUMjXUZOq+GnJbvJ1USEnp64oNYElS5oGcg2lIQSpPqFa+tyBfYdHTAsIyCbuMt8+cWCizzmYrtCxIpb6OP56Byb19BEIRCe5yQw94VSZQx1bzMFGNsgiBoHRHYBEHQOiKwCYKgdURgEwRB64jAJgiC1hGBTRAErSMCmyAIWkcENkEQtI4IbIIgaB0R2P6lYmNjadmyJatWrXrfVRGEEleqge369evs2rWr0OvFxsbi4+PDpk2bSqFWwruSm5vL4MGDGTdu3PuuivAvU6qB7csvv+TkyZOFXi8jI4O0tDQePXpU8pUS3hmVSkVycjKJiYnvuyrCv8wH9cJkSZLQ0dGhTp067Nq1C3Nz8xIr+/bt23z00UclVp7wdvr6+mzduhWFQox4CO9WsQLbhQsX2LBhA3fv3sXMzAxnZ2d8fX0pV64cXl5eAERFRdGyZUsAJk2aRMeOHQHo2rUrVlZWDB8+nJUrV3L37l08PDyoVKkSgYGBAAwaNIj+/fsDMGzYMBwcHHB2dmbTpk3ExcVhbW1Nz5496dSpk1wnSZLYsmULwcHBPH78GFtbWxo0aMCBAwf4/vvvqV+/fnF2uVSFhYWxefNmoqOj0dPTo169evTr14///Oc/5OTk0KNHD/T09NixYwc6Ov88DikkJITvvvuOiRMnym2xZ88egoKCiI+Px8TEhEaNGjF06FAsLd/81JZevXphamrK+vXrNdKHDRtGcnIyv/zyi5x27949Nm/ezIULF0hJScHa2prmzZvTs2dPrl+/zpQpUwBwdnZm8eLF8nr3799n7dq1RERE8Pz5c6pXr0737t1p166dnGfVqlWEh4czc+ZMfvjhB65du4aZmRnNmzdn2LBh6OvrF72hBa1X5K/ShIQEpk+fTnx8PF27dsXNzY3Q0FAADAwMmDJlCoaGhlSpUoUpU6YwZcoUnJycNMpITEzk22+/pW3btnzxxRf06tWLxo0b4+Pj88ptHjx4kNWrV+Pt7c2kSZMwNjZm8eLFXLp0Sc6zfPlyNm7cSPXq1Rk6dCjGxsYEBwfj5ub2QQe14OBgpk6dSkpKCl27dsXT05M7d+4wceJEzp07h56eHh07duTRo0dERERorHvo0CFMTU1p27YtkBcUli5dipGREf3796dZs2YcO3aMUaNG8fTp0xKpb3R0NMOGDePo0aM4OTnRs2dP7Ozs2L9/P+np6VStWpWhQ4eiq6v5OJkHDx4wYsQIQkNDad26NX379iU3N5fvvvuO7du3a+SNiYlh0qRJNGjQgMmTJ1O/fn127drFli1bSmQfBO1V5B5bdHQ0WVlZ9O3blwEDBgAwdOhQzMzMAPD09GT58uVYWFjg6en5yjIeP37M3Llzadq0qUa6vr4+e/bsyZdfR0eHFStWYGFhAUC9evUYMGAAISEhNGzYkOTkZIKCgnBwcGDBggXo6Ojg7e1Nv379uHTpknyp+6FJTExk2bJlODg4sGTJEgwMDADo06cPgwYNYtWqVTRt2hRvb28CAwMJCQnBxcUFgIcPH3L58mW6d++OoaEhd+/e5ZdffuHjjz9m6dKl6OnlHWIHBwcWLlzItm3bGD58eLHqK0kS8+bNIz09HX9/fxwdHeVlz58/x9DQUK7A/s25AAAgAElEQVR/QECAxrqrV68mJSVF47j37NmTIUOGsHHjRjp06KAxBDF58mQaN24MQIsWLYiKiiIkJITPP/+8WPsgaLci99js7e3R09Pj6NGjxMXFAchBraAsLCzyBbU3MTY2loMaQNWqVTE0NOTBgwcA/PXXX6hUKho1aiQHMCMjI5ycnEhPTyc5OblQ9XtXjh8/TnZ2Nj179gQgKyuLrKwszMzMaNq0KXFxcSQnJ2NtbU2jRo04ffo0GRkZQF5vDeDTTz8F4NSpU0iSRPfu3eWgBtC2bVuMjIw4f/58set78+ZNYmJiaN68uUZQA+Sg9irZ2dmcO3eO6tWraxx3Q0NDPD09ycrKytcbtbGxkf+tUCioWbMmiYmJqFSqYu+HoL2K3GOzsbHhyy+/ZMmSJfj6+tKyZUsGDx6scSK+jZWVVVE3LytTpgzp6ekAmJqaAnk9wRelpKSgq6tL2bJli7290nD37l0AZs6c+do86g+yj48Pv/32G6dOncLT05PDhw/j6upKlSpVgLxxL4Bq1apprK+np4eVlZX8JVAcMTExANSpU6dQ6yUmJpKdnZ2vbvBPAHtb/UxMTMjNzeX58+cYGxsXavvCv0exbh60a9cOpVJJYGAge/fu5dy5cyxevJh69eoVaP2Sviy0t7fHysqKI0eO0LlzZ+zs7Pjjjz+4dOkSLVq00OjBfEhyc/Me2j516lQ5QL2sQoUKADRu3JhKlSpx+PBhbG1tuXfvHmPGjJHzvfRuHg0qlapE2lxd38IO4L+tblDy54Tw71Ts+/AVKlRg9OjRLFiwgIyMDDZv3iwv09HRIScnp7ibKDCFQsG0adPQ0dFh8ODB9OzZky+++AJHR0fGjh37zupRWJUrVwZAV1cXBweHV/6n/sCrxw0jIyP56aefsLGxkcegAGxtbYG8O48vyszM5OHDh/l61C8HG319/bceM/U27ty5U6j9rFixIvr6+vnqBnnDCEChevyC8DrFCmzqSxLIG5xWKBSkpqbKaRYWFsTFxZGVlVWczRSKiYkJHh4e9O3bl4EDB7J+/Xr8/f0/2MtQgFatWqFQKAgICCAtLU1jWVJSUr78Xl5e6OnpERERgY+Pj0Yvp1mzZgDs3btXI2jt3r2b7Oxsebl6gP7PP//UKLtSpUokJCTIY3iQd3kYGxsr/92gQQMsLS05cuQI0dHRGuvHx8e/dj/19fVxdXXl9u3bXL16VU5PTU3l4MGDGBkZyTdFBKE4inxtFhcXx6BBg1AqlTg4OBAZGYlKpaJJkyZyHnd3dwIDA5k0aZJ813LixIklUvHXmT17NhUqVKBSpUo8evSI5ORkbt++jZubW6Fvbrwr1apVY8iQIaxdu5aBAwfi4eGBsbExN27c4ObNm2zZskXjpomFhQUeHh6cPXtWni+oVqtWLTp16kRwcDATJkzAxcWF2NhYjhw5QuXKlendu7dchr29PREREUyaNIn//ve/lC1blrZt23LhwgVmzZqFl5cXSUlJbN++XSN46unpMXnyZKZPn86oUaPw8PDA1taWmJgYQkNDWbFiBXXr1n3lvg4bNozLly8zefJkOnbsSJkyZTh27BhJSUmMGzcOExOTUmhh4d+myIFNT08PT09PIiIiuHLlClZWVgwePJg+ffrIeXx9fUlNTeXEiRPcunULW1tbcnNz881tKkmdOnVi27ZtXLlyRSPdzMyMlStXvnYM633r3bs3tra2BAYGEhwcjL6+PjVr1mTo0KGv/AXGp59+ioGBwSuD9YQJE6hcuTL79+8nICAAU1NTPD09GTp0KGXKlJHzffPNN6xYsYKrV6/y7NkzObClpKQQFBTE/Pnzsbe3Z+LEiWzcuFHjrrKrqyvLli0jICCA8+fPI0kS1tbWfPbZZ1SsWPG1+1mtWjVWrFjB+vXrOXDgAFlZWdjZ2TFz5kx5IrcgFFf+N8FPuI2Jha7WvFc0JyeH0NBQvv76a3r06MHIkSPfyXbV7xW1tjMQ7xUVhFKifq9oOSsD+k7752671v2ILzIyUmNQW09Pj6pVqwK807E+QRDenw9z/kMR5eTkMG/ePBITE3F2dqZ69eokJycTFhaGoaGhxm9KBUHQXloV2PT09JgzZw47d+7k4sWLXLlyhfLly+Ph4UGfPn1eOTFUEATto1WBDfLuCk6dOvV9V0MQhPdI68bYBEEQRGATBEHriMAmCILWEYFNEAStIwKbIAhaRwQ2QRC0jghsgiBoHRHYBEHQOvkn6EoSmc9U7FwsXlZcLP//0QKP4rJFWwpCKUtPy9X4O19gk9AhJ0siJyv35UVCEeTmSDxLEW0pCO9SvsCmowNm5fTxGWH7PuqjNXKyJQIXxlLZ3phWvV7/fDJBEIpO/TkzNNYcVXvtb0XLWoo3bRdHxgtdY9GWglA6ku7nPYpMV1fzJUDi5oEgCFpHBDZBELSOCGyCIGgdEdgEQdA6IrAJgqB1RGATBEHriMAmCILWEYFNEAStUyqBbcyYMTRq1Kg0itZqGRkZfPPNN7Ro0QIPDw/27NlTouWnp6fj4uLCtGnTSrRcQQDYtWsXLi4unDlz5n1X5cPqsT179oxffvmF27dvv++qvBeLFy8mODgYLy8vhg8fjqur6/uuktb67rvv6NChA48eiQcUlLb79++zatUqVCrVO9vmBxXY9uzZw4IFC0hOTn7fVXnnnj59yt69e/H29mby5Mn06dMHW1vxe93S8ujRI548eUJmZub7rorWW7RoERs2bECSpHe2Ta17r+j/qtjYWFQqFR9//PH7rsoHRZIkdHR03p6xkBYsWEBaWhoWFhYlXrbw/hU7sD169Ihly5Zx5swZdHR0cHJyIjExUSPPw4cPCQgI4MyZMyQmJlK2bFkaN27M2LFjsbS0BGDp0qVs2bIFgJEjRwJQsWJFDhw4IJcTExPDypUrCQ8PJzs7m+rVq9OjRw+6dOlS3N14ryZPnszx48cBmDdvHvPmzWPWrFl4e3sDoFKp+Pnnn9m9ezdxcXGYm5vTuHFjRowYodGrkySJoKAggoKC+PPPP9HR0cHZ2ZmePXvi5uamkS8gIIBdu3aRlJRE3bp1mTJlCnXq1JHzhISEsGvXLq5evYokSdSoUYM+ffrg5eVV6P3r378/8fHxdOvWjYMHD5KcnEyVKlXo3r07n332mZxv2rRphISEsGPHDpYuXUpERARly5Zl37596OrqEh8fz/LlywkLCyMzM5MaNWrQt29fuU7nzp1j7NixeHt7M2vWLLncdevWsWbNGmbNmkX79u1p2rQpAAqFgvDwcADOnDnDV199xcaNG1m/fj3nz59HV1cXJycnxo0bx5EjRwgODubx48fUqlWLCRMm0KBBg1JpL4CIiAh+/PFHoqKiyMzMpFatWnz66ad07twZXV1dAH7//XfWrl3L9evXUSgUNGjQgBEjRlC/fn0gb0zVw8OD+fPnc/fuXYKCgkhJScHe3p4JEybg5OQkb+/nn39mx44dJCQkUKlSJdzd3Rk5ciQGBgZ8/fXXBAcHc+LECczMzOR11J/ZX3/9lapVq7722F+/fh2Axo0bA9ChQwe+/fbbUmk3tWIFtqSkJD7//HMSEhJo1aoVdnZ2hIeHc/v2bRSKf65yo6Oj2bFjBw0bNsTNzY07d+5w4MABoqOj2bp1KwqFgnbt2pGYmMjhw4cZMGAANWrUwNjYWC7jxo0b+Pn5oVAo8PT0xMTEhLNnzzJ37lz+/vtvxo4dW5xdea+8vLwwNTVl7969eHh44OjoSL169eTls2bN4uDBgzg7O9OqVSsePHhASEgI58+fZ8uWLVSqVAmAr7/+mv3791OzZk26devG8+fP+f333wkNDdUIbKdOnSIyMpIOHTrw+PFjgoOD+eKLLwgKCsLIyAiArVu3cv/+fTw8PDAyMuL48ePMnDkTIyMjWrVqVeh9fPr0KTdv3mTkyJGkpKRw4MABFi5cyIMHD/Idu/Hjx+Pu7k6HDh3Q19dHV1eXe/fu4evrS3p6Op07d6ZcuXJynZKSkujfvz9NmzbFy8uLffv24e3tjbOzM9euXWP9+vW0adMGb29vVCoVo0ePZu/evcTFxWls9/nz5wwcOJBu3boxa9Yszpw5w4EDBwgLC6NmzZqMGDGClJQU1q1bx9ixY/n111/lHl9JtldQUBBz586lXLlytGnTBlNTU6KioggKCsLHx0c+hl9++SWWlpb06dOHnJwc9u3bh5+fH6tWrdIIWt988w116tRh1KhRpKamyvUPDg7GzMyMI0eOsGjRImrWrEn//v2JiYnh+PHjjBs3rtDH+WV+fn6sXr2amzdvMnPmTHR0dKhSpYq8vKTPM5n0kuXjo6Ufv4l5OfmVvvrqK0mpVEqHDx+W03Jzc6W+fftKrq6uGnnDw8M1/h4/frykVCqlyMhIOW3r1q2SUqmUwsLCNPKqVCrps88+k1q2bCnFx8fL6dnZ2dLQoUMlV1dX6cGDBwWq87uSnpoj/TAuWtr9Q1yB8oeGhkpKpVLavn27RvqRI0ckpVIpLVmyRCP9/PnzklKplObMmSNJkiSFhIRISqVSGjdunJSVlSXny83Nlf9+9uyZpFQqpR49ekhpaWlynk2bNklKpVLav3+/nHb9+nUpJSVF/vvatWuSUqmURo4cWcAW+Ee/fv2kNm3aaKTl5ORIffr0kVxdXaV79+5JkiRJU6dOfeW+SpIkTZ48WVIqldKpU6fktMzMTKlLly6Sm5ub9OTJE0mSJCklJUVq27at1K1bNyklJUXq0qWL5OXlpbEvkiRJo0eP1jhHT58+LSmVSmnZsmUa+bp37y41btxYLl+SJGnHjh2l1l4PHjyQ3NzcpE6dOkmJiYkayzIzMyVJyjvvPT09JQ8PDykhIUFe/tdff0murq5S//79JUn653gPHDhQys3NlfPt2rVLUiqV0r59+yRJkqRFixZJSqVSunjxopznxX2ZNWuWpFQqpadPn2rUx9/fX1IqlVJsbKwkSZK0c+dOSalUSqdPn9bIN2HCBEmpVEo5OTn59re47fbo3nPph3HR0pa5f2mkF/nmwZMnTzh27BhOTk60a9dOTlcoFJQrVy5f/hfv8KlUKlq2bAnkjS29zfXr17lz5w6dOnXC0tKSrKwssrKyUKlUdOrUCZVKRWRkZFF35YMWHByMQqHA19dX3u+srCycnZ2pXLkyFy9eBGDfvn0AfPHFF+jr//P8N4VCofE3wEcffYSJiYn8t/rS7K+//pLT6tati7m5OZB3vOrWrYuNjQ1///13kfbj5XEyXV1dunbtikql4rffftNY1rlzZ42/s7KyOHPmDDVq1MDDw0NONzQ0pFOnTmRlZREWFgaAubk5U6ZMISYmhn79+hEXF8e3334r78vbvHzDply5cujr61O2bFk5TX3Jfv/+fTmtpNrr8OHDZGVlMXDgQHmY5sX9BYiMjCQxMZEOHTpQseI/DzGtVq0arq6uXLt2jaSkJDndxsZG4wqqdu3aANy7dw9AvjoIDAwkLS0NoMDtVVwlfZ6pFflS9ObNm6hUKo0u75tcu3aNDRs28Mcff/DkyRP5RHn+/Plb171z5w4A27ZtY9u2ba/Mk5urnY/fvnPnDiqVSuPL40XqsY27d+9SpkwZ7OzsCr0N9SV/enq6nJaZmcmOHTvYu3cv8fHxGBoakpWVhampaeF34jVsbGwAePDggUa6tbW1xt8PHz4kKyuLGjVq5CtDfVnzYpBp3bo1LVq04OTJkwwYMABnZ+cSqzOAnl7ex+bFc66k2uvPP/8E0BiKeJn6EvpV7VG5cmUgrz1q1qz5yvXVdVIf7w4dOhAVFcWOHTsICwujZ8+e+Pr6anz5lZbSOs+KHNjUAUn9LfImISEhzJgxAzs7O4YPH06VKlUIDw8nICCgQNtSn0B9+vShbdu2r8zzqoOsDXJzcylTpgwrVqx45XL1yZebmyt/4IorKyuLoUOHcuvWLbp27cqYMWPQ19dn/vz5JTo9Iisrq0D5pDdME1CfGy/2CHNycuTeSExMTNErWEAl2V7q/Xm5l/2iN7WHeq5YYe4k6+joMHnyZD799FPWrl3Lxo0bOXbsGJs2bSrVnltpnmdF/iRYWVkB/3zDvMnSpUuxtLRk06ZN8gfxVT019cHIzs7WSFf3SjIzMzXuRP0bVKlShYsXL2JjY5Pv0uRV+R4+fKhxeVIUBw4c4Pr164wfP56+ffvK6WXLli3RwKaeiP26O2pq1tbW6Ovr5xvsh7yeKvzTUwFYu3Ytt27dws3NjdOnT7N161aN/ShpJdle6h5odHQ0tWrVemOe+Pj4fMvU7VGUOZB169ZlyZIlrFmzhnXr1rF371769esnB9mcnJwClfNy4H3xc62+owule54VeYytdu3aWFpacvLkSa5du6ax7MVvYkmSePLkCXZ2dhpdW/Wlw4t5y5cvD5DvlwdOTk7Y2NgQHBzMrVu3NJa9PLVE23To0AEAf39/jZnbKpVKYyKzuif7/fffa1wiZWdn8/Dhw0Jt8/HjxwAac+oyMjJ48uRJvi+dgnr5ZH/w4AHbt2/HwMCATz755I3rGhgY4Obmxq1bt7hy5Yqcrp7UbGxsLE8luHbtGj/++CMeHh58//33ODs788MPPxAVFVWkehdESbZXmzZt0NHRYcOGDTx9+lRjmTqwOzo6Uq5cOQ4dOkRqaqq8/MqVK0RGRuLk5PTKce7XSU9P1xgOUA8vqbevHjJQDwlB3uf2woULGuWoh5de/vy+7nNdGueZWpF7bLq6uowfP54ZM2YwePBg2rZtS5UqVYiKiiIiIkIerNTR0eGTTz7h1KlTLFmyBDs7O6Kiojh9+jSQN1+nd+/eQN4NBhMTE9avX09SUhIKhQKlUom7uzuzZ89m9OjRDBw4kHbt2lGpUiViY2M5ceIE/v7+NGnSpFgN8aHy8fHh1KlTHD58mLt379KkSROys7MJCwvD1NSUjRs3AtC1a1dOnDjB4cOHuXPnDo0bN0alUnH69Gns7Oz4/vvvC7zNpk2bsmrVKhYsWECXLl3IzMwkKCiIZ8+ekZqayq1bt+QB6IJ6/PgxQ4cOpWHDhjx69Ijjx4+TlpbGuHHjCvQhHDt2LBEREYwZMwYfHx9MTU05dOgQjx49YsqUKZiampKVlcWsWbMwMjLiq6++QqFQMGfOHHr16sW0adPYunWrxjysklKS7WVvb8+QIUNYt24d3bt3p0WLFpQtW5aIiAhiY2PZv38/hoaGTJgwgZkzZ+Lr60v79u1JT0+Xp+tMmjSpUPU/dOgQixYtok2bNtjY2HDo0CEUCoX8hdOuXTvWrl3L3LlzGTJkCADbt2/PN8Dv6OiIsbExa9euJTExkSlTpgDQokULdu/ezbRp0/D09CQpKQk/P79SOc/UivWTqvbt27Nw4UJq1qzJ0aNH2bt3L1WrVsXR0VEj34wZM2jTpg1BQUEsX76ctLQ0AgIC6NevHxcuXJDvjJYvX55FixZhY2PDjh07OHDggNwjc3Z2JiAggEaNGnH8+HE2b97M7du36devHw4ODsXZjQ+aQqFg8eLFjBw5koyMDLZt28ahQ4eoUqUKQ4cOlfPp6uqydOlS/Pz85AHZY8eOUa1aNbp161aobdapU4fvvvuO58+f4+/vz759++jVqxdr167F3t6erVu3Fno/zMzMsLKyIigoiEOHDlG1alW++eYb+vXrV6D17ezs2LRpEy4uLuzdu5eAgADKlCnDvHnz6NGjBwArVqzg7t27jBkzRr4cr1ixItOnT+fevXvMnj270PUuiJJur2HDhjFnzhysra0JDg5m9+7d5Obm4ufnJ1/WdejQgcWLF1O2bFl+/PFHfv31V5ycnFi/fv0bbzy8So0aNXBxceH8+fNs27YNc3Nz5s+fL/fcqlSpgr+/PyYmJsybN48NGzbg6ekpz6lTq1ixIosXL6Zu3br8/vvvcnrTpk2ZOHEi2dnZbN68mfDwcJKSkkrlPFPTkV66Rlgx4TZm5fQZ8N/qRS5UyHv93ob/3qWyvTFdRld++wparH///iQkJBASEvK+qyJomaT7WQQujKWclQF9p1WT08VvRYUi+eyzz95648jGxkaeX/dvJ9rr3RKBTSiS//u//3vrHMSSmn6iDUR7vVuiJYUiqV5dDFUUhmivd0sENqHUbd68+X1XQfiX+aAeNCkIglASRGATBEHriMAmCILWEYFNEAStIwKbIAhaRwQ2QRC0jghsgiBoHRHYBEHQOq+coJuVqWLfunvvui5aRfX/n8mXdD9LtKUglLLMDM1XA+QLbJIEmem5/HUt/eVFQhGIthSE0qd66ZUn+XtsOmBqoYuybcm9tOPfKDdH4uzup1jbGVC3kfHbVxAEoUhO7UhB10AzLV9gU78Cwq6+0TuokvbKfPbPY7xFWwpC6XickDfmY2igq5Eubh4IgqB1RGATBEHriMAmCILWEYFNEAStIwKbIAhaRwQ2QRC0jghsgiBoHRHYBEHQOsUKbMOGDaNr164lVZcC69q1K8OGDXvn2xUE4X+D6LH9S/n7+9O9e3eSkpLktISEBDZu3IgkSfnyx8bG4uPjw6ZNm95lNQWhSERg+5dKSkri6dOnGi/x/eGHH9i8eTMqlSpf/oyMDNLS0nj06NG7rKYgFIl4r+i/1Ndff82zZ88oW7ZsgfLXqVOHXbt2YW5uXso1E4TiK3ZgU6lUrFmzhsOHD5Oeno69vT39+vXDzc1NI9/9+/dZu3YtERERPH/+nOrVq9O9e3fatWunke/SpUsEBARw8+ZNdHV1cXBwYNCgQdSrV++tdUlLS2PTpk2cOnWKp0+fYmlpSfPmzfH19cXIKO+H6I8ePWLbtm2cO3eOpKQkzM3NcXFxwc/PjwoVKgB5vRMvLy9mzZpFbGws+/fvJyUlhRo1ajBq1Cjq169f3GbToN6eo6MjlpaWchvVrl2bAQMGoFQqC91Gu3fv5tdffyUxMZGKFSvi5ubG4MGDAWjfvj0ACoWCY8eOAXnjpbdu3QKgTZs28v+nT5/O2rVrCQwMBGDQoEH079+fGTNmEBoayk8//UTVqlXl7T58+JDevXvTsmVLZsyYUeD6CkJJKvalaEpKChcuXKBTp040a9aM6Ohopk+fzsGDB+U8Dx48YMSIEYSGhtK6dWv69u1Lbm4u3333Hdu3b5fzhYaGMmnSJO7fv0/37t359NNPuX37Nl988QVRUVFvrMezZ88YPXo0QUFBODo60qtXLypXrszPP//MpEmTyM3Ne2DTnTt3+PXXX7G2tqZDhw7Y2toSEhLC5MmT840tLVy4kIiICIYMGYKfnx/3799nypQppKWlFbfZXikqKgozMzPGjh1Lv379+Pvvv5k8eTLnzp2T8xSkjU6ePMkPP/yArq4uPXv2xN7entOnT2NgYICenh5Dhw6lSpUqGtseOHAgtWrVAmDy5MlMmTIFb29vABo3boyPj49G/s6dOwNw+PBhjfRDhw6hUqno0qVLgesrCCWt2D02c3Nz1q5di45O3gOP/vzzT0aPHs2yZcv45JNPMDc3Z/Xq1aSkpDB37lyaNm0KQM+ePRkyZAgbN26kQ4cOlClTBn9/f4yMjFi5ciWWlpYAdOzYEV9fX5YvX87q1atfW49169YRGxvLnDlz5G0ArF+/nq1bt3Ly5Elat25N48aNWbJkCQ0bNpTzTJ8+nXPnznHt2jU+/vhjOb1GjRosXbpU3jd9fX2WLFlCaGio3OspSR4eHowbN07+u127dvTv35+VK1fi5uZGbm5ugdpIHTAmTJiAo6MjAKmpqUBeL61Pnz5cvnyZe/f+ebKvm5sb+/fvJzo6mnbt2qGr+89jYJycnNDX12fPnj1ymlKppHLlyhw5coTBgwfLbRQSEkKtWrX4+OOPycnJKdYxFYSiKnaPTVdXVz6pAWrWrEm3bt3IzMzkt99+Izs7m3PnzlG9enWNgGNoaIinpydZWVlEREQQFRVFUlISbdu2lT8AAFWqVMHZ2ZmbN2+SnJz8yjqoVCqOHj3KRx99hIuLC1lZWfJ/Xl5eAERGRsr5XwxqKpUKd3d3AOLi4jTKtba21ti3jz76CMjrgZaGF7cFYGVlRdOmTYmPjyc+Pr7AbVS7dm0Adu7cybNnzwAwMzMr8bp6e3vz8OFDLl++DMCVK1eIj4+Xe3PFOaaCUBylcvOgTp06ANy7d4/ExESys7OpVq1avnw2NjZAXqDIyMgAeGO+hIQEypcvn2/5w4cPefbsGdHR0a/tSb14p+/GjRts2bKFq1ev8vTpU3lA/MU7hK9iYmICQHr6u3vUd6VKlYC8fVQH1Le1Udu2bblx4wa//vorERERdO3ald69e1OmTJkSrVuHDh3YuHEjhw8fpmHDhhw6dAgzMzNat24NIPcIi3JMBaE4SiWw6evr5xWup/fKOVFq6mCjo6NT4Hyvoh4/c3R0fO3EXXWP4fjx48ydO5eqVasyePBgbG1tiYiIYNu2bW/Zq/cjKytL/ndB20hHR4exY8fSoUMHAgIC2LJlC6dOnWLFihUl2nMzNzenRYsWnD59muHDh3Pq1Cm8vb0xNDQsVH0FoaSVSmCLjY0FoGrVqlSsWBF9fX3u37+fL99ff/0F5H17q3tNb8qn7r2A5ofGysoKAwMDkpOTcXBweGPdVq1aRfny5Vm5cqXcg3lbT+19+vPPPwGoXLmyHAQK2ka1atVi7ty5bNq0iZ9++omDBw/y2WefvXZb6vJzcnI0xtjexMfHh5CQEObOnUtmZqbGTQZbW9tC1VcQSkqxx9hycnI0LvOePn3K3r17MTExwdXVFX19fVxdXbl9+zZXr16V86WmpnLw4EGMjIxwcXGhfv36WFhYcOzYMY27jlevXiUqKkpeDnk9hfv378uXrwYGBri7uxMXF6cxwA15d0vVgUuSJFJSUqhWrZrGZVlCQgIA2dnZxW2OYnl5YmxYWBiXLl2iVq1aWFtbF2woT/gAAB4QSURBVLiN0tPTefjwoby8QYMGwD83EF5H3b7qYFoQDg4OfPTRR1y4cIFGjRrJl5hAoY6pIJSkYvfYUlNTGTp0KM2aNSMpKYmzZ8/y9OlTvvrqKzl4DBs2jMuXLzN58mQ6duxImTJlOHbsGElJSYwbN04euxo1ahTz5s1jxIgRtGrVioyMDPbv34+hoSFjxoyRt+ni4sKuXbsYOXIkEydOpH79+owcOZKrV6+ydOlSzp8/T+3atXn8+DFnz56lY8eODBkyBB0dHZo0aUJoaCgrV66kWrVqXLt2TZ5OcfnyZbp161bcJimyM2fOMHv2bKpWrUpMTAyhoaHo6+vzxRdfAHmX+AVpo+PHj7Ns2TJatGhBpUqVOHr0KAqFgsaNG79x++7u7gQHB/Ptt9/SunVrkpOT8fX1pWLFim9cz8fHh8WLF8s3DdQKWl9BKGnFDmxDhgwhJiaGnTt3olKpqF27Nn379qVRo0ZynmrVqrFixQrWr1/PgQMHyMrKws7OjpkzZ9KyZUs5X5s2bShTpgxbt27l559/RldXlwYNGjBkyBB5jpV6myqVirNnz/L3339Tv359ypcvz6pVq9iwYQNnz54lIiKCChUq4ObmRtu2beV1J02ahL6+Pvv370dXV5eGDRuycuVK9uzZw/79+4mLi5Mn6r5r9vb2PH78mPDwcCBvSsXnn3+uMZG1IG1UrVo1nJ2d+f3338nMzKRatWqMGDHirROLGzVqxOjRowkMDGT79u2UL1+eTz/99K2BrU2bNuzdu1fjmBemvoJQ0nSkl0Z4V0y4jYmFLt3GW75uHaEAMp+p2L4gEWs7AzwHlXtjXvUvD1q2bMnMmTPfUQ0F4X/f44Qc9q5IopyVAX2n/XP3XfwIXhAErSMCmyAIWkcENkEQtI54bNEHwNjYmBMnTrzvagiC1hA9NkEQtI4IbIIgaB0R2ARB0DoisAmCoHVEYBMEQeuIwCYIgtYRgU0QBK0jApsgCFon/wRdSSI3WyLq7LP3UB3tkZOV92yBZym5oi0FoZRlZ2k+yzBfYJPQISNNRURI6bxi7t8m7XGuaEtBKGXZWZqPoX/FT6p0MC+vR62Gpu+oStpJlStx6eQTKtsbU8nO6H1XRxC0VsSxx7z86ox8gU1HJy/yuXV6Pw9b1BYZablcOvkEEG0pCKUl6X4WEcceY2yi+Y4OcfNAEAStIwKbIAhaRwQ2QRC0jghsgiBoHRHYBEHQOiKwCYKgdURgEwRB64jAJgiC1hGBTRAErVOqgS0qKorAwMBCrxcTE0Pr1q1ZvXp1KdTq30ulUnHy5EnxRixB65VqYBs9ejRHjx4t9Hrp6emkpqaSmJhYCrX697p9+zaTJk3i+vXr77sqglCqPqj3ikqShI6ODg4ODhw6dAgLC4sSK/vWrVvUrl27xMoTBOHDVazAFhYWxsqVK7lz5w7m5ua4uLjg5+dH+fLl8fDwACAyMhIXFxcAZsyYQefOnQFo167d/2vv3qOiKtcHjn9nGG5iKDhcRkQFL4lLIMSJcKko5iUvdbwUHS8gmrD00MXs2NHUtNLKlZmZlimCZXI09Wh5SbqYoZWoiC0yRRF+4AVUwIM4XGf27w8Pk5OaytXG57OWaznvfvd+n3nHeXz3fve8Gw8PD5577jmWLFlCVlYW/fv3R6fTsXbtWgCmTJnCpEmTABg/fjz+/v7o9Xo++ugj8vLy8PT0ZNy4cYwcOdIck8lkIiEhgS1btlBcXEybNm146KGH2Lp1K6tWrSIwMLAub7lBGAwG+vTpw6JFizh69Cg7duzAYDDQoUMHYmNjMRgMJCYmkpOTg06nIyoqiscff9y8/530TUpKCtOmTQNgzZo1rFmzBoD//Oc/eHt7N/6bFqIB1TqxnT9/nmnTpuHg4EBERARXrlwhOTmZmJgY7O3tefXVV3nrrbfw8PAgOjoa4IakUlBQwCuvvEJkZCTNmjXDz8+PsrIyDAYDn3/++Q1tbtu2jR9//JExY8bg5OTE+vXrWbhwId7e3uj1egAWL17Mhg0bCA0N5ZFHHiE5OZktW7YQFhZ2Tya1682cOZOQkBBmzJhBTk4Oa9as4cUXX6RFixZMnDgRZ2dnPv30U1577TU8PT15+OGHzfverm8efPBBYmNjWblyJX369KFfv34AtGolK48I61PrxHbixAkqKyuZOHEizzzzDHDtmpqzszMAw4cPZ/Hixbi4uDB8+PCbHqOoqIh3333XPLqrYWtre9PEplarSUhIwMXFBYBu3boxatQodu7ciV6vp7CwkM8//xx/f3/ef/99VCoVI0eOZOTIkRw8eBCTyYRafe9OBHft2pWlS5ei+t/iUoWFhWzevJk5c+aY+8jPz4+nnnqKr776yiKx3a5v3N3dCQsLY+XKlXTs2PGWn4kQ1qDW3/JOnTqh0WjYtWsXubm5AOakdqeuP2W9E46OjuYvLkC7du2wt7fn3LlzAGRnZ2MymQgNDTUnB0dHR4KCgjAYDBQVFd1VfI1Np9OZ44bfR1NardZc5uPjg62tLfn5+Rb73q5vhLif1DqxeXl5MXfuXPLz8xk9ejSzZ8/m7Nmzd3UMd3f32jZv5uTkhMFgAKB582ur/hYXF1vUuXz5MjY2NrRo0aLO7TU1lUqFRqOhurr6tnWv7xsh7id1Oi8bMmQIW7duJSIigm+//Za///3vZGRk3PH+qj+u51tHnTt3xt3dnZ07d3L69GkA0tPTOXToEP3798fW1rZe2xNC3JvqfMHJzc2N6dOns2zZMgwGA/Hx8eZtKpWKqqqqujZxx9RqNa+//joqlYqnn36aYcOGMXnyZIKCgpgxY0ajxXGvu5PRnhB/ZXW63eP06dP4+voC4O/vj1qtpqSkxLzdxcWFvLw8KisrsbOzq1ukd8jJyYnw8HDc3Nzw8vKia9eudOzYsVHavte5uroC127UFcKa1Tqx5ebmEhERQUhICN26dSMtLQ2TyUSvXr3Mdfr168fatWuZOnWqedZy1qxZ9RL4rcycOROtVkvr1q25ePEiKSkpnDhxgt69e9/15Ia10Wq1dOvWjR9//JHZs2fj5eWFk5MTkZGRTR2aEPWq1olNo9EwfPhwUlNTSUtLw8PDg6lTpxIVFWWuExMTQ0lJCV9//TXHjx/Hy8sLo9GIjY3Nnxy5bkaMGEFiYiJHjhyxKHd2diYxMZG2bds2WNt/BW+++Savv/463333HXZ2doSHhzd1SELUO5WiKBZPGl3+4ikecLElck67poqpXlVXV7N3715efvllxo4da777vqGVlRqJn5ONVwdHRsR5NUqbQtxvCs9XkrQoFxc3O8bO+n3Qcu/erVpLaWlpZGZmml9rNBrzKK2ioqKpwhJCNKJ76kfwdVVdXc3cuXMpKChAr9fj4+NDUVER+/fvx8HBweI3pUII62VViU2j0fDOO++QlJTEwYMHOXLkCFqtlvDwcCZMmED79u2bOkQhRCOwqsQG0KVLF+bPn9/UYQghmpDVXWMTQghJbEIIqyOJTQhhdSSxCSGsjiQ2IYTVkcQmhLA6ktiEEFZHEpsQwurc9AZdRYH/FjbeApHWqPyqCYDqapP0pRANpLL82vfMZLmWx42re3wwTRYhFEL8tdg72jB5oY/59U1HbM1dbHBu1XBrpt0PFBOcP12JR3s7bKzuh2tC3DvOnaq8oeyGr1zN81UGRLr8cZO4C+VXTWx4+yIgfSlEQykuqOaLU4U0a245EJPJAyGE1ZHEJoSwOpLYhBBWRxKbEMLqSGITQlgdSWxCCKsjiU0IYXUksQkhrI4kNiGE1alTYjMajUyaNIkXXnihVvv/9ttvbN68uS4hiDrIzc3liSeeICEhocHaMJlM7Nu3j5SUlAZrQ4g/qlNiM5lMFBUVcfHixVrt/89//pPvv/++LiGIOigrK6O0tJRLly41WBunT59mzpw5ZGZmNlgbQvxRnX6ebWtry2effYZaLWe0f0UPPvggmzdvxtnZualDEaJe1Tqxpaam8vLLLwPQvXt3Fi9eDMCHH35Iamoqc+fOZdmyZRw7dowHHniAsLAwYmNjsbW1paysjCFDhgCQkZFBv379AHjppZcYOnRoXd/TX05NfwQEBKDVajl8+DAVFRV07tyZyMhIgoODzXWPHz/Ohg0bSEtLo6ysDDc3N/r3709kZCQajeXHmZ6ezr///W+OHTtGRUUFvr6+PPbYYwwdOpT4+HiSkpIAmDhxIuPHjzfvl5uby+rVq0lLS6O6uhpvb2+eeOIJhg0bZq4TGxtL165d6d69OwkJCZw5cwYPDw8iIiLM9X766SdmzZoFwLp161i3bp35715eXgCUlpaSkJDA3r17KSkpQavVEhYWRlRUFA4ODg3Q2+J+YDNv3rx51xcc3F2EnYOarqHN/nRHtVqNq6srR48exdPTk0GDBgFw6NAh9u/fT0pKCr1792bo0KGUl5eza9cuVCoVQUFBqNVqdDodhw4dQqfTMWXKFHr16kVAQIDVjB6qqxR+3W+geUsbOgY5/nnd6mo+++wzLl68iL+/P48//ji+vr78/PPPbN++nU6dOuHt7Q3A5s2b+frrrwkMDCQgIID8/Hz27dtHaWkpISEh5mPu2LGDefPmUVpaSlhYGIGBgRQVFfHbb78xZMgQ7OzssLe358SJEwQFBREYGAjAyZMnefbZZ8nPz+fRRx8lICCAvLw8du7cSUVFBT169ABg+/btHDp0iGPHjjFixAj69u3LyZMn2b59O4GBgeh0OhwcHGjevDnp6en07NmTMWPG0KtXL7p06YKtrS1Xr14lLi6O1NRUQkJC6NmzJxUVFSQnJ5Oens6gQYPkbED8qfKrJk4cLMPRyYaA3i3M5bUesel0OsaMGUNiYuJNt8+YMcP8Revbty8ZGRkkJycTHR2NjY0NgwcP5oMPPqBly5YMHjy4tmFYlT59+lhMxAwcOJDx48ezYsUKQkNDUalUPPnkkwwePJh27doB10Z748aNY+fOnfzjH//AxsaGCxcusHTpUtzd3Vm+fDmtWrUyH7OiogKNRkNgYCC2trZs27bNvE1RFN58801sbGz4+OOP8fT0BK6N6F566SU2btzIiBEjcHd3B0ClUrF8+XJatmwJgJ+fH5GRkSQnJxMUFISbmxs9e/YkISEBX1/fGz7nVatWkZubyxtvvEHPnj3N5atXr+azzz7j+++/p3///vXcy+J+0GD/Hep0ut8bUavx9fXl4sWLmEymhmryL09Vsxje/9QkhrNnz3L27FkAXF1dzUkNwN7eHr1eT0VFhXkS4LvvvqOqqooxY8ZYJLWa+reSmZlJdnY2gwYNwtXVlcrKSiorKzGZTAwaNAiTyURGRoa5vqOjozmpAXh7e2Nvb09+fv5t36vJZOKbb76hY8eO9OjRw9xWZWWl+TLF0aNHb3scIW6m0dZ2dXJywmg0UlFRgaPjn5+aid/VjJouXLhAmzZtUBSFvXv3smnTJrKzs6mqqjInq4qKCgBycnKAa5MDdyM7OxuATZs2sWnTppvWud1/TM2aNcNgMNy2rQsXLnD16lVOnjxpvoxxt20JcSuyaPU9rrLSctnjpUuXsm3bNh5++GGmT59Oy5Yt2bhxIwcOHDDXMRqNwLVZ67tRs9/o0aPNEzp/dP1osS5q2goICCA2NvamdbRabb20Je4/TZrYVCoV1dXVTRnCPe/06dMAeHl5cfbsWbZt20bPnj1ZsGCBuc6BAwcsElvr1q0ByMrKwtfX947bqpmpLC8vp2vXrvURvvn0+o+fs5ubG3Z2dhQVFdVbW0LUaNIpp5YtW3LmzJkbRiX3qz+eeh04cIAjR47QqVMnPDw8uHz5MgBdunSxqFdQUABAVdW1x/z17dsXlUrFp59+ypUrVyzqnjt37pbtd+vWDQ8PD3bv3s2pU5ZPKyssLKzVe6q5BleToGvY2dnRu3dvzpw5YzGBAXD16lXzabUQtdGkI7bevXuTlJTESy+9RFBQEEVFRUyfPr0pQ2pSKSkpzJ8/H29vb3Jycti/fz+2trY8//zzAHTs2BGtVsumTZtQq9U0b96cvXv3mpNQeno6HTp0wMfHh/Hjx/PJJ58QFRVFr169cHZ2Jj09nTNnzrBhw4abTiJoNBpmzpzJjBkzmDp1KuHh4Xh4eJCXl8e+fftYuHCh+XaPO9WqVSv8/PxITU3ljTfeoHXr1jRr1oynn36aqVOn8uuvv/Lee+/x008/0blzZ4qLi9m3bx9Dhw7lmWeeqXunivtSkya2qKgorly5wp49e8jMzKR169YYjUZsbO7PR/916NCB4uJiUlNTAQgODiY6Oho/Pz/g2ozm22+/zZIlS/jkk09wdnamb9++vPLKKyxatIjNmzczatQoAKKjo2nbti0bN27kq6++wtHRkdatWxMVFXXD7Ov1AgMDWb58OfHx8aSkpGA0GtHpdDz11FN3PRlR49VXX2XRokWkpKRga2tLnz59gGszvB9++CHx8fHs27ePw4cP06pVK0JDQxkwYECt2hICbvLA5OUvnsKppQ2jpsmF27qoefyeR3s7Bk/888fv1fzyoF+/fsydO7eRIhTir6+4oJovlhfi4mbH2FltzeVyW7cQwupIYhNCWB1JbEIIqyM36N4DHB0d2bNnT1OHIYTVkBGbEMLqSGITQlgdSWxCCKsjiU0IYXUksQkhrI4kNiGE1ZHEJoSwOpLYhBBWRxKbEMLq3LC6xwfTTiFPPKs7BVBMgArUt14lSAhRRyYT2DvaMHmhj7nspj+psnO4P9dDq2/lBiMOjtKXQjSkcoPxhrIbEptKBXYOaiLn1M9DO+5XZaVG4udk00pnx4g4r6YORwirVHi+kqRFuTRrbjmAkJNOIYTVkcQmhLA6ktiEEFZHEpsQwupIYhNCWB1JbEIIqyOJTQhhdSSxCSGsjiQ2IYTVkcQmePbZZ3n44YebOgwh6k2DJraMjAySkpLuer+cnBz69+/PRx991ABRiTvx5ptv8thjj3Hp0qWmDkWIu9agiS0uLo5vvvnmrvczGAxcuXKFixcvNkBU4k5cunSJy5cvU15e3tShCHHX7qkHJiuKgkqlomvXrnz11Ve0bNmy3o6dmZlJ586d6+141u7tt9+mtLS0Xj8DIRpLnRLbgQMHWLFiBVlZWTg7O9OjRw9iYmJwdXWlT58+ABw9epQePXoAMHv2bP72t78BMHDgQDw8PHjuuedYsmQJWVlZ9O/fH51Ox9q1awGYMmUKkyZNAmD8+PH4+/uj1+v56KOPyMvLw9PTk3HjxjFy5EhzTCaTiYSEBLZs2UJxcTFt2rThoYceYuvWraxatYrAwMC6vOUGYTAY6NOnD4sWLeLo0aPs2LEDg8FAhw4diI2NxWAwkJiYSE5ODjqdjqioKB5//HGLY+Tk5LBixQpSU1OpqqqiXbt2PPnkk4wYMcKi3qVLl3j//fdJSUlBpVIRGBhoMTKurKykZ8+eAKjValJTU83bFEVh69atbN26ldOnT6NSqejevTsRERGEhoaa38vHH39McnIyxcXFuLu7M3jwYCZNmoSdnV1DdaEQFmqd2M6fP8+0adNwcHAgIiKCK1eukJycTExMDPb29rz66qu89dZbeHh4EB0dDXBDUikoKOCVV14hMjKSZs2a4efnR1lZGQaDgc8///yGNrdt28aPP/7ImDFjcHJyYv369SxcuBBvb2/0ej0AixcvZsOGDYSGhvLII4+QnJzMli1bCAsLuyeT2vVmzpxJSEgIM2bMICcnhzVr1vDiiy/SokULJk6ciLOzM59++imvvfYanp6e5gv+x48fJyYmBrVazeDBg3FycmLfvn0sWLCAvLw8nnvuOQAKCwuJjo6moKCA8PBw2rdvT2pqKqdOnUL9v9VFNRoNcXFxfPHFF5w5c8Yivnnz5rFjxw58fX0ZNWoUFRUVHDx4kP379xMaGkp1dTVxcXH88ssvhIeH4+fnR3p6OvHx8WRmZrJkyZLG7VBx/1L+4INpJ5W1r+X8sfgGe/bsUYKDg5VVq1aZy/773/9a1AkLC1MmTpx40/0HDBigBAcHK3v37r1h2y+//KIEBwcrq1evNpeNGzdO6dWrl1JUVGQuy8nJUYKDg5V58+YpiqIoly5dUvR6vTJhwgTFZDIpiqIoBoNBGTx4sNK7d2/FaDTe9n3VF8OVamXZCyeVLcvO3Lbu1atXleDgYIu4FUVRFi5ceEMfZWVlKcHBwcr8+fMVRVEUk8mkPPXUU0q/fv2Us2fPmutVVVUpkydPVvR6vZKfn68oiqL861//UoKDg5Xdu3eb6xmNRmXs2LGKXq+3iCkuLs6iLDk5WQkODlZeeOEFpbKy0mL/mtcbNmxQgoODlXfffdfiWHPmzFGCg4OVlJSU2/aFEHfj0rkKZdkLJ5V1C/7PorzWkwedOnVCo9Gwa9cucnNzAXB2dr6rY1x/ynonHB0dcXFxMb9u164d9vb2nDt3DoDs7GxMJhOhoaGoVCrzPkFBQRgMBoqKiu4qvsam0+nMcQO0atUKAK1Way7z8fHB1taW/Px8AH777TeysrIYNmwYWq2WyspKKisrMZlMDBs2DJPJxNGjR7l8+TLffvstgYGBDBw40Hw8tVpt0ae38uWXXwLw/PPPY2tra7F/zeuaiaKoqCiLfUePHg1ASkrKnXeGEHVQ61NRLy8v5s6dy4IFCxg9ejQDBw5kypQpeHnd+Wqx7u7utW3ezMnJCYPBAEDz5s0BKC4utqhz+fJlbGxsaNGiRZ3ba2oqlQqNRkN1dTUAWVlZAKxfv57169ffdB+j0ciJEycwmUy1Ph3Pzs6mWbNmtG/f/pZ1zpw5g7OzM66urhblNf8mzp8/X6u2hbhbdZo8GDJkCHq9nk8++YRNmzbxww8/sGLFCrp163ZH+18/OqkPnTt3xt3dnZ07d/Lkk0/i6+tLeno6hw4d4tFHH7UYaVgLo/Haeu9jxoxhwIABN63j4+NDWloaAPb29rVuR6Op3T+XmhiFaCx1vo/Nzc2N6dOns2zZMgwGA/Hx8eZtKpWKqqqqujZxx9RqNa+//joqlYqnn36aYcOGMXnyZIKCgpgxY0ajxdGYvL29ASgvL8ff3/+mf5o3b46bmxsAp0+frlU7bdq0oaSkhAsXLty2TmlpqUV5Tk6OebsQjaFOie36L4m/vz9qtZqSkhJzmYuLC3l5eVRWVtalmbvi5OREeHg40dHRxMTEkJSUxMqVK632fqzAwEB0Oh3bt28nMzPTYtv1t3F07twZrVbL999/z7Fjxyzq3cnnUzMaXLp0qcUIrKqqypzs+vbtC2Axo20ymVi3bp3FdiEaWq1PRXNzc4mIiCAkJIRu3bqRlpaGyWSiV69e5jr9+vVj7dq1TJ06Fb1eT2FhIbNmzaqXwG9l5syZaLVaWrduzcWLF0lJSeHEiRP07t37ric3/go0Gg3z588nLi6OCRMmMHDgQDw9PcnNzWXPnj0sWbKERx55BBsbG6ZNm8bs2bOZNGkSAwYMoE2bNmRkZHD48GHz7R63MnLkSPbs2cPu3bvJysoiJCQEk8nEDz/8QPv27Vm6dCmjR4/myy+/ZMWKFWRnZ+Pj48PPP//M4cOHGTBggPweVTSaWic2jUbD8OHDSU1NJS0tDQ8PD6ZOnWoxIxYTE0NJSQlff/01x48fx8vLC6PRiI1Nwz1rc8SIESQmJnLkyBGLcmdnZxITE2nbtm2Dtd1UunfvTmJiIitWrOC7777DaDTi5eXFuHHj6Nq1q7neoEGDsLOzY/Xq1XzzzTe4uroSFhZGQEAAGRkZf9qGjY0N7733HomJiezcuZONGzfi4uJChw4dGDVqFAB2dnasXLmSDz/8kD179pCcnIyHhwexsbHmexmFaAw3PAl++YuneMDF1mqeK1pdXc3evXt5+eWXGTt2LNOmTWuUdmueK+rVwVGeKypEA6l5rqiLmx1jZ/0+aLG6ZYvS0tIsrjVpNBrzKK2ioqKpwhJCNKJ76kfwdVVdXc3cuXMpKChAr9fj4+NDUVER+/fvx8HBweI3pUII62VViU2j0fDOO++QlJTEwYMHOXLkCFqtlvDwcCZMmPCnN5cKIayHVSU2gC5dujB//vymDkMI0YSs7hqbEEJIYhNCWB1JbEIIqyOJTQhhdSSxCSGsjiQ2IYTVkcQmhLA6ktiEEFbnljfo7krIb8w4rI7J9PvaAtKXQjSumya2kqIqSooab+Vba3Y2q6ypQxDivnPDskX5OeVNFYtVqa5SqCw3AdDsgYZbf04IcY1newfz329IbEII8VcnkwdCCKvz/wvR0reO9KaqAAAAAElFTkSuQmCC;" vertex="1" parent="1">
          <mxGeometry x="430" y="10" width="310" height="557" as="geometry" />
        </mxCell>
      </root>
    </mxGraphModel>
  </diagram>
</mxfile>
